G04 Layer_Physical_Order=2*
G04 Layer_Color=16711680*
%FSAX23Y23*%
%MOIN*%
G70*
G01*
G75*
%ADD23C,0.024*%
%ADD24C,0.098*%
%ADD40C,0.112*%
%ADD41O,0.079X0.098*%
%ADD42C,0.177*%
%ADD43C,0.157*%
%ADD44O,0.118X0.074*%
%ADD45R,0.074X0.074*%
%ADD46R,0.078X0.078*%
%ADD47O,0.078X0.118*%
%ADD48R,0.079X0.059*%
%ADD49O,0.079X0.059*%
%ADD50C,0.079*%
G36*
X03011Y02379D02*
X03014Y02376D01*
X03017Y02374D01*
X03020Y02371D01*
X03023Y02370D01*
X03026Y02368D01*
X03030Y02367D01*
X03033Y02366D01*
X03037Y02366D01*
X03040Y02366D01*
X03039Y02342D01*
X03036Y02342D01*
X03032Y02341D01*
X03029Y02341D01*
X03025Y02340D01*
X03022Y02338D01*
X03019Y02337D01*
X03015Y02335D01*
X03012Y02332D01*
X03009Y02330D01*
X03005Y02327D01*
X03008Y02382D01*
X03011Y02379D01*
D02*
G37*
G36*
X02079Y02305D02*
X02077Y02303D01*
X02075Y02300D01*
X02073Y02297D01*
X02071Y02294D01*
X02069Y02291D01*
X02067Y02287D01*
X02066Y02284D01*
X02064Y02275D01*
X02063Y02271D01*
X02033Y02317D01*
X02037Y02317D01*
X02041Y02316D01*
X02044Y02316D01*
X02048Y02316D01*
X02051Y02317D01*
X02054Y02318D01*
X02058Y02320D01*
X02061Y02321D01*
X02063Y02323D01*
X02066Y02326D01*
X02079Y02305D01*
D02*
G37*
G36*
X02722Y02487D02*
X02723Y02485D01*
X02724Y02483D01*
X02726Y02482D01*
X02729Y02480D01*
X02732Y02479D01*
X02736Y02478D01*
X02740Y02478D01*
X02744Y02478D01*
X02749Y02477D01*
X02750Y02454D01*
X02745Y02454D01*
X02741Y02453D01*
X02737Y02453D01*
X02733Y02452D01*
X02731Y02451D01*
X02728Y02450D01*
X02727Y02448D01*
X02725Y02446D01*
X02725Y02444D01*
X02725Y02442D01*
X02722Y02489D01*
X02722Y02487D01*
D02*
G37*
G36*
X03983Y02330D02*
X03982Y02332D01*
X03982Y02334D01*
X03981Y02336D01*
X03979Y02338D01*
X03977Y02339D01*
X03974Y02340D01*
X03971Y02341D01*
X03967Y02342D01*
X03963Y02342D01*
X03959Y02342D01*
Y02366D01*
X03963Y02366D01*
X03967Y02366D01*
X03971Y02367D01*
X03974Y02368D01*
X03977Y02369D01*
X03979Y02370D01*
X03981Y02371D01*
X03982Y02373D01*
X03982Y02375D01*
X03983Y02377D01*
Y02330D01*
D02*
G37*
G36*
X02794Y02106D02*
X02794Y02103D01*
X02795Y02099D01*
X02796Y02096D01*
X02797Y02092D01*
X02799Y02089D01*
X02801Y02086D01*
X02804Y02083D01*
X02806Y02080D01*
X02809Y02076D01*
X02754D01*
X02757Y02080D01*
X02760Y02083D01*
X02762Y02086D01*
X02764Y02089D01*
X02766Y02092D01*
X02767Y02096D01*
X02768Y02099D01*
X02769Y02103D01*
X02770Y02106D01*
X02770Y02109D01*
X02793D01*
X02794Y02106D01*
D02*
G37*
G36*
X01427Y02082D02*
X01428Y02079D01*
X01429Y02075D01*
X01430Y02072D01*
X01431Y02069D01*
X01433Y02066D01*
X01435Y02062D01*
X01437Y02059D01*
X01440Y02056D01*
X01443Y02053D01*
X01388D01*
X01391Y02056D01*
X01394Y02059D01*
X01396Y02062D01*
X01398Y02066D01*
X01400Y02069D01*
X01401Y02072D01*
X01402Y02075D01*
X01403Y02079D01*
X01404Y02082D01*
X01404Y02086D01*
X01427D01*
X01427Y02082D01*
D02*
G37*
G36*
X01541Y02187D02*
X01544Y02184D01*
X01548Y02182D01*
X01551Y02180D01*
X01554Y02178D01*
X01557Y02177D01*
X01561Y02176D01*
X01564Y02175D01*
X01568Y02174D01*
X01571Y02174D01*
Y02151D01*
X01568Y02151D01*
X01564Y02150D01*
X01561Y02149D01*
X01557Y02148D01*
X01554Y02147D01*
X01551Y02145D01*
X01548Y02143D01*
X01544Y02141D01*
X01541Y02138D01*
X01538Y02135D01*
Y02190D01*
X01541Y02187D01*
D02*
G37*
G36*
X01485Y02132D02*
X01483Y02134D01*
X01480Y02135D01*
X01477Y02136D01*
X01475Y02136D01*
X01472Y02136D01*
X01469Y02136D01*
X01466Y02135D01*
X01464Y02133D01*
X01461Y02131D01*
X01458Y02128D01*
X01446Y02150D01*
X01477Y02183D01*
X01485Y02132D01*
D02*
G37*
G36*
X06478Y03132D02*
X06473Y03132D01*
X06469Y03131D01*
X06465Y03131D01*
X06462Y03130D01*
X06458Y03129D01*
X06455Y03127D01*
X06451Y03126D01*
X06448Y03124D01*
X06446Y03122D01*
X06443Y03119D01*
X06426Y03136D01*
X06429Y03139D01*
X06431Y03141D01*
X06433Y03144D01*
X06434Y03148D01*
X06436Y03151D01*
X06437Y03155D01*
X06438Y03158D01*
X06438Y03162D01*
X06439Y03166D01*
X06439Y03171D01*
X06478Y03132D01*
D02*
G37*
G36*
X03320Y03151D02*
X03323Y03149D01*
X03326Y03147D01*
X03329Y03145D01*
X03332Y03144D01*
X03336Y03143D01*
X03340Y03142D01*
X03344Y03141D01*
X03348Y03141D01*
X03352Y03141D01*
X03313Y03102D01*
X03313Y03106D01*
X03313Y03110D01*
X03312Y03114D01*
X03311Y03118D01*
X03310Y03122D01*
X03309Y03125D01*
X03307Y03128D01*
X03305Y03131D01*
X03303Y03134D01*
X03301Y03136D01*
X03318Y03153D01*
X03320Y03151D01*
D02*
G37*
G36*
X03273Y04321D02*
X03272Y04323D01*
X03272Y04325D01*
X03270Y04327D01*
X03268Y04329D01*
X03265Y04330D01*
X03262Y04331D01*
X03258Y04332D01*
X03253Y04332D01*
X03248Y04333D01*
X03242Y04333D01*
Y04357D01*
X03248Y04357D01*
X03258Y04358D01*
X03262Y04358D01*
X03265Y04360D01*
X03268Y04361D01*
X03270Y04362D01*
X03272Y04364D01*
X03272Y04366D01*
X03273Y04368D01*
Y04321D01*
D02*
G37*
G36*
X03360Y04166D02*
X03361Y04164D01*
X03362Y04162D01*
X03363Y04161D01*
X03366Y04160D01*
X03368Y04158D01*
X03371Y04158D01*
X03375Y04157D01*
X03379Y04157D01*
X03383Y04157D01*
Y04133D01*
X03379Y04133D01*
X03375Y04132D01*
X03371Y04132D01*
X03368Y04131D01*
X03366Y04130D01*
X03363Y04129D01*
X03362Y04127D01*
X03361Y04125D01*
X03360Y04123D01*
X03360Y04121D01*
Y04168D01*
X03360Y04166D01*
D02*
G37*
G36*
X06162Y02530D02*
X06161Y02532D01*
X06160Y02534D01*
X06159Y02536D01*
X06157Y02538D01*
X06155Y02539D01*
X06152Y02540D01*
X06148Y02541D01*
X06144Y02542D01*
X06140Y02542D01*
X06135Y02542D01*
X06134Y02566D01*
X06139Y02566D01*
X06144Y02566D01*
X06148Y02567D01*
X06151Y02568D01*
X06154Y02569D01*
X06156Y02570D01*
X06158Y02571D01*
X06159Y02573D01*
X06160Y02575D01*
X06160Y02577D01*
X06162Y02530D01*
D02*
G37*
G36*
X04043Y02528D02*
X04041Y02527D01*
X04039Y02526D01*
X04038Y02524D01*
X04037Y02521D01*
X04036Y02518D01*
X04035Y02515D01*
X04034Y02511D01*
X04034Y02506D01*
X04034Y02504D01*
X04034Y02502D01*
X04034Y02497D01*
X04035Y02493D01*
X04036Y02489D01*
X04037Y02486D01*
X04038Y02484D01*
X04039Y02482D01*
X04041Y02481D01*
X04043Y02480D01*
X04045Y02480D01*
X04000D01*
X03985Y02442D01*
X03986Y02444D01*
X03985Y02446D01*
X03985Y02448D01*
X03983Y02450D01*
X03981Y02451D01*
X03978Y02452D01*
X03974Y02453D01*
X03970Y02453D01*
X03965Y02454D01*
X03959Y02454D01*
X03971Y02477D01*
X03975Y02477D01*
X03990Y02478D01*
X03993Y02479D01*
X03997Y02480D01*
X03999Y02480D01*
X04001Y02481D01*
X04000Y02480D01*
X04000Y02480D01*
X04002Y02481D01*
X04004Y02482D01*
X04006Y02484D01*
X04007Y02486D01*
X04008Y02489D01*
X04009Y02493D01*
X04010Y02497D01*
X04010Y02502D01*
X04010Y02504D01*
X04010Y02506D01*
X04010Y02511D01*
X04009Y02515D01*
X04008Y02518D01*
X04007Y02521D01*
X04006Y02524D01*
X04004Y02526D01*
X04002Y02527D01*
X04000Y02528D01*
X03998Y02528D01*
X04045D01*
X04043Y02528D01*
D02*
G37*
G36*
X06261Y02533D02*
X06260Y02535D01*
X06260Y02537D01*
X06258Y02539D01*
X06256Y02540D01*
X06254Y02541D01*
X06251Y02542D01*
X06248Y02543D01*
X06247Y02543D01*
X06247Y02543D01*
X06244Y02542D01*
X06241Y02541D01*
X06238Y02540D01*
X06236Y02539D01*
X06235Y02537D01*
X06234Y02535D01*
X06234Y02533D01*
Y02580D01*
X06234Y02578D01*
X06235Y02576D01*
X06236Y02574D01*
X06238Y02572D01*
X06241Y02571D01*
X06244Y02570D01*
X06247Y02569D01*
X06247Y02569D01*
X06248Y02569D01*
X06251Y02570D01*
X06254Y02571D01*
X06256Y02572D01*
X06258Y02574D01*
X06260Y02576D01*
X06260Y02578D01*
X06261Y02580D01*
Y02533D01*
D02*
G37*
G36*
X04049Y02575D02*
X04050Y02573D01*
X04052Y02571D01*
X04054Y02570D01*
X04057Y02569D01*
X04061Y02568D01*
X04065Y02567D01*
X04070Y02566D01*
X04076Y02566D01*
X04082Y02566D01*
Y02542D01*
X04076Y02542D01*
X04065Y02541D01*
X04061Y02540D01*
X04057Y02539D01*
X04054Y02538D01*
X04052Y02536D01*
X04050Y02535D01*
X04049Y02533D01*
X04049Y02530D01*
Y02577D01*
X04049Y02575D01*
D02*
G37*
G54D23*
X06363Y03056D02*
X06478Y03171D01*
X04262Y03056D02*
X06363D01*
X02782Y02048D02*
Y02114D01*
X02734Y02162D02*
X02782Y02114D01*
X01510Y02162D02*
X02734D01*
X01475D02*
X01510D01*
X01416Y02103D02*
X01475Y02162D01*
X01416Y02025D02*
Y02103D01*
X02369Y02612D02*
X03818D01*
X02036Y02279D02*
X02369Y02612D01*
X02024Y02279D02*
X02036D01*
X06197Y02556D02*
X06297D01*
X06195Y02554D02*
X06197Y02556D01*
X04022Y02554D02*
X06195D01*
X03818Y02612D02*
X04262Y03056D01*
X02980Y02354D02*
X04022D01*
X02979Y02355D02*
X02980Y02354D01*
X04022Y02454D02*
Y02554D01*
X04010Y02466D02*
X04022Y02454D01*
X03147Y03307D02*
X03353Y03101D01*
X02655Y02466D02*
X04010D01*
X03147Y04282D02*
X03210Y04345D01*
X03323D01*
Y04145D02*
X03425D01*
X03494Y04076D01*
X03147Y03307D02*
Y04282D01*
X03494Y03466D02*
Y04076D01*
G54D24*
X01227Y04194D02*
Y04470D01*
Y04194D02*
X01423D01*
X01227Y04470D02*
X01423D01*
X01227Y03918D02*
X01423D01*
X01227Y03643D02*
Y03918D01*
Y03643D02*
X01423D01*
X06187Y04548D02*
X06384D01*
Y04273D02*
Y04548D01*
X06187Y04273D02*
X06384D01*
X06187Y04076D02*
X06384D01*
Y03800D02*
Y04076D01*
X06187Y03800D02*
X06384D01*
G54D40*
Y04076D02*
D03*
X06187D02*
D03*
X06384Y03800D02*
D03*
X06187D02*
D03*
X06384Y04548D02*
D03*
X06187D02*
D03*
X06384Y04273D02*
D03*
X06187D02*
D03*
X01423Y04470D02*
D03*
X01227D02*
D03*
X01423Y04194D02*
D03*
X01227D02*
D03*
X01423Y03918D02*
D03*
X01227D02*
D03*
X01423Y03643D02*
D03*
X01227D02*
D03*
G54D41*
X06397Y02556D02*
D03*
X06297D02*
D03*
X06197D02*
D03*
X02487Y02462D02*
D03*
X02587D02*
D03*
X02687D02*
D03*
G54D42*
X01207Y04745D02*
D03*
Y01202D02*
D03*
X06719Y04745D02*
D03*
Y01202D02*
D03*
G54D43*
X03727Y04351D02*
D03*
X04396D02*
D03*
G54D44*
X03323Y04345D02*
D03*
Y04245D02*
D03*
G54D45*
Y04145D02*
D03*
G54D46*
X03626Y03741D02*
D03*
G54D47*
X03727D02*
D03*
X03825D02*
D03*
G54D48*
X04022Y02354D02*
D03*
G54D49*
Y02454D02*
D03*
Y02554D02*
D03*
Y02654D02*
D03*
G54D50*
X06478Y03171D02*
D03*
X02024Y02279D02*
D03*
X01416Y02025D02*
D03*
X01510Y02162D02*
D03*
X02782Y02048D02*
D03*
X02979Y02355D02*
D03*
X03353Y03101D02*
D03*
X03494Y03466D02*
D03*
M02*
