G04 Layer_Physical_Order=2*
G04 Layer_Color=16711680*
%FSAX23Y23*%
%MOIN*%
G70*
G01*
G75*
%ADD23C,0.024*%
%ADD38C,0.112*%
%ADD39O,0.079X0.098*%
%ADD40C,0.177*%
%ADD41C,0.157*%
%ADD42O,0.118X0.074*%
%ADD43R,0.074X0.074*%
%ADD44R,0.078X0.078*%
%ADD45O,0.078X0.118*%
%ADD46R,0.079X0.059*%
%ADD47O,0.079X0.059*%
%ADD48C,0.079*%
G36*
X03983Y02330D02*
X03982Y02332D01*
X03982Y02334D01*
X03981Y02336D01*
X03979Y02338D01*
X03977Y02339D01*
X03974Y02340D01*
X03971Y02341D01*
X03967Y02342D01*
X03963Y02342D01*
X03959Y02342D01*
Y02366D01*
X03963Y02366D01*
X03967Y02366D01*
X03971Y02367D01*
X03974Y02368D01*
X03977Y02369D01*
X03979Y02370D01*
X03981Y02371D01*
X03982Y02373D01*
X03982Y02375D01*
X03983Y02377D01*
Y02330D01*
D02*
G37*
G36*
X03011Y02379D02*
X03014Y02376D01*
X03017Y02374D01*
X03020Y02371D01*
X03023Y02370D01*
X03026Y02368D01*
X03030Y02367D01*
X03033Y02366D01*
X03037Y02366D01*
X03040Y02366D01*
X03039Y02342D01*
X03036Y02342D01*
X03032Y02341D01*
X03029Y02341D01*
X03025Y02340D01*
X03022Y02338D01*
X03019Y02337D01*
X03015Y02335D01*
X03012Y02332D01*
X03009Y02330D01*
X03005Y02327D01*
X03008Y02382D01*
X03011Y02379D01*
D02*
G37*
G36*
X04043Y02528D02*
X04041Y02527D01*
X04039Y02526D01*
X04038Y02524D01*
X04037Y02521D01*
X04036Y02518D01*
X04035Y02515D01*
X04034Y02511D01*
X04034Y02506D01*
X04034Y02504D01*
X04034Y02502D01*
X04034Y02497D01*
X04035Y02493D01*
X04036Y02489D01*
X04037Y02486D01*
X04038Y02484D01*
X04039Y02482D01*
X04041Y02481D01*
X04043Y02480D01*
X04045Y02480D01*
X04000D01*
X03985Y02442D01*
X03986Y02444D01*
X03985Y02446D01*
X03985Y02448D01*
X03983Y02450D01*
X03981Y02451D01*
X03978Y02452D01*
X03974Y02453D01*
X03970Y02453D01*
X03965Y02454D01*
X03959Y02454D01*
X03971Y02477D01*
X03975Y02477D01*
X03990Y02478D01*
X03993Y02479D01*
X03997Y02480D01*
X03999Y02480D01*
X04001Y02481D01*
X04000Y02480D01*
X04000Y02480D01*
X04002Y02481D01*
X04004Y02482D01*
X04006Y02484D01*
X04007Y02486D01*
X04008Y02489D01*
X04009Y02493D01*
X04010Y02497D01*
X04010Y02502D01*
X04010Y02504D01*
X04010Y02506D01*
X04010Y02511D01*
X04009Y02515D01*
X04008Y02518D01*
X04007Y02521D01*
X04006Y02524D01*
X04004Y02526D01*
X04002Y02527D01*
X04000Y02528D01*
X03998Y02528D01*
X04045D01*
X04043Y02528D01*
D02*
G37*
G36*
X02722Y02487D02*
X02723Y02485D01*
X02724Y02483D01*
X02726Y02482D01*
X02729Y02480D01*
X02732Y02479D01*
X02736Y02478D01*
X02740Y02478D01*
X02744Y02478D01*
X02749Y02477D01*
X02750Y02454D01*
X02745Y02454D01*
X02741Y02453D01*
X02737Y02453D01*
X02733Y02452D01*
X02731Y02451D01*
X02728Y02450D01*
X02727Y02448D01*
X02725Y02446D01*
X02725Y02444D01*
X02725Y02442D01*
X02722Y02489D01*
X02722Y02487D01*
D02*
G37*
G36*
X01535Y02131D02*
X01532Y02128D01*
X01530Y02125D01*
X01527Y02122D01*
X01526Y02118D01*
X01524Y02115D01*
X01523Y02112D01*
X01522Y02108D01*
X01522Y02105D01*
X01522Y02101D01*
X01498D01*
X01498Y02105D01*
X01498Y02108D01*
X01497Y02112D01*
X01496Y02115D01*
X01494Y02118D01*
X01493Y02122D01*
X01490Y02125D01*
X01488Y02128D01*
X01485Y02131D01*
X01482Y02134D01*
X01538D01*
X01535Y02131D01*
D02*
G37*
G36*
X02749Y02098D02*
X02752Y02095D01*
X02755Y02094D01*
X02758Y02092D01*
X02762Y02091D01*
X02765Y02090D01*
X02769Y02089D01*
X02773Y02088D01*
X02777Y02088D01*
X02781Y02088D01*
X02742Y02049D01*
X02742Y02053D01*
X02742Y02057D01*
X02741Y02061D01*
X02740Y02065D01*
X02739Y02068D01*
X02738Y02072D01*
X02736Y02075D01*
X02735Y02078D01*
X02732Y02081D01*
X02730Y02083D01*
X02747Y02100D01*
X02749Y02098D01*
D02*
G37*
G36*
X02077Y02270D02*
X02075Y02268D01*
X02073Y02265D01*
X02071Y02262D01*
X02069Y02259D01*
X02068Y02255D01*
X02067Y02252D01*
X02066Y02248D01*
X02066Y02244D01*
X02065Y02240D01*
X02065Y02236D01*
X02026Y02275D01*
X02030Y02275D01*
X02035Y02275D01*
X02039Y02276D01*
X02042Y02277D01*
X02046Y02278D01*
X02049Y02279D01*
X02052Y02281D01*
X02055Y02282D01*
X02058Y02285D01*
X02061Y02287D01*
X02077Y02270D01*
D02*
G37*
G36*
X01541Y02187D02*
X01544Y02184D01*
X01548Y02182D01*
X01551Y02180D01*
X01554Y02178D01*
X01557Y02177D01*
X01561Y02176D01*
X01564Y02175D01*
X01568Y02174D01*
X01571Y02174D01*
Y02151D01*
X01568Y02151D01*
X01564Y02150D01*
X01561Y02149D01*
X01557Y02148D01*
X01554Y02147D01*
X01551Y02145D01*
X01548Y02143D01*
X01544Y02141D01*
X01541Y02138D01*
X01538Y02135D01*
Y02190D01*
X01541Y02187D01*
D02*
G37*
G36*
X03506Y03523D02*
X03507Y03520D01*
X03507Y03516D01*
X03509Y03513D01*
X03510Y03510D01*
X03512Y03506D01*
X03514Y03503D01*
X03516Y03500D01*
X03519Y03497D01*
X03522Y03494D01*
X03467D01*
X03470Y03497D01*
X03472Y03500D01*
X03475Y03503D01*
X03477Y03506D01*
X03479Y03510D01*
X03480Y03513D01*
X03481Y03516D01*
X03482Y03520D01*
X03482Y03523D01*
X03482Y03527D01*
X03506D01*
X03506Y03523D01*
D02*
G37*
G36*
X06474Y03198D02*
X06470Y03198D01*
X06466Y03197D01*
X06462Y03197D01*
X06458Y03196D01*
X06455Y03195D01*
X06451Y03194D01*
X06448Y03192D01*
X06445Y03190D01*
X06442Y03188D01*
X06440Y03186D01*
X06423Y03202D01*
X06425Y03205D01*
X06427Y03208D01*
X06429Y03211D01*
X06431Y03214D01*
X06432Y03217D01*
X06433Y03221D01*
X06434Y03225D01*
X06435Y03228D01*
X06435Y03233D01*
X06435Y03237D01*
X06474Y03198D01*
D02*
G37*
G36*
X03360Y04166D02*
X03361Y04164D01*
X03362Y04162D01*
X03363Y04161D01*
X03366Y04160D01*
X03368Y04158D01*
X03371Y04158D01*
X03375Y04157D01*
X03379Y04157D01*
X03383Y04157D01*
Y04133D01*
X03379Y04133D01*
X03375Y04132D01*
X03371Y04132D01*
X03368Y04131D01*
X03366Y04130D01*
X03363Y04129D01*
X03362Y04127D01*
X03361Y04125D01*
X03360Y04123D01*
X03360Y04121D01*
Y04168D01*
X03360Y04166D01*
D02*
G37*
G36*
X03748Y03690D02*
X03746Y03689D01*
X03744Y03688D01*
X03743Y03686D01*
X03741Y03683D01*
X03740Y03680D01*
X03739Y03676D01*
X03739Y03671D01*
X03738Y03666D01*
X03738Y03660D01*
X03715D01*
X03715Y03666D01*
X03714Y03676D01*
X03713Y03680D01*
X03712Y03683D01*
X03711Y03686D01*
X03709Y03688D01*
X03707Y03689D01*
X03705Y03690D01*
X03703Y03690D01*
X03750D01*
X03748Y03690D01*
D02*
G37*
G36*
X04049Y02575D02*
X04050Y02573D01*
X04052Y02571D01*
X04054Y02570D01*
X04057Y02569D01*
X04061Y02568D01*
X04065Y02567D01*
X04070Y02566D01*
X04076Y02566D01*
X04082Y02566D01*
Y02542D01*
X04076Y02542D01*
X04065Y02541D01*
X04061Y02540D01*
X04057Y02539D01*
X04054Y02538D01*
X04052Y02536D01*
X04050Y02535D01*
X04049Y02533D01*
X04049Y02530D01*
Y02577D01*
X04049Y02575D01*
D02*
G37*
G36*
X06162Y02530D02*
X06161Y02532D01*
X06160Y02534D01*
X06159Y02536D01*
X06157Y02538D01*
X06155Y02539D01*
X06152Y02540D01*
X06148Y02541D01*
X06144Y02542D01*
X06140Y02542D01*
X06135Y02542D01*
X06134Y02566D01*
X06139Y02566D01*
X06144Y02566D01*
X06148Y02567D01*
X06151Y02568D01*
X06154Y02569D01*
X06156Y02570D01*
X06158Y02571D01*
X06159Y02573D01*
X06160Y02575D01*
X06160Y02577D01*
X06162Y02530D01*
D02*
G37*
G36*
X03384Y03126D02*
X03387Y03123D01*
X03390Y03121D01*
X03393Y03119D01*
X03397Y03117D01*
X03400Y03116D01*
X03403Y03115D01*
X03407Y03114D01*
X03410Y03113D01*
X03414Y03113D01*
Y03090D01*
X03410Y03089D01*
X03407Y03089D01*
X03403Y03088D01*
X03400Y03087D01*
X03397Y03086D01*
X03393Y03084D01*
X03390Y03082D01*
X03387Y03080D01*
X03384Y03077D01*
X03381Y03074D01*
Y03129D01*
X03384Y03126D01*
D02*
G37*
G36*
X06261Y02533D02*
X06260Y02535D01*
X06260Y02537D01*
X06258Y02539D01*
X06256Y02540D01*
X06254Y02541D01*
X06251Y02542D01*
X06248Y02543D01*
X06247Y02543D01*
X06247Y02543D01*
X06244Y02542D01*
X06241Y02541D01*
X06238Y02540D01*
X06236Y02539D01*
X06235Y02537D01*
X06234Y02535D01*
X06234Y02533D01*
Y02580D01*
X06234Y02578D01*
X06235Y02576D01*
X06236Y02574D01*
X06238Y02572D01*
X06241Y02571D01*
X06244Y02570D01*
X06247Y02569D01*
X06247Y02569D01*
X06248Y02569D01*
X06251Y02570D01*
X06254Y02571D01*
X06256Y02572D01*
X06258Y02574D01*
X06260Y02576D01*
X06260Y02578D01*
X06261Y02580D01*
Y02533D01*
D02*
G37*
G54D23*
X02655Y02466D02*
X04010D01*
X06197Y02556D02*
X06297D01*
X06195Y02554D02*
X06197Y02556D01*
X04022Y02554D02*
X06195D01*
X04262Y03056D02*
X06293D01*
X06475Y03237D01*
X03818Y02612D02*
X04262Y03056D01*
X03461Y03101D02*
X03727Y03367D01*
Y03741D01*
X01416Y02025D02*
X01463D01*
X01510Y02072D02*
Y02162D01*
X01463Y02025D02*
X01510Y02072D01*
X02667Y02162D02*
X02782Y02048D01*
X01510Y02162D02*
X02667D01*
X02980Y02354D02*
X04022D01*
X02979Y02355D02*
X02980Y02354D01*
X02403Y02612D02*
X03818D01*
X03353Y03101D02*
X03461D01*
X04022Y02454D02*
Y02554D01*
X03494Y03466D02*
Y04076D01*
X03425Y04145D02*
X03494Y04076D01*
X03323Y04145D02*
X03425D01*
X04010Y02466D02*
X04022Y02454D01*
X02026Y02235D02*
X02403Y02612D01*
G54D38*
X06384Y04076D02*
D03*
X06187D02*
D03*
X06384Y03800D02*
D03*
X06187D02*
D03*
X06384Y04548D02*
D03*
X06187D02*
D03*
X06384Y04273D02*
D03*
X06187D02*
D03*
X01423Y04470D02*
D03*
X01227D02*
D03*
X01423Y04194D02*
D03*
X01227D02*
D03*
X01423Y03918D02*
D03*
X01227D02*
D03*
X01423Y03643D02*
D03*
X01227D02*
D03*
G54D39*
X06397Y02556D02*
D03*
X06297D02*
D03*
X06197D02*
D03*
X02487Y02462D02*
D03*
X02587D02*
D03*
X02687D02*
D03*
G54D40*
X01207Y04745D02*
D03*
Y01202D02*
D03*
X06719Y04745D02*
D03*
Y01202D02*
D03*
G54D41*
X03727Y04351D02*
D03*
X04396D02*
D03*
G54D42*
X03323Y04345D02*
D03*
Y04245D02*
D03*
G54D43*
Y04145D02*
D03*
G54D44*
X03626Y03741D02*
D03*
G54D45*
X03727D02*
D03*
X03825D02*
D03*
G54D46*
X04022Y02354D02*
D03*
G54D47*
Y02454D02*
D03*
Y02554D02*
D03*
Y02654D02*
D03*
G54D48*
X06475Y03237D02*
D03*
X01416Y02025D02*
D03*
X01510Y02162D02*
D03*
X02782Y02048D02*
D03*
X02979Y02355D02*
D03*
X03353Y03101D02*
D03*
X02026Y02235D02*
D03*
X03494Y03466D02*
D03*
M02*
