G04 Layer_Color=32768*
%FSAX23Y23*%
%MOIN*%
G70*
G01*
G75*
%ADD50C,0.008*%
%ADD53C,0.004*%
G54D50*
X02518Y02749D02*
X02518Y02559D01*
X02143Y02749D02*
X02518D01*
X02143D02*
X02143Y02559D01*
X02518D01*
X06584Y02463D02*
X06774Y02463D01*
Y02838D01*
X06584Y02838D02*
X06774Y02838D01*
X06584Y02463D02*
Y02838D01*
X01167Y03938D02*
X01482D01*
Y03623D02*
Y03938D01*
X01167Y03623D02*
X01482D01*
X01167D02*
Y03938D01*
Y04489D02*
X01482D01*
Y04174D02*
Y04489D01*
X01167Y04174D02*
X01482D01*
X01167D02*
Y04489D01*
X06128Y04568D02*
X06443D01*
Y04253D02*
Y04568D01*
X06128Y04253D02*
X06443D01*
X06128D02*
Y04568D01*
Y04096D02*
X06443D01*
Y03781D02*
Y04096D01*
X06128Y03781D02*
X06443D01*
X06128D02*
Y04096D01*
G54D53*
X01135Y02704D02*
Y02783D01*
X01086Y02704D02*
X01135D01*
X01086D02*
Y02783D01*
X01135D01*
X02124Y02069D02*
X02203D01*
Y02020D02*
Y02069D01*
X02124Y02020D02*
X02203D01*
X02124D02*
Y02069D01*
X02208Y02409D02*
Y02487D01*
X02257D01*
Y02409D02*
Y02487D01*
X02208Y02409D02*
X02257D01*
X02208Y02249D02*
Y02328D01*
X02257D01*
Y02249D02*
Y02328D01*
X02208Y02249D02*
X02257D01*
X02146Y02323D02*
Y02376D01*
X02063D02*
X02146D01*
X02063Y02323D02*
Y02376D01*
Y02323D02*
X02146D01*
X02075Y02807D02*
X02154D01*
X02075D02*
Y02856D01*
X02154D01*
Y02807D02*
Y02856D01*
X01801Y02367D02*
X01955D01*
Y01977D02*
Y02367D01*
X01801Y01977D02*
X01955D01*
X01801D02*
Y02367D01*
Y02317D02*
X01851Y02367D01*
X01630Y02569D02*
Y02622D01*
Y02569D02*
X01713D01*
Y02622D01*
X01630D02*
X01713D01*
X02127Y01875D02*
X02180D01*
Y01958D01*
X02127D02*
X02180D01*
X02127Y01875D02*
Y01958D01*
X02277Y01968D02*
Y02046D01*
X02326D01*
Y01968D02*
Y02046D01*
X02277Y01968D02*
X02326D01*
X02993Y02318D02*
X03046D01*
Y02401D01*
X02993D02*
X03046D01*
X02993Y02318D02*
Y02401D01*
X02039Y01875D02*
X02092D01*
Y01958D01*
X02039D02*
X02092D01*
X02039Y01875D02*
Y01958D01*
X02878Y03439D02*
Y03492D01*
Y03439D02*
X02961D01*
Y03492D01*
X02878D02*
X02961D01*
X03528Y03809D02*
X03581Y03862D01*
X03528Y03681D02*
X03528Y03862D01*
X03528Y03681D02*
X03937D01*
X03937Y03862D02*
X03937Y03681D01*
X03528Y03862D02*
X03937D01*
X03353Y03215D02*
X03431D01*
Y03165D02*
Y03215D01*
X03353Y03165D02*
X03431D01*
X03353D02*
Y03215D01*
X03353Y03490D02*
X03431D01*
Y03441D02*
Y03490D01*
X03353Y03441D02*
X03431D01*
X03353D02*
Y03490D01*
X02799Y02416D02*
Y03053D01*
Y02416D02*
X03339D01*
Y03053D01*
X02799D02*
X03339D01*
X02577Y02035D02*
X02872D01*
Y02290D01*
X02577D02*
X02872D01*
X02577Y02035D02*
Y02290D01*
X02896Y02035D02*
X03191D01*
Y02290D01*
X02896D02*
X03191D01*
X02896Y02035D02*
Y02290D01*
X01541Y02402D02*
Y02455D01*
Y02402D02*
X01624D01*
Y02455D01*
X01541D02*
X01624D01*
X01443Y01919D02*
Y01973D01*
Y01919D02*
X01526D01*
Y01973D01*
X01443D02*
X01526D01*
X01443Y02106D02*
Y02160D01*
Y02106D02*
X01526D01*
Y02160D01*
X01443D02*
X01526D01*
X01455Y02079D02*
X01534D01*
Y02030D02*
Y02079D01*
X01455Y02030D02*
X01534D01*
X01455D02*
Y02079D01*
X01280Y02106D02*
Y02160D01*
X01197D02*
X01280D01*
X01197Y02106D02*
Y02160D01*
Y02106D02*
X01280D01*
X01342Y02054D02*
Y02133D01*
X01391D01*
Y02054D02*
Y02133D01*
X01342Y02054D02*
X01391D01*
X01384Y02490D02*
Y02543D01*
Y02490D02*
X01467D01*
Y02543D01*
X01384D02*
X01467D01*
X01396Y02325D02*
X01475D01*
Y02276D02*
Y02325D01*
X01396Y02276D02*
X01475D01*
X01396D02*
Y02325D01*
X01394Y02404D02*
X01473D01*
X01394D02*
Y02453D01*
X01473D01*
X01473Y02404D02*
X01473Y02453D01*
X03204Y04041D02*
Y04449D01*
X03384D01*
Y04041D02*
Y04449D01*
X03204Y04041D02*
X03384D01*
X03204Y04091D02*
X03254Y04041D01*
X02146Y04056D02*
Y04158D01*
X02247Y04259D01*
X02450D01*
X02551Y04158D01*
Y03853D02*
Y04158D01*
X02146Y03853D02*
X02551D01*
X02146D02*
Y04056D01*
X01634D02*
Y04158D01*
X01735Y04259D01*
X01938D01*
X02040Y04158D01*
Y03853D02*
Y04158D01*
X01634Y03853D02*
X02040D01*
X01634D02*
Y04056D01*
X05394Y04180D02*
Y04282D01*
X05495Y04383D01*
X05698D01*
X05799Y04282D01*
Y03977D02*
Y04282D01*
X05394Y03977D02*
X05799D01*
X05394D02*
Y04180D01*
X04882Y04184D02*
Y04286D01*
X04983Y04387D01*
X05186D01*
X05288Y04286D01*
Y03981D02*
Y04286D01*
X04882Y03981D02*
X05288D01*
X04882D02*
Y04184D01*
X04704Y04133D02*
X04757D01*
Y04216D01*
X04704D02*
X04757D01*
X04704Y04133D02*
Y04216D01*
X01526Y02658D02*
Y02711D01*
X01443D02*
X01526D01*
X01443Y02658D02*
Y02711D01*
Y02658D02*
X01526D01*
X01630Y02660D02*
X01709D01*
X01630D02*
Y02709D01*
X01709D01*
Y02660D02*
Y02709D01*
X02403Y02239D02*
X02456D01*
Y02322D01*
X02403D02*
X02456D01*
X02403Y02239D02*
Y02322D01*
X05788Y03735D02*
Y03865D01*
Y03735D02*
X06036D01*
Y03865D01*
X05788D02*
X06036D01*
X02637Y04098D02*
X02690D01*
X02637Y04015D02*
Y04098D01*
Y04015D02*
X02690D01*
Y04098D01*
X03264Y03913D02*
X03343D01*
Y03864D02*
Y03913D01*
X03264Y03864D02*
X03343D01*
X03264D02*
Y03913D01*
X03158Y03862D02*
Y03915D01*
X03075D02*
X03158D01*
X03075Y03862D02*
Y03915D01*
Y03862D02*
X03158D01*
X06658Y03255D02*
Y03334D01*
X06708D01*
Y03255D02*
Y03334D01*
X06658Y03255D02*
X06708D01*
X06659Y02979D02*
Y03058D01*
X06708D01*
Y02979D02*
Y03058D01*
X06659Y02979D02*
X06708D01*
M02*
