G04 Layer_Color=16711935*
%FSAX23Y23*%
%MOIN*%
G70*
G01*
G75*
%ADD67C,0.120*%
%ADD68O,0.087X0.106*%
%ADD69C,0.185*%
%ADD70C,0.165*%
%ADD71O,0.126X0.082*%
%ADD72R,0.082X0.082*%
%ADD73R,0.086X0.086*%
%ADD74O,0.086X0.126*%
%ADD75R,0.087X0.067*%
%ADD76O,0.087X0.067*%
%ADD77C,0.087*%
G54D67*
X06384Y04076D02*
D03*
X06187D02*
D03*
X06384Y03800D02*
D03*
X06187D02*
D03*
X06384Y04548D02*
D03*
X06187D02*
D03*
X06384Y04273D02*
D03*
X06187D02*
D03*
X01423Y04470D02*
D03*
X01227D02*
D03*
X01423Y04194D02*
D03*
X01227D02*
D03*
X01423Y03918D02*
D03*
X01227D02*
D03*
X01423Y03643D02*
D03*
X01227D02*
D03*
G54D68*
X06397Y02556D02*
D03*
X06297D02*
D03*
X06197D02*
D03*
X02487Y02462D02*
D03*
X02587D02*
D03*
X02687D02*
D03*
G54D69*
X01207Y04745D02*
D03*
Y01202D02*
D03*
X06719Y04745D02*
D03*
Y01202D02*
D03*
G54D70*
X03727Y04351D02*
D03*
X04396D02*
D03*
G54D71*
X03323Y04345D02*
D03*
Y04245D02*
D03*
G54D72*
Y04145D02*
D03*
G54D73*
X03626Y03741D02*
D03*
G54D74*
X03727D02*
D03*
X03825D02*
D03*
G54D75*
X04022Y02354D02*
D03*
G54D76*
Y02454D02*
D03*
Y02554D02*
D03*
Y02654D02*
D03*
G54D77*
X06475Y03237D02*
D03*
X01416Y02025D02*
D03*
X01510Y02162D02*
D03*
X02782Y02048D02*
D03*
X02979Y02355D02*
D03*
X03353Y03101D02*
D03*
X02026Y02235D02*
D03*
X03494Y03466D02*
D03*
M02*
