G04 Layer_Color=2752767*
%FSAX23Y23*%
%MOIN*%
G70*
G01*
G75*
%ADD51C,0.002*%
%ADD52C,0.003*%
G54D51*
X06376Y04068D02*
Y04084D01*
X06392D01*
Y04068D01*
X06376D01*
X06179D02*
Y04084D01*
X06195D01*
Y04068D01*
X06179D01*
X06376Y03792D02*
Y03808D01*
X06392D01*
Y03792D01*
X06376D01*
X06179D02*
Y03808D01*
X06195D01*
Y03792D01*
X06179D01*
X06376Y04540D02*
Y04556D01*
X06392D01*
Y04540D01*
X06376D01*
X06179D02*
Y04556D01*
X06195D01*
Y04540D01*
X06179D01*
X06376Y04265D02*
Y04281D01*
X06392D01*
Y04265D01*
X06376D01*
X06179D02*
Y04281D01*
X06195D01*
Y04265D01*
X06179D01*
X01415Y04462D02*
Y04478D01*
X01431D01*
Y04462D01*
X01415D01*
X01219D02*
Y04478D01*
X01235D01*
Y04462D01*
X01219D01*
X01415Y04186D02*
Y04202D01*
X01431D01*
Y04186D01*
X01415D01*
X01219D02*
Y04202D01*
X01235D01*
Y04186D01*
X01219D01*
X01415Y03910D02*
Y03926D01*
X01431D01*
Y03910D01*
X01415D01*
X01219D02*
Y03926D01*
X01235D01*
Y03910D01*
X01219D01*
X01415Y03635D02*
Y03651D01*
X01431D01*
Y03635D01*
X01415D01*
X01219D02*
Y03651D01*
X01235D01*
Y03635D01*
X01219D01*
X01207Y04737D02*
X01199Y04753D01*
X01215D01*
X01207Y04737D01*
Y01194D02*
X01199Y01210D01*
X01215D01*
X01207Y01194D01*
X06719Y04737D02*
X06711Y04753D01*
X06727D01*
X06719Y04737D01*
X03727Y04343D02*
X03731Y04347D01*
X03735D01*
X03731Y04351D01*
X03735Y04355D01*
X03731D01*
X03727Y04359D01*
X03723Y04355D01*
X03719D01*
X03723Y04351D01*
X03719Y04347D01*
X03723D01*
X03727Y04343D01*
X04396D02*
X04400Y04347D01*
X04404D01*
X04400Y04351D01*
X04404Y04355D01*
X04400D01*
X04396Y04359D01*
X04392Y04355D01*
X04388D01*
X04392Y04351D01*
X04388Y04347D01*
X04392D01*
X04396Y04343D01*
X03315Y04337D02*
X03319Y04345D01*
X03315Y04353D01*
X03323Y04349D01*
X03331Y04353D01*
X03327Y04345D01*
X03331Y04337D01*
X03323Y04341D01*
X03315Y04337D01*
Y04237D02*
X03319Y04245D01*
X03315Y04253D01*
X03323Y04249D01*
X03331Y04253D01*
X03327Y04245D01*
X03331Y04237D01*
X03323Y04241D01*
X03315Y04237D01*
Y04137D02*
X03319Y04145D01*
X03315Y04153D01*
X03323Y04149D01*
X03331Y04153D01*
X03327Y04145D01*
X03331Y04137D01*
X03323Y04141D01*
X03315Y04137D01*
X06719Y01194D02*
X06711Y01210D01*
X06727D01*
X06719Y01194D01*
X03622Y03737D02*
Y03733D01*
X03630D01*
Y03737D01*
X03634D01*
Y03745D01*
X03630D01*
Y03749D01*
X03622D01*
Y03745D01*
X03618D01*
Y03737D01*
X03622D01*
X03723D02*
Y03733D01*
X03731D01*
Y03737D01*
X03735D01*
Y03745D01*
X03731D01*
Y03749D01*
X03723D01*
Y03745D01*
X03719D01*
Y03737D01*
X03723D01*
X03821D02*
Y03733D01*
X03829D01*
Y03737D01*
X03833D01*
Y03745D01*
X03829D01*
Y03749D01*
X03821D01*
Y03745D01*
X03817D01*
Y03737D01*
X03821D01*
G54D52*
X06405Y02556D02*
X06400Y02564D01*
X06391Y02561D01*
Y02551D01*
X06400Y02549D01*
X06405Y02556D01*
X06305D02*
X06300Y02564D01*
X06291Y02561D01*
Y02551D01*
X06300Y02549D01*
X06305Y02556D01*
X06205D02*
X06200Y02564D01*
X06191Y02561D01*
Y02551D01*
X06200Y02549D01*
X06205Y02556D01*
X04030Y02354D02*
X04024Y02361D01*
X04015Y02359D01*
Y02349D01*
X04024Y02346D01*
X04030Y02354D01*
Y02454D02*
X04024Y02461D01*
X04015Y02459D01*
Y02449D01*
X04024Y02446D01*
X04030Y02454D01*
Y02554D02*
X04024Y02561D01*
X04015Y02559D01*
Y02549D01*
X04024Y02546D01*
X04030Y02554D01*
Y02654D02*
X04024Y02661D01*
X04015Y02659D01*
Y02649D01*
X04024Y02646D01*
X04030Y02654D01*
X02495Y02462D02*
X02489Y02469D01*
X02480Y02466D01*
Y02457D01*
X02489Y02454D01*
X02495Y02462D01*
X02595D02*
X02589Y02469D01*
X02580Y02466D01*
Y02457D01*
X02589Y02454D01*
X02595Y02462D01*
X02695D02*
X02689Y02469D01*
X02680Y02466D01*
Y02457D01*
X02689Y02454D01*
X02695Y02462D01*
X06486Y03171D02*
X06480Y03179D01*
X06472Y03176D01*
Y03166D01*
X06480Y03163D01*
X06486Y03171D01*
X02032Y02279D02*
X02026Y02287D01*
X02018Y02284D01*
Y02274D01*
X02026Y02271D01*
X02032Y02279D01*
X01424Y02025D02*
X01418Y02032D01*
X01409Y02029D01*
Y02020D01*
X01418Y02017D01*
X01424Y02025D01*
X01518Y02162D02*
X01512Y02170D01*
X01504Y02167D01*
Y02158D01*
X01512Y02155D01*
X01518Y02162D01*
X02790Y02048D02*
X02784Y02056D01*
X02775Y02053D01*
Y02044D01*
X02784Y02041D01*
X02790Y02048D01*
X02987Y02355D02*
X02981Y02363D01*
X02972Y02360D01*
Y02351D01*
X02981Y02348D01*
X02987Y02355D01*
X03361Y03101D02*
X03355Y03109D01*
X03346Y03106D01*
Y03097D01*
X03355Y03094D01*
X03361Y03101D01*
X03502Y03466D02*
X03497Y03473D01*
X03488Y03470D01*
Y03461D01*
X03497Y03458D01*
X03502Y03466D01*
M02*
