G04 Layer_Color=16711935*
%FSAX23Y23*%
%MOIN*%
G70*
G01*
G75*
%ADD67C,0.056*%
%ADD68C,0.067*%
%ADD69R,0.067X0.067*%
%ADD70C,0.086*%
%ADD71R,0.086X0.086*%
%ADD72C,0.185*%
%ADD73R,0.082X0.082*%
%ADD74C,0.082*%
%ADD75C,0.165*%
%ADD76C,0.120*%
%ADD77C,0.058*%
G54D67*
X02431Y02655D02*
D03*
X02331D02*
D03*
X02231D02*
D03*
X06003Y03052D02*
D03*
X06103D02*
D03*
X06203D02*
D03*
G54D68*
X03766Y02847D02*
D03*
Y02747D02*
D03*
Y02647D02*
D03*
G54D69*
Y02547D02*
D03*
G54D70*
X03825Y03741D02*
D03*
X03727D02*
D03*
G54D71*
X03626D02*
D03*
G54D72*
X06719Y01202D02*
D03*
Y04745D02*
D03*
X01207Y01202D02*
D03*
Y04745D02*
D03*
G54D73*
X03323Y04145D02*
D03*
G54D74*
Y04245D02*
D03*
Y04345D02*
D03*
G54D75*
X04396Y04351D02*
D03*
X03727D02*
D03*
G54D76*
X01227Y03643D02*
D03*
X01423D02*
D03*
X01227Y03918D02*
D03*
X01423D02*
D03*
X01227Y04194D02*
D03*
X01423D02*
D03*
X01227Y04470D02*
D03*
X01423D02*
D03*
X06187Y04273D02*
D03*
X06384D02*
D03*
X06187Y04548D02*
D03*
X06384D02*
D03*
X06187Y03800D02*
D03*
X06384D02*
D03*
X06187Y04076D02*
D03*
X06384D02*
D03*
G54D77*
X06349Y02805D02*
D03*
X02514Y02210D02*
D03*
X03494Y03466D02*
D03*
X01258Y02300D02*
D03*
X01209Y02192D02*
D03*
X02070Y02197D02*
D03*
X01770Y02428D02*
D03*
X03353Y03101D02*
D03*
M02*
