G04 Layer_Physical_Order=1*
G04 Layer_Color=255*
%FSAX23Y23*%
%MOIN*%
G70*
G01*
G75*
%ADD10R,0.039X0.057*%
%ADD11R,0.020X0.049*%
%ADD12R,0.049X0.020*%
%ADD13R,0.041X0.136*%
%ADD14R,0.079X0.161*%
%ADD15R,0.057X0.039*%
%ADD16R,0.059X0.039*%
%ADD17R,0.067X0.039*%
%ADD18R,0.150X0.098*%
%ADD19R,0.051X0.087*%
%ADD20R,0.020X0.063*%
%ADD21R,0.049X0.079*%
%ADD22R,0.060X0.026*%
%ADD23C,0.024*%
%ADD24C,0.098*%
%ADD25C,0.087*%
G04:AMPARAMS|DCode=26|XSize=90mil|YSize=21mil|CornerRadius=0mil|HoleSize=0mil|Usage=FLASHONLY|Rotation=135.000|XOffset=0mil|YOffset=0mil|HoleType=Round|Shape=Rectangle|*
%AMROTATEDRECTD26*
4,1,4,0.039,-0.025,0.025,-0.039,-0.039,0.025,-0.025,0.039,0.039,-0.025,0.0*
%
%ADD26ROTATEDRECTD26*%

G04:AMPARAMS|DCode=27|XSize=51mil|YSize=16mil|CornerRadius=0mil|HoleSize=0mil|Usage=FLASHONLY|Rotation=45.000|XOffset=0mil|YOffset=0mil|HoleType=Round|Shape=Rectangle|*
%AMROTATEDRECTD27*
4,1,4,-0.012,-0.024,-0.024,-0.012,0.012,0.024,0.024,0.012,-0.012,-0.024,0.0*
%
%ADD27ROTATEDRECTD27*%

G04:AMPARAMS|DCode=28|XSize=20mil|YSize=77mil|CornerRadius=0mil|HoleSize=0mil|Usage=FLASHONLY|Rotation=225.000|XOffset=0mil|YOffset=0mil|HoleType=Round|Shape=Rectangle|*
%AMROTATEDRECTD28*
4,1,4,-0.020,0.034,0.034,-0.020,0.020,-0.034,-0.034,0.020,-0.020,0.034,0.0*
%
%ADD28ROTATEDRECTD28*%

G04:AMPARAMS|DCode=29|XSize=10mil|YSize=30mil|CornerRadius=0mil|HoleSize=0mil|Usage=FLASHONLY|Rotation=135.000|XOffset=0mil|YOffset=0mil|HoleType=Round|Shape=Rectangle|*
%AMROTATEDRECTD29*
4,1,4,0.014,0.007,-0.007,-0.014,-0.014,-0.007,0.007,0.014,0.014,0.007,0.0*
%
%ADD29ROTATEDRECTD29*%

G04:AMPARAMS|DCode=30|XSize=10mil|YSize=98mil|CornerRadius=0mil|HoleSize=0mil|Usage=FLASHONLY|Rotation=135.000|XOffset=0mil|YOffset=0mil|HoleType=Round|Shape=Rectangle|*
%AMROTATEDRECTD30*
4,1,4,0.038,0.031,-0.031,-0.038,-0.038,-0.031,0.031,0.038,0.038,0.031,0.0*
%
%ADD30ROTATEDRECTD30*%

G04:AMPARAMS|DCode=31|XSize=10mil|YSize=98mil|CornerRadius=0mil|HoleSize=0mil|Usage=FLASHONLY|Rotation=45.000|XOffset=0mil|YOffset=0mil|HoleType=Round|Shape=Rectangle|*
%AMROTATEDRECTD31*
4,1,4,0.031,-0.038,-0.038,0.031,-0.031,0.038,0.038,-0.031,0.031,-0.038,0.0*
%
%ADD31ROTATEDRECTD31*%

G04:AMPARAMS|DCode=32|XSize=90mil|YSize=21mil|CornerRadius=0mil|HoleSize=0mil|Usage=FLASHONLY|Rotation=45.000|XOffset=0mil|YOffset=0mil|HoleType=Round|Shape=Rectangle|*
%AMROTATEDRECTD32*
4,1,4,-0.025,-0.039,-0.039,-0.025,0.025,0.039,0.039,0.025,-0.025,-0.039,0.0*
%
%ADD32ROTATEDRECTD32*%

G04:AMPARAMS|DCode=33|XSize=148mil|YSize=69mil|CornerRadius=0mil|HoleSize=0mil|Usage=FLASHONLY|Rotation=135.000|XOffset=0mil|YOffset=0mil|HoleType=Round|Shape=Rectangle|*
%AMROTATEDRECTD33*
4,1,4,0.077,-0.028,0.028,-0.077,-0.077,0.028,-0.028,0.077,0.077,-0.028,0.0*
%
%ADD33ROTATEDRECTD33*%

G04:AMPARAMS|DCode=34|XSize=42mil|YSize=42mil|CornerRadius=0mil|HoleSize=0mil|Usage=FLASHONLY|Rotation=45.000|XOffset=0mil|YOffset=0mil|HoleType=Round|Shape=Rectangle|*
%AMROTATEDRECTD34*
4,1,4,0.000,-0.030,-0.030,0.000,0.000,0.030,0.030,0.000,0.000,-0.030,0.0*
%
%ADD34ROTATEDRECTD34*%

G04:AMPARAMS|DCode=35|XSize=35mil|YSize=132mil|CornerRadius=0mil|HoleSize=0mil|Usage=FLASHONLY|Rotation=135.000|XOffset=0mil|YOffset=0mil|HoleType=Round|Shape=Rectangle|*
%AMROTATEDRECTD35*
4,1,4,0.059,0.034,-0.034,-0.059,-0.059,-0.034,0.034,0.059,0.059,0.034,0.0*
%
%ADD35ROTATEDRECTD35*%

G04:AMPARAMS|DCode=36|XSize=78mil|YSize=69mil|CornerRadius=0mil|HoleSize=0mil|Usage=FLASHONLY|Rotation=225.000|XOffset=0mil|YOffset=0mil|HoleType=Round|Shape=Rectangle|*
%AMROTATEDRECTD36*
4,1,4,0.003,0.052,0.052,0.003,-0.003,-0.052,-0.052,-0.003,0.003,0.052,0.0*
%
%ADD36ROTATEDRECTD36*%

G04:AMPARAMS|DCode=37|XSize=126mil|YSize=31mil|CornerRadius=0mil|HoleSize=0mil|Usage=FLASHONLY|Rotation=135.000|XOffset=0mil|YOffset=0mil|HoleType=Round|Shape=Rectangle|*
%AMROTATEDRECTD37*
4,1,4,0.056,-0.033,0.033,-0.056,-0.056,0.033,-0.033,0.056,0.056,-0.033,0.0*
%
%ADD37ROTATEDRECTD37*%

G04:AMPARAMS|DCode=38|XSize=126mil|YSize=31mil|CornerRadius=0mil|HoleSize=0mil|Usage=FLASHONLY|Rotation=225.000|XOffset=0mil|YOffset=0mil|HoleType=Round|Shape=Rectangle|*
%AMROTATEDRECTD38*
4,1,4,0.033,0.056,0.056,0.033,-0.033,-0.056,-0.056,-0.033,0.033,0.056,0.0*
%
%ADD38ROTATEDRECTD38*%

G04:AMPARAMS|DCode=39|XSize=126mil|YSize=15mil|CornerRadius=0mil|HoleSize=0mil|Usage=FLASHONLY|Rotation=315.000|XOffset=0mil|YOffset=0mil|HoleType=Round|Shape=Rectangle|*
%AMROTATEDRECTD39*
4,1,4,-0.050,0.039,-0.039,0.050,0.050,-0.039,0.039,-0.050,-0.050,0.039,0.0*
%
%ADD39ROTATEDRECTD39*%

%ADD40C,0.112*%
%ADD41O,0.079X0.098*%
%ADD42C,0.177*%
%ADD43C,0.157*%
%ADD44O,0.118X0.074*%
%ADD45R,0.074X0.074*%
%ADD46R,0.078X0.078*%
%ADD47O,0.078X0.118*%
%ADD48R,0.079X0.059*%
%ADD49O,0.079X0.059*%
%ADD50C,0.079*%
G36*
X02460Y02039D02*
X02460Y02039D01*
X02459Y02040D01*
X02458Y02041D01*
X02456Y02041D01*
X02454Y02042D01*
X02451Y02042D01*
X02445Y02042D01*
X02436Y02043D01*
Y02066D01*
X02441Y02066D01*
X02445Y02067D01*
X02448Y02067D01*
X02451Y02068D01*
X02454Y02069D01*
X02456Y02070D01*
X02458Y02072D01*
X02459Y02074D01*
X02460Y02076D01*
X02460Y02078D01*
Y02039D01*
D02*
G37*
G36*
X02990Y02038D02*
X02991Y02034D01*
X02991Y02030D01*
X02992Y02027D01*
X02993Y02025D01*
X02995Y02022D01*
X02996Y02021D01*
X02998Y02020D01*
X03000Y02019D01*
X03002Y02019D01*
X02955D01*
X02957Y02019D01*
X02959Y02020D01*
X02961Y02021D01*
X02962Y02022D01*
X02964Y02025D01*
X02965Y02027D01*
X02966Y02030D01*
X02966Y02034D01*
X02967Y02038D01*
X02967Y02042D01*
X02990D01*
X02990Y02038D01*
D02*
G37*
G36*
X02262Y02041D02*
X02260Y02041D01*
X02258Y02040D01*
X02257Y02038D01*
X02256Y02036D01*
X02254Y02033D01*
X02254Y02030D01*
X02254Y02029D01*
X02254Y02029D01*
X02254Y02026D01*
X02256Y02023D01*
X02257Y02021D01*
X02258Y02019D01*
X02260Y02018D01*
X02262Y02017D01*
X02264Y02017D01*
X02217D01*
X02219Y02017D01*
X02221Y02018D01*
X02223Y02019D01*
X02225Y02021D01*
X02226Y02023D01*
X02227Y02026D01*
X02228Y02029D01*
X02228Y02029D01*
X02228Y02030D01*
X02227Y02033D01*
X02226Y02036D01*
X02225Y02038D01*
X02223Y02040D01*
X02221Y02041D01*
X02219Y02041D01*
X02217Y02042D01*
X02264D01*
X02262Y02041D01*
D02*
G37*
G36*
X02517Y02076D02*
X02518Y02075D01*
X02519Y02074D01*
X02521Y02073D01*
X02523Y02072D01*
X02525Y02071D01*
X02528Y02071D01*
X02532Y02070D01*
X02540Y02070D01*
Y02046D01*
X02536Y02046D01*
X02528Y02046D01*
X02525Y02045D01*
X02523Y02044D01*
X02521Y02044D01*
X02519Y02043D01*
X02518Y02041D01*
X02517Y02040D01*
X02517Y02039D01*
Y02078D01*
X02517Y02076D01*
D02*
G37*
G36*
X03071Y02064D02*
X03072Y02058D01*
X03072Y02055D01*
X03073Y02053D01*
X03074Y02051D01*
X03075Y02050D01*
X03076Y02049D01*
X03077Y02048D01*
X03079Y02048D01*
X03039D01*
X03041Y02048D01*
X03042Y02049D01*
X03043Y02050D01*
X03045Y02051D01*
X03045Y02053D01*
X03046Y02055D01*
X03047Y02058D01*
X03047Y02061D01*
X03047Y02064D01*
X03047Y02068D01*
X03071D01*
X03071Y02064D01*
D02*
G37*
G36*
X02271Y02067D02*
X02272Y02067D01*
X02273Y02067D01*
X02277Y02066D01*
X02294Y02066D01*
Y02043D01*
X02271Y02042D01*
Y02067D01*
X02271Y02067D01*
D02*
G37*
G36*
X01997Y02042D02*
X01997Y02042D01*
X01996Y02042D01*
X01995Y02042D01*
X01991Y02042D01*
X01974Y02043D01*
Y02066D01*
X01997Y02067D01*
Y02042D01*
D02*
G37*
G36*
X01634Y01975D02*
X01634Y01972D01*
X01635Y01968D01*
X01636Y01965D01*
X01637Y01963D01*
X01638Y01961D01*
X01639Y01960D01*
X01640Y01959D01*
X01642Y01958D01*
X01644Y01958D01*
X01600D01*
X01602Y01958D01*
X01604Y01959D01*
X01606Y01960D01*
X01607Y01961D01*
X01608Y01963D01*
X01609Y01965D01*
X01609Y01968D01*
X01610Y01972D01*
X01610Y01975D01*
X01610Y01979D01*
X01634D01*
X01634Y01975D01*
D02*
G37*
G36*
X03408Y01988D02*
X03408Y01986D01*
X03410Y01985D01*
X03411Y01984D01*
X03413Y01983D01*
X03416Y01983D01*
X03419Y01982D01*
X03423Y01982D01*
X03431Y01981D01*
Y01958D01*
X03427Y01958D01*
X03419Y01957D01*
X03416Y01957D01*
X03413Y01956D01*
X03411Y01955D01*
X03410Y01954D01*
X03408Y01953D01*
X03408Y01951D01*
X03408Y01950D01*
Y01989D01*
X03408Y01988D01*
D02*
G37*
G36*
X02271Y01967D02*
X02272Y01967D01*
X02273Y01967D01*
X02277Y01966D01*
X02294Y01966D01*
Y01943D01*
X02271Y01942D01*
Y01967D01*
X02271Y01967D01*
D02*
G37*
G36*
X01440Y01993D02*
X01437Y01990D01*
X01435Y01987D01*
X01433Y01984D01*
X01431Y01981D01*
X01430Y01977D01*
X01429Y01974D01*
X01428Y01970D01*
X01427Y01967D01*
X01427Y01964D01*
X01404D01*
X01404Y01967D01*
X01403Y01970D01*
X01402Y01974D01*
X01401Y01977D01*
X01400Y01981D01*
X01398Y01984D01*
X01396Y01987D01*
X01394Y01990D01*
X01391Y01993D01*
X01388Y01997D01*
X01443D01*
X01440Y01993D01*
D02*
G37*
G36*
X02780Y02009D02*
X02776Y02009D01*
X02772Y02009D01*
X02768Y02008D01*
X02765Y02007D01*
X02762Y02006D01*
X02758Y02005D01*
X02755Y02003D01*
X02752Y02001D01*
X02749Y01999D01*
X02747Y01997D01*
X02730Y02013D01*
X02733Y02016D01*
X02735Y02019D01*
X02737Y02022D01*
X02738Y02025D01*
X02740Y02028D01*
X02741Y02032D01*
X02742Y02035D01*
X02742Y02039D01*
X02742Y02043D01*
X02742Y02046D01*
X02780Y02009D01*
D02*
G37*
G36*
X02271Y02017D02*
X02272Y02017D01*
X02273Y02017D01*
X02277Y02016D01*
X02294Y02016D01*
Y01993D01*
X02271Y01992D01*
Y02017D01*
X02271Y02017D01*
D02*
G37*
G36*
X01997Y01992D02*
X01997Y01992D01*
X01996Y01992D01*
X01995Y01992D01*
X01991Y01992D01*
X01974Y01993D01*
Y02016D01*
X01997Y02017D01*
Y01992D01*
D02*
G37*
G36*
X02697Y02146D02*
X02697Y02142D01*
X02698Y02139D01*
X02699Y02135D01*
X02700Y02133D01*
X02701Y02131D01*
X02703Y02129D01*
X02705Y02128D01*
X02707Y02127D01*
X02709Y02127D01*
X02662D01*
X02664Y02127D01*
X02666Y02128D01*
X02668Y02129D01*
X02669Y02131D01*
X02670Y02133D01*
X02671Y02135D01*
X02672Y02139D01*
X02673Y02142D01*
X02673Y02146D01*
X02673Y02151D01*
X02697D01*
X02697Y02146D01*
D02*
G37*
G36*
X02460Y02118D02*
X02460Y02119D01*
X02459Y02119D01*
X02459Y02120D01*
X02458Y02120D01*
X02456Y02120D01*
X02455Y02121D01*
X02453Y02121D01*
X02448Y02121D01*
X02445Y02121D01*
Y02145D01*
X02448Y02145D01*
X02455Y02145D01*
X02456Y02146D01*
X02458Y02146D01*
X02459Y02146D01*
X02459Y02147D01*
X02460Y02147D01*
X02460Y02148D01*
Y02118D01*
D02*
G37*
G36*
X01523Y02125D02*
X01523Y02125D01*
X01523Y02124D01*
X01523Y02123D01*
X01522Y02122D01*
X01522Y02118D01*
X01522Y02114D01*
X01522Y02111D01*
X01498D01*
X01498Y02114D01*
X01498Y02122D01*
X01497Y02123D01*
X01497Y02124D01*
X01497Y02125D01*
X01497Y02125D01*
X01496Y02126D01*
X01524D01*
X01523Y02125D01*
D02*
G37*
G36*
X02321Y02132D02*
X02321Y02134D01*
X02320Y02136D01*
X02319Y02137D01*
X02317Y02139D01*
X02315Y02140D01*
X02313Y02141D01*
X02310Y02142D01*
X02306Y02142D01*
X02302Y02142D01*
X02298Y02143D01*
Y02166D01*
X02302Y02166D01*
X02306Y02167D01*
X02310Y02167D01*
X02313Y02168D01*
X02315Y02169D01*
X02317Y02170D01*
X02319Y02172D01*
X02320Y02174D01*
X02321Y02176D01*
X02321Y02178D01*
Y02132D01*
D02*
G37*
G36*
X02510Y02198D02*
X02508Y02197D01*
X02506Y02196D01*
X02504Y02194D01*
X02503Y02192D01*
X02502Y02190D01*
X02501Y02187D01*
X02501Y02183D01*
X02500Y02179D01*
X02500Y02175D01*
X02500Y02172D01*
X02501Y02168D01*
X02501Y02164D01*
X02502Y02161D01*
X02503Y02158D01*
X02504Y02156D01*
X02506Y02155D01*
X02508Y02153D01*
X02510Y02153D01*
X02512Y02153D01*
X02465D01*
X02467Y02153D01*
X02469Y02153D01*
X02471Y02155D01*
X02472Y02156D01*
X02474Y02158D01*
X02475Y02161D01*
X02475Y02164D01*
X02476Y02168D01*
X02476Y02172D01*
X02477Y02175D01*
X02476Y02179D01*
X02476Y02183D01*
X02475Y02187D01*
X02475Y02190D01*
X02474Y02192D01*
X02472Y02194D01*
X02471Y02196D01*
X02469Y02197D01*
X02467Y02198D01*
X02465Y02198D01*
X02512D01*
X02510Y02198D01*
D02*
G37*
G36*
X02271Y02167D02*
X02272Y02167D01*
X02273Y02167D01*
X02277Y02166D01*
X02294Y02166D01*
Y02143D01*
X02271Y02142D01*
Y02167D01*
X02271Y02167D01*
D02*
G37*
G36*
X01740Y02146D02*
X01741Y02136D01*
X01741Y02136D01*
X01741Y02136D01*
X01716D01*
X01716Y02136D01*
X01716Y02136D01*
X01716Y02137D01*
X01716Y02138D01*
X01716Y02139D01*
X01717Y02144D01*
X01717Y02149D01*
X01740D01*
X01740Y02146D01*
D02*
G37*
G36*
X01748Y02129D02*
X01749Y02127D01*
X01750Y02125D01*
X01752Y02123D01*
X01754Y02122D01*
X01757Y02121D01*
X01760Y02120D01*
X01763Y02120D01*
X01767Y02119D01*
X01772Y02119D01*
Y02096D01*
X01767Y02095D01*
X01763Y02095D01*
X01760Y02094D01*
X01757Y02094D01*
X01754Y02093D01*
X01752Y02091D01*
X01750Y02090D01*
X01749Y02088D01*
X01748Y02086D01*
X01748Y02084D01*
Y02131D01*
X01748Y02129D01*
D02*
G37*
G36*
X01634Y02084D02*
X01634Y02086D01*
X01633Y02088D01*
X01632Y02090D01*
X01630Y02091D01*
X01628Y02093D01*
X01626Y02094D01*
X01623Y02094D01*
X01619Y02095D01*
X01615Y02095D01*
X01611Y02096D01*
Y02119D01*
X01615Y02119D01*
X01619Y02120D01*
X01623Y02120D01*
X01626Y02121D01*
X01628Y02122D01*
X01630Y02123D01*
X01632Y02125D01*
X01633Y02127D01*
X01634Y02129D01*
X01634Y02131D01*
Y02084D01*
D02*
G37*
G36*
X03390Y02067D02*
X03390Y02063D01*
X03391Y02060D01*
X03392Y02057D01*
X03393Y02054D01*
X03394Y02052D01*
X03396Y02050D01*
X03397Y02049D01*
X03399Y02048D01*
X03402Y02048D01*
X03354D01*
X03357Y02048D01*
X03359Y02049D01*
X03361Y02050D01*
X03362Y02052D01*
X03363Y02054D01*
X03364Y02057D01*
X03365Y02060D01*
X03366Y02063D01*
X03366Y02067D01*
X03366Y02072D01*
X03390D01*
X03390Y02067D01*
D02*
G37*
G36*
X03288Y02128D02*
X03288Y02127D01*
X03299D01*
X03297Y02127D01*
X03295Y02126D01*
X03293Y02125D01*
X03292Y02123D01*
X03291Y02121D01*
X03290Y02120D01*
X03291Y02118D01*
X03293Y02115D01*
X03296Y02113D01*
X03299Y02111D01*
X03303Y02110D01*
X03307Y02110D01*
X03311Y02109D01*
X03276Y02086D01*
X03240Y02109D01*
X03245Y02110D01*
X03249Y02110D01*
X03252Y02111D01*
X03255Y02113D01*
X03258Y02115D01*
X03260Y02118D01*
X03261Y02120D01*
X03261Y02121D01*
X03260Y02123D01*
X03258Y02125D01*
X03256Y02126D01*
X03254Y02127D01*
X03252Y02127D01*
X03263D01*
X03264Y02128D01*
X03264Y02133D01*
X03288D01*
X03288Y02128D01*
D02*
G37*
G36*
X02271Y02117D02*
X02272Y02117D01*
X02273Y02117D01*
X02277Y02116D01*
X02294Y02116D01*
Y02093D01*
X02271Y02092D01*
Y02117D01*
X02271Y02117D01*
D02*
G37*
G36*
X02211Y02092D02*
X02211Y02092D01*
X02210Y02092D01*
X02209Y02092D01*
X02205Y02092D01*
X02187Y02093D01*
Y02116D01*
X02211Y02117D01*
Y02092D01*
D02*
G37*
G36*
X01997Y02117D02*
Y02092D01*
X01997Y02092D01*
X01996Y02093D01*
X01995Y02094D01*
X01994Y02094D01*
X01991Y02095D01*
X01989Y02095D01*
X01982Y02095D01*
X01974Y02096D01*
Y02119D01*
X01997Y02117D01*
D02*
G37*
G36*
Y01942D02*
X01997Y01942D01*
X01996Y01942D01*
X01995Y01942D01*
X01991Y01942D01*
X01974Y01943D01*
Y01966D01*
X01997Y01967D01*
Y01942D01*
D02*
G37*
G36*
X02529Y01832D02*
X02529Y01833D01*
X02528Y01835D01*
X02527Y01836D01*
X02525Y01837D01*
X02523Y01838D01*
X02520Y01838D01*
X02517Y01839D01*
X02514Y01839D01*
X02505Y01840D01*
Y01863D01*
X02510Y01863D01*
X02517Y01864D01*
X02520Y01865D01*
X02523Y01865D01*
X02525Y01866D01*
X02527Y01867D01*
X02528Y01868D01*
X02529Y01870D01*
X02529Y01871D01*
Y01832D01*
D02*
G37*
G36*
X02363Y01831D02*
X02362Y01833D01*
X02362Y01835D01*
X02360Y01837D01*
X02359Y01838D01*
X02357Y01840D01*
X02354Y01841D01*
X02351Y01842D01*
X02347Y01842D01*
X02343Y01842D01*
X02339Y01843D01*
Y01866D01*
X02343Y01866D01*
X02347Y01867D01*
X02351Y01867D01*
X02354Y01868D01*
X02357Y01869D01*
X02359Y01870D01*
X02360Y01872D01*
X02362Y01874D01*
X02362Y01876D01*
X02363Y01878D01*
Y01831D01*
D02*
G37*
G36*
X02477Y01873D02*
X02477Y01871D01*
X02479Y01869D01*
X02480Y01868D01*
X02482Y01866D01*
X02485Y01865D01*
X02488Y01864D01*
X02492Y01864D01*
X02496Y01863D01*
X02500Y01863D01*
Y01840D01*
X02496Y01840D01*
X02492Y01839D01*
X02488Y01839D01*
X02485Y01838D01*
X02482Y01837D01*
X02480Y01835D01*
X02479Y01834D01*
X02477Y01832D01*
X02477Y01830D01*
X02476Y01828D01*
Y01875D01*
X02477Y01873D01*
D02*
G37*
G36*
X02586Y01870D02*
X02587Y01868D01*
X02588Y01867D01*
X02589Y01866D01*
X02592Y01865D01*
X02594Y01865D01*
X02597Y01864D01*
X02601Y01864D01*
X02609Y01863D01*
Y01840D01*
X02605Y01840D01*
X02597Y01839D01*
X02594Y01838D01*
X02592Y01838D01*
X02589Y01837D01*
X02588Y01836D01*
X02587Y01835D01*
X02586Y01833D01*
X02586Y01832D01*
Y01871D01*
X02586Y01870D01*
D02*
G37*
G36*
X01997Y01842D02*
X01997Y01842D01*
X01996Y01842D01*
X01995Y01842D01*
X01991Y01842D01*
X01974Y01843D01*
Y01866D01*
X01997Y01867D01*
Y01842D01*
D02*
G37*
G36*
X03081Y01891D02*
X03079Y01890D01*
X03077Y01889D01*
X03075Y01887D01*
X03074Y01885D01*
X03073Y01883D01*
X03072Y01879D01*
X03072Y01876D01*
X03072Y01875D01*
X03072Y01872D01*
X03073Y01869D01*
X03074Y01867D01*
X03075Y01865D01*
X03076Y01864D01*
X03077Y01864D01*
X03079Y01863D01*
X03059Y01840D01*
X03024Y01863D01*
X03028Y01864D01*
X03032Y01864D01*
X03036Y01865D01*
X03039Y01867D01*
X03041Y01869D01*
X03044Y01872D01*
X03045Y01875D01*
X03046Y01878D01*
X03046Y01879D01*
X03046Y01879D01*
X03046Y01883D01*
X03044Y01885D01*
X03043Y01887D01*
X03042Y01889D01*
X03040Y01890D01*
X03038Y01891D01*
X03036Y01891D01*
X03083D01*
X03081Y01891D01*
D02*
G37*
G36*
X01807Y01883D02*
X01808Y01881D01*
X01809Y01879D01*
X01811Y01877D01*
X01813Y01876D01*
X01816Y01875D01*
X01819Y01874D01*
X01822Y01874D01*
X01826Y01873D01*
X01831Y01873D01*
Y01849D01*
X01826Y01849D01*
X01822Y01849D01*
X01819Y01848D01*
X01816Y01848D01*
X01813Y01847D01*
X01811Y01845D01*
X01809Y01844D01*
X01808Y01842D01*
X01807Y01840D01*
X01807Y01838D01*
Y01885D01*
X01807Y01883D01*
D02*
G37*
G36*
X02586Y01795D02*
X02587Y01793D01*
X02588Y01792D01*
X02589Y01791D01*
X02592Y01790D01*
X02594Y01790D01*
X02597Y01789D01*
X02601Y01789D01*
X02609Y01788D01*
Y01765D01*
X02605Y01765D01*
X02597Y01764D01*
X02594Y01764D01*
X02592Y01763D01*
X02589Y01762D01*
X02588Y01761D01*
X02587Y01760D01*
X02586Y01759D01*
X02586Y01757D01*
Y01796D01*
X02586Y01795D01*
D02*
G37*
G36*
X02579Y01757D02*
X02577Y01756D01*
X02575Y01755D01*
X02573Y01753D01*
X02572Y01751D01*
X02571Y01749D01*
X02570Y01746D01*
X02570Y01742D01*
X02569Y01738D01*
X02569Y01733D01*
X02545D01*
X02545Y01738D01*
X02545Y01742D01*
X02544Y01746D01*
X02544Y01749D01*
X02542Y01751D01*
X02541Y01753D01*
X02540Y01755D01*
X02538Y01756D01*
X02536Y01757D01*
X02534Y01757D01*
X02581D01*
X02579Y01757D01*
D02*
G37*
G36*
X01780Y01774D02*
X01781Y01772D01*
X01782Y01771D01*
X01783Y01769D01*
X01785Y01768D01*
X01788Y01767D01*
X01791Y01766D01*
X01795Y01765D01*
X01799Y01765D01*
X01803Y01765D01*
Y01741D01*
X01799Y01741D01*
X01795Y01741D01*
X01791Y01740D01*
X01788Y01739D01*
X01785Y01738D01*
X01783Y01737D01*
X01782Y01735D01*
X01781Y01734D01*
X01780Y01732D01*
X01780Y01729D01*
Y01777D01*
X01780Y01774D01*
D02*
G37*
G36*
X01725Y01833D02*
X01725Y01833D01*
X01732D01*
X01731Y01833D01*
X01730Y01832D01*
X01728Y01831D01*
X01727Y01829D01*
X01727Y01827D01*
X01726Y01827D01*
X01727Y01826D01*
X01728Y01823D01*
X01730Y01820D01*
X01733Y01818D01*
X01736Y01816D01*
X01740Y01815D01*
X01744Y01814D01*
X01748Y01814D01*
Y01790D01*
X01744Y01790D01*
X01740Y01789D01*
X01736Y01788D01*
X01733Y01787D01*
X01730Y01785D01*
X01728Y01782D01*
X01727Y01779D01*
X01726Y01775D01*
X01725Y01771D01*
X01725Y01767D01*
X01701Y01802D01*
X01706Y01809D01*
X01701D01*
X01701Y01814D01*
X01700Y01821D01*
X01700Y01824D01*
X01699Y01827D01*
X01698Y01829D01*
X01697Y01831D01*
X01696Y01832D01*
X01695Y01833D01*
X01693Y01833D01*
X01721D01*
X01725Y01838D01*
X01725Y01833D01*
D02*
G37*
G36*
X02262Y01841D02*
X02260Y01841D01*
X02258Y01840D01*
X02257Y01838D01*
X02256Y01836D01*
X02254Y01833D01*
X02254Y01830D01*
X02254Y01829D01*
X02254Y01829D01*
X02254Y01826D01*
X02256Y01823D01*
X02257Y01821D01*
X02258Y01819D01*
X02260Y01818D01*
X02262Y01817D01*
X02264Y01817D01*
X02217D01*
X02219Y01817D01*
X02221Y01818D01*
X02223Y01819D01*
X02225Y01821D01*
X02226Y01823D01*
X02227Y01826D01*
X02228Y01829D01*
X02228Y01829D01*
X02228Y01830D01*
X02227Y01833D01*
X02226Y01836D01*
X02225Y01838D01*
X02223Y01840D01*
X02221Y01841D01*
X02219Y01841D01*
X02217Y01842D01*
X02264D01*
X02262Y01841D01*
D02*
G37*
G36*
X02057Y01817D02*
X02058Y01817D01*
X02059Y01817D01*
X02063Y01816D01*
X02081Y01816D01*
Y01793D01*
X02057Y01792D01*
Y01817D01*
X02057Y01817D01*
D02*
G37*
G36*
X02049Y01791D02*
X02047Y01791D01*
X02045Y01790D01*
X02043Y01788D01*
X02042Y01786D01*
X02041Y01783D01*
X02040Y01780D01*
X02040Y01777D01*
X02039Y01773D01*
X02039Y01768D01*
X02015D01*
X02015Y01773D01*
X02015Y01777D01*
X02014Y01780D01*
X02014Y01783D01*
X02012Y01786D01*
X02011Y01788D01*
X02010Y01790D01*
X02008Y01791D01*
X02006Y01791D01*
X02004Y01792D01*
X02051D01*
X02049Y01791D01*
D02*
G37*
G36*
X01780Y01961D02*
X01781Y01959D01*
X01782Y01958D01*
X01783Y01956D01*
X01785Y01955D01*
X01788Y01954D01*
X01791Y01953D01*
X01795Y01952D01*
X01799Y01952D01*
X01803Y01952D01*
Y01928D01*
X01799Y01928D01*
X01795Y01928D01*
X01791Y01927D01*
X01788Y01926D01*
X01785Y01925D01*
X01783Y01924D01*
X01782Y01922D01*
X01781Y01921D01*
X01780Y01919D01*
X01780Y01916D01*
Y01964D01*
X01780Y01961D01*
D02*
G37*
G36*
X01534D02*
X01534Y01959D01*
X01536Y01958D01*
X01537Y01956D01*
X01539Y01955D01*
X01542Y01954D01*
X01545Y01953D01*
X01549Y01952D01*
X01553Y01952D01*
X01557Y01952D01*
Y01928D01*
X01553Y01928D01*
X01549Y01928D01*
X01545Y01927D01*
X01542Y01926D01*
X01539Y01925D01*
X01537Y01924D01*
X01536Y01922D01*
X01534Y01921D01*
X01534Y01919D01*
X01533Y01916D01*
Y01964D01*
X01534Y01961D01*
D02*
G37*
G36*
X01455Y01916D02*
X01455Y01919D01*
X01454Y01921D01*
X01453Y01922D01*
X01451Y01924D01*
X01449Y01925D01*
X01446Y01926D01*
X01443Y01927D01*
X01440Y01928D01*
X01436Y01928D01*
X01431Y01928D01*
Y01952D01*
X01436Y01952D01*
X01440Y01952D01*
X01443Y01953D01*
X01446Y01954D01*
X01449Y01955D01*
X01451Y01956D01*
X01453Y01958D01*
X01454Y01959D01*
X01455Y01961D01*
X01455Y01964D01*
Y01916D01*
D02*
G37*
G36*
X02262Y01941D02*
X02260Y01941D01*
X02258Y01940D01*
X02257Y01938D01*
X02256Y01936D01*
X02254Y01933D01*
X02254Y01930D01*
X02254Y01929D01*
X02254Y01929D01*
X02254Y01926D01*
X02256Y01923D01*
X02257Y01921D01*
X02258Y01919D01*
X02260Y01918D01*
X02262Y01917D01*
X02264Y01917D01*
X02217D01*
X02219Y01917D01*
X02221Y01918D01*
X02223Y01919D01*
X02225Y01921D01*
X02226Y01923D01*
X02227Y01926D01*
X02228Y01929D01*
X02228Y01929D01*
X02228Y01930D01*
X02227Y01933D01*
X02226Y01936D01*
X02225Y01938D01*
X02223Y01940D01*
X02221Y01941D01*
X02219Y01941D01*
X02217Y01942D01*
X02264D01*
X02262Y01941D01*
D02*
G37*
G36*
X03494Y01970D02*
X03471Y01934D01*
X03470Y01939D01*
X03470Y01943D01*
X03469Y01946D01*
X03467Y01949D01*
X03465Y01952D01*
X03462Y01954D01*
X03459Y01956D01*
X03456Y01957D01*
X03451Y01958D01*
X03447Y01958D01*
Y01981D01*
X03451Y01982D01*
X03456Y01982D01*
X03459Y01984D01*
X03462Y01985D01*
X03465Y01987D01*
X03467Y01990D01*
X03469Y01993D01*
X03470Y01996D01*
X03470Y02001D01*
X03471Y02005D01*
X03494Y01970D01*
D02*
G37*
G36*
X02872Y01931D02*
X02872Y01933D01*
X02871Y01935D01*
X02870Y01937D01*
X02869Y01938D01*
X02867Y01940D01*
X02864Y01941D01*
X02861Y01942D01*
X02857Y01942D01*
X02853Y01942D01*
X02849Y01943D01*
Y01966D01*
X02853Y01966D01*
X02857Y01967D01*
X02861Y01967D01*
X02864Y01968D01*
X02867Y01969D01*
X02869Y01970D01*
X02870Y01972D01*
X02871Y01974D01*
X02872Y01976D01*
X02872Y01978D01*
Y01931D01*
D02*
G37*
G36*
X01594Y01919D02*
X01594Y01920D01*
X01593Y01922D01*
X01592Y01923D01*
X01590Y01925D01*
X01588Y01926D01*
X01585Y01927D01*
X01582Y01927D01*
X01579Y01928D01*
X01575Y01928D01*
X01570Y01928D01*
Y01952D01*
X01575Y01952D01*
X01585Y01953D01*
X01588Y01953D01*
X01590Y01954D01*
X01592Y01955D01*
X01593Y01956D01*
X01594Y01957D01*
X01594Y01958D01*
Y01919D01*
D02*
G37*
G36*
X03402Y01891D02*
X03401Y01890D01*
X03400Y01889D01*
X03399Y01888D01*
X03398Y01886D01*
X03397Y01884D01*
X03397Y01881D01*
X03396Y01878D01*
X03396Y01875D01*
X03396Y01871D01*
X03372D01*
X03372Y01875D01*
X03371Y01881D01*
X03371Y01884D01*
X03370Y01886D01*
X03369Y01888D01*
X03368Y01889D01*
X03367Y01890D01*
X03366Y01891D01*
X03364Y01891D01*
X03404D01*
X03402Y01891D01*
D02*
G37*
G36*
X01594Y01844D02*
X01594Y01845D01*
X01593Y01846D01*
X01592Y01848D01*
X01590Y01849D01*
X01588Y01850D01*
X01585Y01850D01*
X01582Y01851D01*
X01579Y01851D01*
X01570Y01851D01*
Y01875D01*
X01575Y01875D01*
X01582Y01876D01*
X01585Y01876D01*
X01588Y01877D01*
X01590Y01878D01*
X01592Y01879D01*
X01593Y01880D01*
X01594Y01881D01*
X01594Y01883D01*
Y01844D01*
D02*
G37*
G36*
X02271Y01867D02*
X02272Y01867D01*
X02273Y01867D01*
X02277Y01866D01*
X02294Y01866D01*
Y01843D01*
X02271Y01842D01*
Y01867D01*
X02271Y01867D01*
D02*
G37*
G36*
X01693Y01840D02*
X01693Y01842D01*
X01692Y01844D01*
X01691Y01846D01*
X01690Y01847D01*
X01687Y01849D01*
X01685Y01850D01*
X01682Y01850D01*
X01678Y01851D01*
X01674Y01851D01*
X01671Y01851D01*
X01670Y01851D01*
X01662Y01851D01*
X01659Y01850D01*
X01657Y01850D01*
X01654Y01849D01*
X01653Y01848D01*
X01652Y01846D01*
X01651Y01845D01*
X01651Y01844D01*
Y01883D01*
X01651Y01881D01*
X01652Y01880D01*
X01653Y01879D01*
X01654Y01878D01*
X01657Y01877D01*
X01659Y01876D01*
X01662Y01876D01*
X01666Y01875D01*
X01672Y01875D01*
X01674Y01875D01*
X01678Y01876D01*
X01682Y01876D01*
X01685Y01877D01*
X01687Y01878D01*
X01690Y01879D01*
X01691Y01881D01*
X01692Y01883D01*
X01693Y01885D01*
X01693Y01887D01*
Y01840D01*
D02*
G37*
G36*
X02211Y01892D02*
X02211Y01892D01*
X02210Y01892D01*
X02209Y01892D01*
X02205Y01892D01*
X02187Y01893D01*
Y01916D01*
X02211Y01917D01*
Y01892D01*
D02*
G37*
G36*
X01997D02*
X01997Y01892D01*
X01996Y01892D01*
X01995Y01892D01*
X01991Y01892D01*
X01974Y01893D01*
Y01916D01*
X01997Y01917D01*
Y01892D01*
D02*
G37*
G36*
X01723Y01909D02*
X01723Y01901D01*
X01724Y01898D01*
X01725Y01896D01*
X01726Y01894D01*
X01727Y01892D01*
X01729Y01891D01*
X01730Y01890D01*
X01732Y01890D01*
X01693D01*
X01694Y01890D01*
X01695Y01891D01*
X01696Y01892D01*
X01697Y01894D01*
X01698Y01896D01*
X01698Y01898D01*
X01698Y01901D01*
X01699Y01909D01*
X01699Y01913D01*
X01723D01*
X01723Y01909D01*
D02*
G37*
G36*
X06491Y03299D02*
X06489Y03298D01*
X06488Y03297D01*
X06487Y03296D01*
X06486Y03294D01*
X06486Y03291D01*
X06485Y03288D01*
X06485Y03284D01*
X06484Y03276D01*
X06461D01*
X06461Y03280D01*
X06460Y03288D01*
X06460Y03291D01*
X06459Y03294D01*
X06458Y03296D01*
X06457Y03297D01*
X06456Y03298D01*
X06455Y03299D01*
X06453Y03299D01*
X06492D01*
X06491Y03299D01*
D02*
G37*
G36*
X06416D02*
X06415Y03298D01*
X06413Y03297D01*
X06412Y03296D01*
X06412Y03294D01*
X06411Y03291D01*
X06410Y03288D01*
X06410Y03284D01*
X06410Y03276D01*
X06386D01*
X06386Y03280D01*
X06385Y03288D01*
X06385Y03291D01*
X06384Y03294D01*
X06383Y03296D01*
X06382Y03297D01*
X06381Y03298D01*
X06380Y03299D01*
X06378Y03299D01*
X06417D01*
X06416Y03299D01*
D02*
G37*
G36*
X03098Y03298D02*
X03096Y03298D01*
X03095Y03296D01*
X03093Y03295D01*
X03092Y03293D01*
X03091Y03290D01*
X03090Y03287D01*
X03089Y03283D01*
X03089Y03279D01*
X03089Y03275D01*
X03065D01*
X03065Y03279D01*
X03064Y03287D01*
X03064Y03290D01*
X03063Y03293D01*
X03062Y03295D01*
X03061Y03296D01*
X03060Y03297D01*
X03059Y03298D01*
X03057Y03298D01*
X03101Y03299D01*
X03098Y03298D01*
D02*
G37*
G36*
X06492Y03349D02*
X06493Y03347D01*
X06494Y03345D01*
X06496Y03344D01*
X06498Y03343D01*
X06501Y03342D01*
X06504Y03341D01*
X06507Y03340D01*
X06511Y03340D01*
X06516Y03340D01*
Y03316D01*
X06511Y03316D01*
X06507Y03316D01*
X06504Y03315D01*
X06501Y03314D01*
X06498Y03313D01*
X06496Y03312D01*
X06494Y03310D01*
X06493Y03308D01*
X06492Y03306D01*
X06492Y03304D01*
Y03351D01*
X06492Y03349D01*
D02*
G37*
G36*
X03321Y03314D02*
X03321Y03316D01*
X03320Y03318D01*
X03319Y03320D01*
X03317Y03322D01*
X03315Y03323D01*
X03313Y03324D01*
X03310Y03325D01*
X03306Y03325D01*
X03302Y03326D01*
X03298Y03326D01*
Y03349D01*
X03302Y03350D01*
X03306Y03350D01*
X03310Y03351D01*
X03313Y03351D01*
X03315Y03352D01*
X03317Y03354D01*
X03319Y03355D01*
X03320Y03357D01*
X03321Y03359D01*
X03321Y03361D01*
Y03314D01*
D02*
G37*
G36*
X03254Y03359D02*
X03255Y03357D01*
X03256Y03355D01*
X03258Y03354D01*
X03260Y03352D01*
X03262Y03351D01*
X03265Y03351D01*
X03269Y03350D01*
X03273Y03350D01*
X03278Y03349D01*
Y03326D01*
X03273Y03326D01*
X03269Y03325D01*
X03265Y03325D01*
X03262Y03324D01*
X03260Y03323D01*
X03258Y03322D01*
X03256Y03320D01*
X03255Y03318D01*
X03254Y03316D01*
X03254Y03314D01*
Y03361D01*
X03254Y03359D01*
D02*
G37*
G36*
X06589Y03304D02*
X06589Y03306D01*
X06588Y03308D01*
X06587Y03310D01*
X06585Y03312D01*
X06583Y03313D01*
X06580Y03314D01*
X06577Y03315D01*
X06574Y03316D01*
X06570Y03316D01*
X06565Y03316D01*
Y03340D01*
X06570Y03340D01*
X06574Y03340D01*
X06577Y03341D01*
X06580Y03342D01*
X06583Y03343D01*
X06585Y03344D01*
X06587Y03345D01*
X06588Y03347D01*
X06589Y03349D01*
X06589Y03351D01*
Y03304D01*
D02*
G37*
G36*
X03249Y03211D02*
X03250Y03209D01*
X03251Y03208D01*
X03253Y03206D01*
X03255Y03205D01*
X03258Y03204D01*
X03261Y03203D01*
X03264Y03202D01*
X03268Y03202D01*
X03273Y03202D01*
Y03178D01*
X03268Y03178D01*
X03264Y03178D01*
X03261Y03177D01*
X03258Y03176D01*
X03255Y03175D01*
X03253Y03174D01*
X03251Y03172D01*
X03250Y03171D01*
X03249Y03169D01*
X03249Y03166D01*
Y03214D01*
X03249Y03211D01*
D02*
G37*
G36*
X03366Y03162D02*
X03366Y03162D01*
X03374D01*
X03373Y03161D01*
X03371Y03161D01*
X03370Y03159D01*
X03369Y03158D01*
X03368Y03156D01*
X03368Y03153D01*
X03367Y03153D01*
X03368Y03152D01*
X03369Y03148D01*
X03370Y03145D01*
X03372Y03141D01*
X03374Y03138D01*
X03376Y03135D01*
X03379Y03131D01*
X03381Y03128D01*
X03326Y03131D01*
X03329Y03134D01*
X03332Y03137D01*
X03335Y03140D01*
X03337Y03143D01*
X03339Y03146D01*
X03340Y03149D01*
X03341Y03153D01*
X03341Y03153D01*
X03341Y03156D01*
X03340Y03158D01*
X03339Y03159D01*
X03338Y03161D01*
X03336Y03161D01*
X03335Y03162D01*
X03343D01*
X03343Y03163D01*
X03366Y03162D01*
D02*
G37*
G36*
X03377Y03070D02*
X03374Y03067D01*
X03372Y03064D01*
X03370Y03061D01*
X03368Y03057D01*
X03367Y03054D01*
X03366Y03051D01*
X03365Y03047D01*
X03364Y03044D01*
X03364Y03040D01*
X03341D01*
X03341Y03044D01*
X03340Y03047D01*
X03339Y03051D01*
X03338Y03054D01*
X03337Y03057D01*
X03335Y03061D01*
X03333Y03064D01*
X03331Y03067D01*
X03328Y03070D01*
X03325Y03073D01*
X03380D01*
X03377Y03070D01*
D02*
G37*
G36*
X03335Y03166D02*
X03335Y03169D01*
X03334Y03171D01*
X03333Y03172D01*
X03331Y03174D01*
X03329Y03175D01*
X03326Y03176D01*
X03323Y03177D01*
X03320Y03178D01*
X03316Y03178D01*
X03311Y03178D01*
Y03202D01*
X03316Y03202D01*
X03320Y03202D01*
X03323Y03203D01*
X03326Y03204D01*
X03329Y03205D01*
X03331Y03206D01*
X03333Y03208D01*
X03334Y03209D01*
X03335Y03211D01*
X03335Y03214D01*
Y03166D01*
D02*
G37*
G36*
X03089Y03248D02*
X03089Y03244D01*
X03090Y03241D01*
X03091Y03238D01*
X03092Y03235D01*
X03093Y03233D01*
X03095Y03231D01*
X03096Y03230D01*
X03098Y03229D01*
X03101Y03229D01*
X03053D01*
X03056Y03229D01*
X03058Y03230D01*
X03059Y03231D01*
X03061Y03233D01*
X03062Y03235D01*
X03063Y03238D01*
X03064Y03241D01*
X03065Y03244D01*
X03065Y03248D01*
X03065Y03253D01*
X03089D01*
X03089Y03248D01*
D02*
G37*
G36*
X03445Y03238D02*
X03446Y03224D01*
X03446Y03222D01*
X03447Y03221D01*
X03447Y03219D01*
X03448Y03219D01*
X03449Y03218D01*
X03410D01*
X03412Y03219D01*
X03414Y03219D01*
X03416Y03221D01*
X03417Y03222D01*
X03418Y03224D01*
X03420Y03227D01*
X03420Y03230D01*
X03421Y03234D01*
X03421Y03238D01*
X03421Y03242D01*
X03445D01*
X03445Y03238D01*
D02*
G37*
G36*
X06485Y03230D02*
X06485Y03226D01*
X06486Y03223D01*
X06487Y03220D01*
X06489Y03217D01*
X06491Y03214D01*
X06493Y03211D01*
X06495Y03208D01*
X06498Y03205D01*
X06501Y03203D01*
X06447Y03195D01*
X06449Y03199D01*
X06454Y03206D01*
X06456Y03209D01*
X06457Y03213D01*
X06459Y03216D01*
X06460Y03220D01*
X06460Y03223D01*
X06461Y03227D01*
X06461Y03230D01*
X06484Y03233D01*
X06485Y03230D01*
D02*
G37*
G36*
X06463Y04155D02*
Y04155D01*
X06463D01*
X06571Y03958D01*
Y03859D01*
Y03712D01*
X06466Y03568D01*
X06463Y03564D01*
Y03564D01*
X06463Y03564D01*
X06099Y03564D01*
X06099Y03564D01*
D01*
X06010Y03731D01*
Y03987D01*
X06099Y04155D01*
X06463Y04155D01*
D02*
G37*
G36*
X03466Y03478D02*
X03468Y03478D01*
X03472Y03477D01*
Y03454D01*
X03468Y03454D01*
X03466Y03454D01*
Y03438D01*
X03463Y03441D01*
X03460Y03444D01*
X03457Y03446D01*
X03453Y03448D01*
X03452Y03449D01*
X03451Y03448D01*
X03450Y03446D01*
X03449Y03444D01*
X03449Y03442D01*
Y03450D01*
X03447Y03451D01*
X03443Y03452D01*
X03440Y03453D01*
X03437Y03454D01*
X03433Y03454D01*
X03433Y03477D01*
X03437Y03478D01*
X03440Y03478D01*
X03443Y03479D01*
X03447Y03480D01*
X03449Y03481D01*
Y03489D01*
X03449Y03487D01*
X03450Y03485D01*
X03451Y03483D01*
X03452Y03482D01*
X03453Y03483D01*
X03457Y03485D01*
X03460Y03488D01*
X03463Y03490D01*
X03466Y03493D01*
Y03478D01*
D02*
G37*
G36*
X03335Y03442D02*
X03335Y03444D01*
X03334Y03446D01*
X03333Y03448D01*
X03331Y03450D01*
X03329Y03451D01*
X03326Y03452D01*
X03323Y03453D01*
X03320Y03453D01*
X03316Y03454D01*
X03311Y03454D01*
Y03477D01*
X03316Y03478D01*
X03320Y03478D01*
X03323Y03479D01*
X03326Y03479D01*
X03329Y03480D01*
X03331Y03482D01*
X03333Y03483D01*
X03334Y03485D01*
X03335Y03487D01*
X03335Y03489D01*
Y03442D01*
D02*
G37*
G36*
X05685Y04155D02*
X05685D01*
X05813Y04027D01*
Y03731D01*
X05685Y03564D01*
X05685D01*
X05685Y03564D01*
X03941Y03564D01*
Y03564D01*
X03097D01*
X01167D01*
X01108Y03643D01*
Y03968D01*
X01177Y04036D01*
X01177D01*
X01177Y04036D01*
X02998D01*
X02998Y04036D01*
X02998D01*
X03097Y03918D01*
Y03781D01*
X03467Y03781D01*
Y03781D01*
X03467D01*
X03524Y03666D01*
X03941D01*
Y04056D01*
X04012Y04155D01*
X05685D01*
X05685Y04155D01*
D02*
G37*
G36*
X06463Y04627D02*
D01*
X06463D01*
X06581Y04499D01*
Y04411D01*
Y04302D01*
X06463Y04194D01*
X06463D01*
Y04194D01*
X04455Y04194D01*
X04455Y04194D01*
Y04194D01*
X04451Y04197D01*
X04297Y04302D01*
Y04411D01*
Y04519D01*
X04435Y04627D01*
X06463Y04627D01*
D02*
G37*
G36*
X02782Y04450D02*
Y04145D01*
X02697Y04079D01*
X02693Y04076D01*
X02693Y04076D01*
X02693Y04076D01*
X01177D01*
X01108Y04155D01*
Y04470D01*
X01177Y04548D01*
X02723D01*
X02782Y04450D01*
D02*
G37*
G36*
X03894Y04548D02*
Y04548D01*
X03894Y04548D01*
Y04543D01*
X03894Y03909D01*
X03894D01*
Y03909D01*
X03825Y03840D01*
X03737D01*
X03682Y03753D01*
X03681Y03769D01*
X03678Y03784D01*
X03673Y03797D01*
X03666Y03808D01*
X03658Y03818D01*
X03647Y03826D01*
X03634Y03832D01*
X03619Y03836D01*
X03603Y03839D01*
X03584Y03840D01*
Y03840D01*
X03520D01*
X03471Y03889D01*
X03426Y03933D01*
X03471Y03977D01*
Y04184D01*
X03402Y04302D01*
X03351Y04389D01*
X03402Y04440D01*
Y04578D01*
X03480Y04627D01*
X03815D01*
X03894Y04548D01*
D02*
G37*
G36*
X03103Y03426D02*
X03101Y03426D01*
X03099Y03424D01*
X03098Y03423D01*
X03097Y03421D01*
X03096Y03418D01*
X03095Y03415D01*
X03094Y03411D01*
X03094Y03407D01*
X03094Y03403D01*
X03070D01*
X03070Y03407D01*
X03070Y03411D01*
X03069Y03415D01*
X03068Y03418D01*
X03067Y03421D01*
X03066Y03423D01*
X03064Y03424D01*
X03062Y03426D01*
X03060Y03426D01*
X03058Y03427D01*
X03105D01*
X03103Y03426D01*
D02*
G37*
G36*
X03094Y03396D02*
X03094Y03392D01*
X03095Y03388D01*
X03096Y03385D01*
X03097Y03383D01*
X03098Y03381D01*
X03099Y03379D01*
X03101Y03378D01*
X03103Y03377D01*
X03105Y03377D01*
X03058D01*
X03060Y03377D01*
X03062Y03378D01*
X03064Y03379D01*
X03066Y03381D01*
X03067Y03383D01*
X03068Y03385D01*
X03069Y03388D01*
X03070Y03392D01*
X03070Y03396D01*
X03070Y03401D01*
X03094D01*
X03094Y03396D01*
D02*
G37*
G36*
X06695Y03375D02*
X06696Y03368D01*
X06696Y03365D01*
X06697Y03362D01*
X06698Y03360D01*
X06699Y03358D01*
X06700Y03357D01*
X06701Y03356D01*
X06703Y03356D01*
X06664D01*
X06665Y03356D01*
X06666Y03357D01*
X06668Y03358D01*
X06668Y03360D01*
X06669Y03362D01*
X06670Y03365D01*
X06671Y03368D01*
X06671Y03371D01*
X06671Y03380D01*
X06695D01*
X06695Y03375D01*
D02*
G37*
G36*
X03447Y03437D02*
X03446Y03436D01*
X03445Y03435D01*
X03444Y03433D01*
X03443Y03431D01*
X03442Y03429D01*
X03442Y03426D01*
X03441Y03422D01*
X03441Y03414D01*
X03417D01*
X03417Y03418D01*
X03417Y03426D01*
X03416Y03429D01*
X03416Y03431D01*
X03415Y03433D01*
X03414Y03435D01*
X03413Y03436D01*
X03411Y03437D01*
X03410Y03437D01*
X03449D01*
X03447Y03437D01*
D02*
G37*
G36*
X03254Y03487D02*
X03255Y03485D01*
X03256Y03483D01*
X03258Y03482D01*
X03260Y03480D01*
X03262Y03479D01*
X03266Y03479D01*
X03269Y03478D01*
X03273Y03478D01*
X03278Y03477D01*
Y03454D01*
X03273Y03454D01*
X03269Y03453D01*
X03266Y03453D01*
X03262Y03452D01*
X03260Y03451D01*
X03258Y03450D01*
X03256Y03448D01*
X03255Y03446D01*
X03254Y03444D01*
X03254Y03442D01*
Y03489D01*
X03254Y03487D01*
D02*
G37*
G36*
X03057Y03442D02*
X03057Y03444D01*
X03057Y03446D01*
X03055Y03448D01*
X03054Y03450D01*
X03052Y03451D01*
X03049Y03452D01*
X03046Y03453D01*
X03042Y03453D01*
X03038Y03454D01*
X03034Y03454D01*
Y03477D01*
X03038Y03478D01*
X03042Y03478D01*
X03046Y03479D01*
X03049Y03479D01*
X03052Y03480D01*
X03054Y03482D01*
X03055Y03483D01*
X03057Y03485D01*
X03057Y03487D01*
X03057Y03489D01*
Y03442D01*
D02*
G37*
G36*
X02959Y03487D02*
X02960Y03485D01*
X02961Y03483D01*
X02962Y03482D01*
X02965Y03480D01*
X02967Y03479D01*
X02970Y03479D01*
X02974Y03478D01*
X02978Y03478D01*
X02982Y03477D01*
Y03454D01*
X02978Y03454D01*
X02974Y03453D01*
X02970Y03453D01*
X02967Y03452D01*
X02965Y03451D01*
X02962Y03450D01*
X02961Y03448D01*
X02960Y03446D01*
X02959Y03444D01*
X02959Y03442D01*
Y03489D01*
X02959Y03487D01*
D02*
G37*
G36*
X03487Y02840D02*
X03487Y02836D01*
X03488Y02832D01*
X03489Y02829D01*
X03490Y02827D01*
X03491Y02825D01*
X03493Y02823D01*
X03494Y02822D01*
X03496Y02821D01*
X03499Y02821D01*
X03451D01*
X03454Y02821D01*
X03456Y02822D01*
X03457Y02823D01*
X03459Y02825D01*
X03460Y02827D01*
X03461Y02829D01*
X03462Y02832D01*
X03463Y02836D01*
X03463Y02840D01*
X03463Y02844D01*
X03487D01*
X03487Y02840D01*
D02*
G37*
G36*
X01721Y02345D02*
X01721Y02343D01*
X01723Y02341D01*
X01724Y02340D01*
X01726Y02339D01*
X01729Y02338D01*
X01732Y02337D01*
X01736Y02336D01*
X01740Y02336D01*
X01744Y02336D01*
Y02312D01*
X01740Y02312D01*
X01736Y02312D01*
X01732Y02311D01*
X01729Y02310D01*
X01726Y02309D01*
X01724Y02308D01*
X01723Y02306D01*
X01721Y02305D01*
X01721Y02303D01*
X01721Y02300D01*
Y02348D01*
X01721Y02345D01*
D02*
G37*
G36*
X03003Y02324D02*
X03000Y02321D01*
X02998Y02318D01*
X02996Y02315D01*
X02994Y02311D01*
X02993Y02308D01*
X02992Y02305D01*
X02991Y02301D01*
X02990Y02298D01*
X02990Y02294D01*
X02967D01*
X02967Y02298D01*
X02966Y02301D01*
X02965Y02305D01*
X02964Y02308D01*
X02963Y02311D01*
X02961Y02315D01*
X02959Y02318D01*
X02957Y02321D01*
X02954Y02324D01*
X02951Y02327D01*
X03006D01*
X03003Y02324D01*
D02*
G37*
G36*
X01664Y02283D02*
X01664Y02275D01*
X01665Y02272D01*
X01665Y02270D01*
X01666Y02268D01*
X01667Y02266D01*
X01669Y02265D01*
X01670Y02264D01*
X01671Y02264D01*
X01632D01*
X01634Y02264D01*
X01635Y02265D01*
X01636Y02266D01*
X01637Y02268D01*
X01638Y02270D01*
X01639Y02272D01*
X01639Y02275D01*
X01640Y02279D01*
X01640Y02287D01*
X01664D01*
X01664Y02283D01*
D02*
G37*
G36*
X02499Y02331D02*
X02499Y02327D01*
X02500Y02324D01*
X02500Y02320D01*
X02502Y02318D01*
X02503Y02316D01*
X02504Y02314D01*
X02506Y02313D01*
X02508Y02312D01*
X02510Y02312D01*
X02463D01*
X02465Y02312D01*
X02467Y02313D01*
X02469Y02314D01*
X02471Y02316D01*
X02472Y02318D01*
X02473Y02320D01*
X02474Y02324D01*
X02474Y02327D01*
X02475Y02331D01*
X02475Y02336D01*
X02499D01*
X02499Y02331D01*
D02*
G37*
G36*
X01888Y02379D02*
X01888Y02381D01*
X01887Y02383D01*
X01886Y02385D01*
X01884Y02387D01*
X01882Y02388D01*
X01880Y02389D01*
X01877Y02390D01*
X01873Y02390D01*
X01869Y02391D01*
X01864Y02391D01*
Y02414D01*
X01869Y02415D01*
X01873Y02415D01*
X01877Y02416D01*
X01880Y02416D01*
X01882Y02417D01*
X01884Y02419D01*
X01886Y02420D01*
X01887Y02422D01*
X01888Y02424D01*
X01888Y02426D01*
Y02379D01*
D02*
G37*
G36*
X01723Y02434D02*
X01724Y02430D01*
X01725Y02426D01*
X01726Y02423D01*
X01729Y02420D01*
X01731Y02418D01*
X01734Y02417D01*
X01738Y02415D01*
X01742Y02415D01*
X01746Y02414D01*
Y02391D01*
X01742Y02391D01*
X01738Y02390D01*
X01734Y02389D01*
X01731Y02387D01*
X01729Y02385D01*
X01726Y02382D01*
X01725Y02379D01*
X01724Y02376D01*
X01723Y02372D01*
X01723Y02367D01*
X01699D01*
X01699Y02372D01*
X01698Y02376D01*
X01697Y02379D01*
X01695Y02382D01*
X01693Y02385D01*
X01690Y02387D01*
X01687Y02389D01*
X01684Y02390D01*
X01680Y02391D01*
X01675Y02391D01*
Y02414D01*
X01680Y02415D01*
X01684Y02415D01*
X01687Y02417D01*
X01690Y02418D01*
X01693Y02420D01*
X01695Y02423D01*
X01697Y02426D01*
X01698Y02430D01*
X01699Y02434D01*
X01699Y02438D01*
X01723D01*
X01723Y02434D01*
D02*
G37*
G36*
X03387Y02386D02*
X03387Y02382D01*
X03388Y02378D01*
X03389Y02375D01*
X03390Y02372D01*
X03391Y02370D01*
X03393Y02369D01*
X03394Y02367D01*
X03396Y02367D01*
X03399Y02366D01*
X03351D01*
X03354Y02367D01*
X03356Y02367D01*
X03357Y02369D01*
X03359Y02370D01*
X03360Y02372D01*
X03361Y02375D01*
X03362Y02378D01*
X03363Y02382D01*
X03363Y02386D01*
X03363Y02390D01*
X03387D01*
X03387Y02386D01*
D02*
G37*
G36*
X01746Y02257D02*
X01747Y02255D01*
X01748Y02253D01*
X01750Y02251D01*
X01752Y02250D01*
X01755Y02249D01*
X01758Y02248D01*
X01761Y02248D01*
X01765Y02247D01*
X01770Y02247D01*
Y02224D01*
X01765Y02223D01*
X01761Y02223D01*
X01758Y02222D01*
X01755Y02222D01*
X01752Y02221D01*
X01750Y02219D01*
X01748Y02218D01*
X01747Y02216D01*
X01746Y02214D01*
X01746Y02212D01*
Y02259D01*
X01746Y02257D01*
D02*
G37*
G36*
X03288Y02225D02*
X03288Y02221D01*
X03289Y02217D01*
X03289Y02214D01*
X03291Y02212D01*
X03292Y02209D01*
X03293Y02208D01*
X03295Y02207D01*
X03297Y02206D01*
X03299Y02206D01*
X03252D01*
X03254Y02206D01*
X03256Y02207D01*
X03258Y02208D01*
X03260Y02209D01*
X03261Y02212D01*
X03262Y02214D01*
X03263Y02217D01*
X03263Y02221D01*
X03264Y02225D01*
X03264Y02229D01*
X03288D01*
X03288Y02225D01*
D02*
G37*
G36*
X02039Y02186D02*
X02040Y02182D01*
X02040Y02179D01*
X02041Y02176D01*
X02042Y02173D01*
X02043Y02171D01*
X02045Y02169D01*
X02047Y02168D01*
X02049Y02167D01*
X02051Y02167D01*
X02004D01*
X02006Y02167D01*
X02008Y02168D01*
X02010Y02169D01*
X02011Y02171D01*
X02012Y02173D01*
X02014Y02176D01*
X02014Y02179D01*
X02015Y02182D01*
X02015Y02186D01*
X02015Y02191D01*
X02039D01*
X02039Y02186D01*
D02*
G37*
G36*
X01800Y02212D02*
X01799Y02214D01*
X01799Y02216D01*
X01797Y02218D01*
X01796Y02219D01*
X01794Y02221D01*
X01791Y02222D01*
X01788Y02222D01*
X01784Y02223D01*
X01780Y02223D01*
X01776Y02224D01*
Y02247D01*
X01780Y02247D01*
X01784Y02248D01*
X01788Y02248D01*
X01791Y02249D01*
X01794Y02250D01*
X01796Y02251D01*
X01797Y02253D01*
X01799Y02255D01*
X01799Y02257D01*
X01800Y02259D01*
Y02212D01*
D02*
G37*
G36*
X03396Y02280D02*
X03394Y02279D01*
X03393Y02278D01*
X03391Y02276D01*
X03390Y02274D01*
X03389Y02271D01*
X03388Y02268D01*
X03387Y02265D01*
X03387Y02261D01*
X03387Y02256D01*
X03363D01*
X03363Y02261D01*
X03363Y02265D01*
X03362Y02268D01*
X03361Y02271D01*
X03360Y02274D01*
X03359Y02276D01*
X03357Y02278D01*
X03356Y02279D01*
X03354Y02280D01*
X03351Y02280D01*
X03399D01*
X03396Y02280D01*
D02*
G37*
G36*
X03297D02*
X03295Y02279D01*
X03293Y02278D01*
X03292Y02276D01*
X03291Y02274D01*
X03289Y02271D01*
X03289Y02268D01*
X03288Y02265D01*
X03288Y02261D01*
X03288Y02256D01*
X03264D01*
X03264Y02261D01*
X03263Y02265D01*
X03263Y02268D01*
X03262Y02271D01*
X03261Y02274D01*
X03260Y02276D01*
X03258Y02278D01*
X03256Y02279D01*
X03254Y02280D01*
X03252Y02280D01*
X03299D01*
X03297Y02280D01*
D02*
G37*
G36*
X02051Y02250D02*
X02048Y02246D01*
X02046Y02243D01*
X02044Y02240D01*
X02043Y02236D01*
X02041Y02233D01*
X02040Y02229D01*
X02040Y02226D01*
X02039Y02222D01*
X02039Y02219D01*
X02015Y02217D01*
X02015Y02221D01*
X02015Y02224D01*
X02014Y02227D01*
X02013Y02231D01*
X02011Y02234D01*
X02009Y02237D01*
X02007Y02240D01*
X02005Y02243D01*
X02002Y02246D01*
X01999Y02249D01*
X02054Y02253D01*
X02051Y02250D01*
D02*
G37*
G36*
X02351Y02610D02*
X02350Y02609D01*
X02348Y02608D01*
X02347Y02607D01*
X02347Y02605D01*
X02346Y02602D01*
X02345Y02599D01*
X02345Y02595D01*
X02345Y02587D01*
X02321D01*
X02321Y02591D01*
X02320Y02599D01*
X02320Y02602D01*
X02319Y02605D01*
X02318Y02607D01*
X02317Y02608D01*
X02316Y02609D01*
X02315Y02610D01*
X02313Y02610D01*
X02352D01*
X02351Y02610D01*
D02*
G37*
G36*
X02722Y02529D02*
X02718Y02528D01*
X02714Y02528D01*
X02710Y02526D01*
X02707Y02525D01*
X02704Y02523D01*
X02702Y02520D01*
X02701Y02517D01*
X02700Y02515D01*
X02700Y02514D01*
X02702Y02510D01*
X02703Y02508D01*
X02704Y02506D01*
X02706Y02504D01*
X02708Y02503D01*
X02710Y02503D01*
X02663D01*
X02665Y02503D01*
X02667Y02504D01*
X02669Y02506D01*
X02671Y02508D01*
X02672Y02510D01*
X02673Y02514D01*
X02673Y02515D01*
X02673Y02517D01*
X02671Y02520D01*
X02669Y02523D01*
X02666Y02525D01*
X02663Y02526D01*
X02660Y02528D01*
X02656Y02528D01*
X02651Y02529D01*
X02687Y02552D01*
X02722Y02529D01*
D02*
G37*
G36*
X02650Y02438D02*
X02650Y02440D01*
X02649Y02442D01*
X02648Y02444D01*
X02646Y02446D01*
X02644Y02447D01*
X02641Y02448D01*
X02637Y02449D01*
X02637Y02449D01*
X02636Y02449D01*
X02633Y02448D01*
X02630Y02447D01*
X02628Y02446D01*
X02626Y02444D01*
X02625Y02442D01*
X02624Y02440D01*
X02623Y02438D01*
Y02485D01*
X02624Y02483D01*
X02625Y02481D01*
X02626Y02479D01*
X02628Y02478D01*
X02630Y02476D01*
X02633Y02475D01*
X02636Y02475D01*
X02637Y02474D01*
X02637Y02475D01*
X02641Y02475D01*
X02644Y02476D01*
X02646Y02478D01*
X02648Y02479D01*
X02649Y02481D01*
X02650Y02483D01*
X02650Y02485D01*
Y02438D01*
D02*
G37*
G36*
X06410Y02627D02*
X06410Y02621D01*
X06411Y02612D01*
X06411Y02608D01*
X06413Y02605D01*
X06414Y02602D01*
X06415Y02600D01*
X06417Y02598D01*
X06419Y02597D01*
X06421Y02597D01*
X06374Y02598D01*
X06376Y02598D01*
X06378Y02599D01*
X06380Y02600D01*
X06382Y02602D01*
X06383Y02605D01*
X06384Y02608D01*
X06385Y02612D01*
X06386Y02617D01*
X06386Y02622D01*
X06386Y02627D01*
X06410Y02627D01*
D02*
G37*
G36*
X03150Y02754D02*
X03149Y02756D01*
X03149Y02758D01*
X03147Y02760D01*
X03146Y02761D01*
X03144Y02763D01*
X03141Y02764D01*
X03138Y02765D01*
X03134Y02765D01*
X03130Y02766D01*
X03126Y02766D01*
Y02789D01*
X03130Y02789D01*
X03134Y02790D01*
X03138Y02790D01*
X03141Y02791D01*
X03144Y02792D01*
X03146Y02794D01*
X03147Y02795D01*
X03149Y02797D01*
X03149Y02799D01*
X03150Y02801D01*
Y02754D01*
D02*
G37*
G36*
X02427Y02664D02*
X02428Y02662D01*
X02429Y02660D01*
X02431Y02659D01*
X02433Y02658D01*
X02436Y02656D01*
X02439Y02656D01*
X02442Y02655D01*
X02446Y02655D01*
X02451Y02655D01*
Y02631D01*
X02446Y02631D01*
X02442Y02631D01*
X02439Y02630D01*
X02436Y02629D01*
X02433Y02628D01*
X02431Y02627D01*
X02429Y02625D01*
X02428Y02623D01*
X02427Y02621D01*
X02427Y02619D01*
Y02666D01*
X02427Y02664D01*
D02*
G37*
G36*
X01341Y02618D02*
X01341Y02614D01*
X01342Y02611D01*
X01343Y02608D01*
X01344Y02605D01*
X01345Y02603D01*
X01346Y02601D01*
X01348Y02600D01*
X01350Y02599D01*
X01353Y02599D01*
X01305D01*
X01308Y02599D01*
X01310Y02600D01*
X01311Y02601D01*
X01313Y02603D01*
X01314Y02605D01*
X01315Y02608D01*
X01316Y02611D01*
X01317Y02614D01*
X01317Y02618D01*
X01317Y02623D01*
X01341D01*
X01341Y02618D01*
D02*
G37*
G36*
X02708Y02420D02*
X02706Y02419D01*
X02704Y02418D01*
X02703Y02416D01*
X02702Y02413D01*
X02700Y02410D01*
X02700Y02406D01*
X02699Y02402D01*
X02699Y02396D01*
X02699Y02391D01*
X02675D01*
X02675Y02396D01*
X02674Y02406D01*
X02673Y02410D01*
X02672Y02413D01*
X02671Y02416D01*
X02669Y02418D01*
X02667Y02419D01*
X02665Y02420D01*
X02663Y02421D01*
X02710D01*
X02708Y02420D01*
D02*
G37*
G36*
X02508D02*
X02506Y02419D01*
X02504Y02418D01*
X02503Y02416D01*
X02502Y02413D01*
X02500Y02410D01*
X02500Y02406D01*
X02499Y02402D01*
X02499Y02396D01*
X02499Y02391D01*
X02475D01*
X02475Y02396D01*
X02474Y02406D01*
X02473Y02410D01*
X02472Y02413D01*
X02471Y02416D01*
X02469Y02418D01*
X02467Y02419D01*
X02465Y02420D01*
X02463Y02421D01*
X02510D01*
X02508Y02420D01*
D02*
G37*
G36*
X01967Y02424D02*
X01968Y02422D01*
X01969Y02420D01*
X01970Y02419D01*
X01972Y02417D01*
X01975Y02416D01*
X01978Y02416D01*
X01982Y02415D01*
X01986Y02415D01*
X01990Y02414D01*
Y02391D01*
X01986Y02391D01*
X01982Y02390D01*
X01978Y02390D01*
X01975Y02389D01*
X01972Y02388D01*
X01970Y02387D01*
X01969Y02385D01*
X01968Y02383D01*
X01967Y02381D01*
X01967Y02379D01*
Y02426D01*
X01967Y02424D01*
D02*
G37*
G36*
X01978Y02463D02*
X01976Y02462D01*
X01974Y02461D01*
X01973Y02459D01*
X01972Y02457D01*
X01971Y02454D01*
X01970Y02451D01*
X01969Y02448D01*
X01969Y02444D01*
X01969Y02439D01*
X01945D01*
X01945Y02444D01*
X01944Y02462D01*
X01944Y02463D01*
X01943Y02463D01*
X01980Y02463D01*
X01978Y02463D01*
D02*
G37*
G36*
X01868Y02468D02*
X01868Y02470D01*
X01867Y02472D01*
X01866Y02474D01*
X01865Y02475D01*
X01862Y02476D01*
X01860Y02478D01*
X01857Y02478D01*
X01853Y02479D01*
X01849Y02479D01*
X01845Y02479D01*
Y02503D01*
X01849Y02503D01*
X01853Y02504D01*
X01857Y02504D01*
X01860Y02505D01*
X01862Y02506D01*
X01865Y02507D01*
X01866Y02509D01*
X01867Y02511D01*
X01868Y02513D01*
X01868Y02515D01*
Y02468D01*
D02*
G37*
G36*
X01780Y02513D02*
X01780Y02511D01*
X01782Y02509D01*
X01783Y02507D01*
X01785Y02506D01*
X01788Y02505D01*
X01791Y02504D01*
X01795Y02504D01*
X01799Y02503D01*
X01803Y02503D01*
Y02479D01*
X01799Y02479D01*
X01795Y02479D01*
X01791Y02478D01*
X01788Y02478D01*
X01785Y02476D01*
X01783Y02475D01*
X01782Y02474D01*
X01780Y02472D01*
X01780Y02470D01*
X01779Y02468D01*
Y02515D01*
X01780Y02513D01*
D02*
G37*
G36*
X01350Y02485D02*
X01348Y02484D01*
X01346Y02483D01*
X01345Y02482D01*
X01344Y02480D01*
X01343Y02477D01*
X01342Y02474D01*
X01341Y02470D01*
X01341Y02466D01*
X01341Y02462D01*
X01317D01*
X01317Y02466D01*
X01317Y02470D01*
X01316Y02474D01*
X01315Y02477D01*
X01314Y02480D01*
X01313Y02482D01*
X01311Y02483D01*
X01310Y02484D01*
X01308Y02485D01*
X01305Y02485D01*
X01353D01*
X01350Y02485D01*
D02*
G37*
G54D10*
X06473Y03328D02*
D03*
X06398D02*
D03*
X06683D02*
D03*
X06608D02*
D03*
X03341Y03889D02*
D03*
X03266D02*
D03*
X01888Y02491D02*
D03*
X01963D02*
D03*
X01652Y02235D02*
D03*
X01727D02*
D03*
X01729Y02107D02*
D03*
X01654D02*
D03*
X01788Y01861D02*
D03*
X01713D02*
D03*
X03429Y03466D02*
D03*
X03354D02*
D03*
X03429Y03190D02*
D03*
X03354D02*
D03*
X02333Y02639D02*
D03*
X02408D02*
D03*
X02457Y01851D02*
D03*
X02382D02*
D03*
G54D11*
X03146Y03889D02*
D03*
X03087D02*
D03*
X01770Y02491D02*
D03*
X01711D02*
D03*
X01652Y02324D02*
D03*
X01711Y02324D02*
D03*
X01524Y01940D02*
D03*
X01465D02*
D03*
X01711D02*
D03*
X01770D02*
D03*
X01711Y01753D02*
D03*
X01770D02*
D03*
X01809Y02235D02*
D03*
X01868D02*
D03*
X02890Y03466D02*
D03*
X02949D02*
D03*
X01898Y02403D02*
D03*
X01957D02*
D03*
X02390Y02157D02*
D03*
X02331D02*
D03*
G54D12*
X02664Y04086D02*
D03*
Y04027D02*
D03*
X02685Y02058D02*
D03*
Y02117D02*
D03*
X04730Y04145D02*
D03*
Y04204D02*
D03*
X02321Y01694D02*
D03*
Y01753D02*
D03*
X03276Y02137D02*
D03*
Y02196D02*
D03*
X02410Y01694D02*
D03*
Y01753D02*
D03*
G54D13*
X05791Y03800D02*
D03*
X06032D02*
D03*
G54D14*
X05085Y04013D02*
D03*
Y04355D02*
D03*
X05597Y04009D02*
D03*
Y04351D02*
D03*
X01837Y03885D02*
D03*
Y04227D02*
D03*
X02349Y03885D02*
D03*
Y04227D02*
D03*
G54D15*
X01622Y01938D02*
D03*
Y01863D02*
D03*
X02557Y01851D02*
D03*
Y01777D02*
D03*
X02488Y02133D02*
D03*
Y02058D02*
D03*
Y02292D02*
D03*
Y02218D02*
D03*
X01329Y02505D02*
D03*
Y02580D02*
D03*
G54D16*
X03378Y01911D02*
D03*
Y02029D02*
D03*
X03059Y01911D02*
D03*
Y02029D02*
D03*
G54D17*
X03374Y01970D02*
D03*
X03055D02*
D03*
G54D18*
X03266D02*
D03*
X02947D02*
D03*
G54D19*
X03175Y02323D02*
D03*
X03275D02*
D03*
X03375D02*
D03*
X03475D02*
D03*
Y02777D02*
D03*
X03375D02*
D03*
X03275D02*
D03*
X03175D02*
D03*
G54D20*
X03433Y03338D02*
D03*
X03331D02*
D03*
G54D21*
X03225Y03190D02*
D03*
X03077D02*
D03*
X03082Y03338D02*
D03*
X03229D02*
D03*
Y03466D02*
D03*
X03082D02*
D03*
G54D22*
X02241Y02154D02*
D03*
Y02104D02*
D03*
Y02054D02*
D03*
Y02004D02*
D03*
Y01954D02*
D03*
Y01904D02*
D03*
Y01854D02*
D03*
Y01804D02*
D03*
X02027D02*
D03*
Y01854D02*
D03*
Y01904D02*
D03*
Y01954D02*
D03*
Y02004D02*
D03*
Y02054D02*
D03*
Y02104D02*
D03*
Y02154D02*
D03*
G54D23*
X06473Y03176D02*
Y03328D01*
Y03176D02*
X06478Y03171D01*
X01425Y01940D02*
X01465D01*
X01416Y01950D02*
X01425Y01940D01*
X02027Y02154D02*
Y02276D01*
X02024Y02279D02*
X02027Y02276D01*
X03520Y04355D02*
Y04362D01*
Y04253D02*
Y04355D01*
X06397Y02556D02*
X06398Y02557D01*
Y03328D01*
X06473D02*
X06608D01*
X03599Y02643D02*
X04412Y03456D01*
X02890Y02861D02*
X02974Y02777D01*
X03175D01*
X03353Y02970D02*
Y03101D01*
Y02970D02*
X03475Y02848D01*
X01329Y01958D02*
Y02505D01*
X03375Y02323D02*
Y02402D01*
X01423Y01863D02*
X01622D01*
X01416Y01950D02*
Y02025D01*
X01404D02*
X01416D01*
X01392Y02013D02*
X01404Y02025D01*
X01510Y02111D02*
Y02162D01*
Y02111D02*
X01514Y02107D01*
X02738Y02004D02*
X02782Y02048D01*
X02241Y02004D02*
X02738D01*
X02241Y01954D02*
X02932D01*
X02947Y01970D01*
X02979Y02001D01*
Y02355D01*
X02241Y02054D02*
X02485D01*
X02241Y02104D02*
X02416D01*
X02157D02*
X02241D01*
Y01854D02*
X02379D01*
X02241Y02154D02*
X02329D01*
X02024Y02107D02*
X02027Y02104D01*
X01788Y01861D02*
X01791Y01865D01*
X01711Y01863D02*
Y01940D01*
X01711Y01863D02*
X01711Y01863D01*
X01849Y01802D02*
X01901Y01854D01*
X02027D01*
X01727Y02235D02*
X01809D01*
X01809Y02235D01*
X01583Y02107D02*
X01654D01*
X01583Y02107D02*
X01583Y02107D01*
X01652Y02196D02*
Y02235D01*
Y02196D02*
X01671Y02176D01*
X01701D01*
X01729Y02149D01*
Y02107D02*
Y02149D01*
Y02107D02*
X02024D01*
X01652Y02235D02*
Y02324D01*
X01652Y02235D02*
X01652Y02235D01*
X01711Y02324D02*
X01849D01*
X01868Y02304D01*
Y02235D02*
Y02304D01*
X02241Y02004D02*
Y02054D01*
Y01804D02*
Y01854D01*
Y01904D02*
Y01954D01*
X03275Y02323D02*
X03276Y02322D01*
X03378Y01911D02*
X03384Y01905D01*
X03364Y01851D02*
X03384Y01871D01*
Y01905D01*
X03059Y01851D02*
Y01911D01*
X03079Y01851D02*
X03364D01*
X03354Y02098D02*
X03378Y02074D01*
Y02029D02*
Y02074D01*
X03059Y02029D02*
Y02068D01*
X03089Y02098D01*
X03276D02*
Y02137D01*
X03089Y02098D02*
X03276D01*
X03354D01*
X02949Y03466D02*
X03082D01*
X03082Y03466D01*
Y03338D02*
Y03466D01*
X03077Y03333D02*
X03082Y03338D01*
X03077Y03190D02*
Y03333D01*
X03229Y03466D02*
X03354D01*
X03229Y03338D02*
X03331D01*
X03225Y03190D02*
X03354D01*
X03429Y03342D02*
Y03466D01*
Y03342D02*
X03433Y03338D01*
Y03194D02*
Y03338D01*
X03429Y03190D02*
X03433Y03194D01*
X03354Y03103D02*
Y03190D01*
X03353Y03101D02*
X03354Y03103D01*
X03475Y02777D02*
Y02848D01*
X02890Y02861D02*
Y03466D01*
X03276Y02196D02*
Y02322D01*
X02379Y01854D02*
X02382Y01851D01*
X02457D02*
X02557D01*
X03079D02*
X03079Y01851D01*
X02557Y01851D02*
X03059D01*
X03079D01*
X02410Y01694D02*
X02528D01*
X02557Y01724D01*
Y01777D01*
X03447D02*
X03482Y01812D01*
Y01970D01*
X03374D02*
X03482D01*
X02321Y01753D02*
X02410D01*
X01833Y01954D02*
X02027D01*
Y01764D02*
Y01804D01*
X01622Y01863D02*
X01711D01*
X01770Y02491D02*
X01888D01*
X01711Y02403D02*
X01898D01*
X01711Y02324D02*
Y02403D01*
Y02491D01*
X01957Y02403D02*
Y02485D01*
X01963Y02491D01*
X02488Y02058D02*
X02685D01*
X02485Y02054D02*
X02488Y02058D01*
X02445Y02133D02*
X02488D01*
X02329Y02154D02*
X02331Y02157D01*
X02416Y02104D02*
X02445Y02133D01*
X02685Y02117D02*
Y02235D01*
X01514Y02107D02*
X01583D01*
X02134Y02127D02*
X02157Y02104D01*
X01957Y02403D02*
X02085D01*
X02134Y02353D01*
Y02127D02*
Y02353D01*
X03482Y01970D02*
Y02098D01*
X02557Y01777D02*
X03447D01*
X02488Y02133D02*
Y02218D01*
X02487Y02294D02*
Y02462D01*
Y02294D02*
X02488Y02292D01*
X02587Y02462D02*
X02687D01*
Y02237D02*
Y02462D01*
X02685Y02235D02*
X02687Y02237D01*
X02333Y02159D02*
Y02639D01*
X02331Y02157D02*
X02333Y02159D01*
X01425Y02117D02*
Y02344D01*
X01484Y02403D01*
X01711D01*
X01524Y01940D02*
X01620D01*
X01622Y01938D01*
X02026Y01763D02*
X02027Y01764D01*
X01770Y01753D02*
X02321D01*
X01711D02*
X01713Y01755D01*
Y01802D02*
X01849D01*
X01713Y01755D02*
Y01802D01*
Y01861D01*
X01819Y01940D02*
X01833Y01954D01*
X01770Y01940D02*
X01819D01*
X01892Y01904D02*
X02027D01*
X01849Y01861D02*
X01892Y01904D01*
X01788Y01861D02*
X01849D01*
X02321Y01694D02*
X02410D01*
X01711Y01694D02*
X01740Y01664D01*
X01711Y01694D02*
Y01753D01*
X01740Y01664D02*
X02232D01*
X02262Y01694D01*
X02321D01*
X02027Y01804D02*
X02107D01*
X02134Y01832D01*
Y01871D01*
X02167Y01904D01*
X02241D01*
X03236Y02540D02*
X03375Y02402D01*
X02390Y02491D02*
X02439Y02540D01*
X02390Y02157D02*
Y02491D01*
X02687Y02462D02*
Y02540D01*
X02439D02*
X02687D01*
X03236D01*
X03429Y03466D02*
X03494D01*
X03494Y03466D01*
X02408Y02643D02*
X03599D01*
X03175Y02777D02*
X03177Y02780D01*
X03375Y02205D02*
Y02323D01*
Y02205D02*
X03482Y02098D01*
X01622Y01938D02*
Y01979D01*
X01647Y02004D02*
X02027D01*
X01622Y01979D02*
X01647Y02004D01*
X01425Y02117D02*
X01488Y02054D01*
X02027D01*
X01329Y01958D02*
X01423Y01863D01*
X04412Y03456D02*
X06049D01*
X06108Y03515D01*
Y03613D01*
X06650Y04312D02*
X06683Y04279D01*
X06571Y04312D02*
X06650D01*
X06683Y03332D02*
Y04279D01*
X01329Y02580D02*
Y03596D01*
G54D24*
X03330Y04362D02*
X03520D01*
X03726Y03889D02*
X03727D01*
X03362D02*
X03726D01*
X03615Y03619D02*
Y03733D01*
X03185Y03889D02*
X03234D01*
X04396Y04351D02*
Y04352D01*
X03723Y04355D02*
X03726Y04351D01*
X03520Y04355D02*
X03723D01*
X03835Y03633D02*
Y03749D01*
G54D25*
X03323Y04245D02*
X03338D01*
X02647D02*
X03323D01*
X03726Y03889D02*
Y04351D01*
Y03722D02*
Y03889D01*
G54D26*
X03672Y03844D02*
D03*
G54D27*
X03562Y03671D02*
D03*
G54D28*
X03661Y04291D02*
D03*
G54D29*
X06122Y03561D02*
D03*
G54D30*
X01367Y03588D02*
D03*
G54D31*
X01298Y03583D02*
D03*
G54D32*
X03780Y03844D02*
D03*
G54D33*
X03099Y03769D02*
D03*
X03830Y03638D02*
D03*
G54D34*
X03939Y03661D02*
D03*
G54D35*
X03845Y03624D02*
D03*
G54D36*
X03654Y03648D02*
D03*
G54D37*
X02776Y04312D02*
D03*
G54D38*
X02778Y04192D02*
D03*
G54D39*
X06553Y04358D02*
D03*
G54D40*
X06384Y04076D02*
D03*
X06187D02*
D03*
X06384Y03800D02*
D03*
X06187D02*
D03*
X06384Y04548D02*
D03*
X06187D02*
D03*
X06384Y04273D02*
D03*
X06187D02*
D03*
X01423Y04470D02*
D03*
X01227D02*
D03*
X01423Y04194D02*
D03*
X01227D02*
D03*
X01423Y03918D02*
D03*
X01227D02*
D03*
X01423Y03643D02*
D03*
X01227D02*
D03*
G54D41*
X06397Y02556D02*
D03*
X06297D02*
D03*
X06197D02*
D03*
X02487Y02462D02*
D03*
X02587D02*
D03*
X02687D02*
D03*
G54D42*
X01207Y04745D02*
D03*
Y01202D02*
D03*
X06719Y04745D02*
D03*
Y01202D02*
D03*
G54D43*
X03727Y04351D02*
D03*
X04396D02*
D03*
G54D44*
X03323Y04345D02*
D03*
Y04245D02*
D03*
G54D45*
Y04145D02*
D03*
G54D46*
X03626Y03741D02*
D03*
G54D47*
X03727D02*
D03*
X03825D02*
D03*
G54D48*
X04022Y02354D02*
D03*
G54D49*
Y02454D02*
D03*
Y02554D02*
D03*
Y02654D02*
D03*
G54D50*
X06478Y03171D02*
D03*
X02024Y02279D02*
D03*
X01416Y02025D02*
D03*
X01510Y02162D02*
D03*
X02782Y02048D02*
D03*
X02979Y02355D02*
D03*
X03353Y03101D02*
D03*
X03494Y03466D02*
D03*
M02*
