G04 Layer_Color=8388736*
%FSAX23Y23*%
%MOIN*%
G70*
G01*
G75*
%ADD54R,0.065X0.047*%
%ADD55R,0.047X0.065*%
%ADD56R,0.028X0.057*%
%ADD57R,0.068X0.034*%
%ADD58R,0.057X0.028*%
%ADD59R,0.057X0.087*%
%ADD60R,0.028X0.071*%
%ADD61R,0.059X0.095*%
%ADD62R,0.158X0.106*%
%ADD63R,0.067X0.047*%
%ADD64R,0.075X0.047*%
%ADD65R,0.087X0.169*%
%ADD66R,0.049X0.144*%
%ADD67C,0.056*%
%ADD68C,0.067*%
%ADD69R,0.067X0.067*%
%ADD70C,0.086*%
%ADD71R,0.086X0.086*%
%ADD72C,0.185*%
%ADD73R,0.082X0.082*%
%ADD74C,0.082*%
%ADD75C,0.165*%
%ADD76C,0.120*%
%ADD77C,0.058*%
G54D54*
X01110Y02781D02*
D03*
Y02706D02*
D03*
X02232Y02411D02*
D03*
Y02485D02*
D03*
Y02251D02*
D03*
Y02326D02*
D03*
X02301Y01970D02*
D03*
Y02044D02*
D03*
X01366Y02056D02*
D03*
Y02131D02*
D03*
X06683Y03257D02*
D03*
Y03332D02*
D03*
G54D55*
X02126Y02044D02*
D03*
X02201D02*
D03*
X02152Y02832D02*
D03*
X02077D02*
D03*
X03354Y03190D02*
D03*
X03429D02*
D03*
X03354Y03466D02*
D03*
X03429D02*
D03*
X01457Y02054D02*
D03*
X01532D02*
D03*
X01398Y02300D02*
D03*
X01473D02*
D03*
X01471Y02428D02*
D03*
X01396D02*
D03*
X01707Y02684D02*
D03*
X01632D02*
D03*
X03266Y03889D02*
D03*
X03341D02*
D03*
X06606Y03052D02*
D03*
X06681D02*
D03*
G54D56*
X02075Y02349D02*
D03*
X02134D02*
D03*
X01701Y02596D02*
D03*
X01642D02*
D03*
X02949Y03466D02*
D03*
X02890D02*
D03*
X01612Y02428D02*
D03*
X01553D02*
D03*
X01514Y01946D02*
D03*
X01455D02*
D03*
X01514Y02133D02*
D03*
X01455D02*
D03*
X01209D02*
D03*
X01268D02*
D03*
X01455Y02517D02*
D03*
X01396Y02517D02*
D03*
X01455Y02684D02*
D03*
X01514D02*
D03*
X03087Y03889D02*
D03*
X03146D02*
D03*
G54D57*
X01771Y02347D02*
D03*
Y02297D02*
D03*
Y02247D02*
D03*
Y02197D02*
D03*
Y02147D02*
D03*
Y02097D02*
D03*
Y02047D02*
D03*
Y01997D02*
D03*
X01985D02*
D03*
Y02047D02*
D03*
Y02097D02*
D03*
Y02147D02*
D03*
Y02197D02*
D03*
Y02247D02*
D03*
Y02297D02*
D03*
Y02347D02*
D03*
G54D58*
X02154Y01946D02*
D03*
Y01887D02*
D03*
X03020Y02389D02*
D03*
Y02330D02*
D03*
X02065Y01946D02*
D03*
Y01887D02*
D03*
X04730Y04204D02*
D03*
Y04145D02*
D03*
X02429Y02310D02*
D03*
Y02251D02*
D03*
X02664Y04027D02*
D03*
Y04086D02*
D03*
G54D59*
X03082Y03466D02*
D03*
X03229D02*
D03*
Y03338D02*
D03*
X03082D02*
D03*
X03077Y03190D02*
D03*
X03225D02*
D03*
G54D60*
X03331Y03338D02*
D03*
X03433D02*
D03*
G54D61*
X02919Y02970D02*
D03*
X03019D02*
D03*
X03119D02*
D03*
X03219D02*
D03*
Y02516D02*
D03*
X03119D02*
D03*
X03019D02*
D03*
X02919D02*
D03*
G54D62*
X02691Y02162D02*
D03*
X03010D02*
D03*
G54D63*
X02803Y02222D02*
D03*
Y02103D02*
D03*
X03122Y02222D02*
D03*
Y02103D02*
D03*
G54D64*
X02799Y02162D02*
D03*
X03118D02*
D03*
G54D65*
X02349Y04227D02*
D03*
Y03885D02*
D03*
X01837Y04227D02*
D03*
Y03885D02*
D03*
X05597Y04351D02*
D03*
Y04009D02*
D03*
X05085Y04355D02*
D03*
Y04013D02*
D03*
G54D66*
X06032Y03800D02*
D03*
X05791D02*
D03*
G54D67*
X02431Y02655D02*
D03*
X02331D02*
D03*
X02231D02*
D03*
X06003Y03052D02*
D03*
X06103D02*
D03*
X06203D02*
D03*
G54D68*
X03766Y02847D02*
D03*
Y02747D02*
D03*
Y02647D02*
D03*
G54D69*
Y02547D02*
D03*
G54D70*
X03825Y03741D02*
D03*
X03727D02*
D03*
G54D71*
X03626D02*
D03*
G54D72*
X06719Y01202D02*
D03*
Y04745D02*
D03*
X01207Y01202D02*
D03*
Y04745D02*
D03*
G54D73*
X03323Y04145D02*
D03*
G54D74*
Y04245D02*
D03*
Y04345D02*
D03*
G54D75*
X04396Y04351D02*
D03*
X03727D02*
D03*
G54D76*
X01227Y03643D02*
D03*
X01423D02*
D03*
X01227Y03918D02*
D03*
X01423D02*
D03*
X01227Y04194D02*
D03*
X01423D02*
D03*
X01227Y04470D02*
D03*
X01423D02*
D03*
X06187Y04273D02*
D03*
X06384D02*
D03*
X06187Y04548D02*
D03*
X06384D02*
D03*
X06187Y03800D02*
D03*
X06384D02*
D03*
X06187Y04076D02*
D03*
X06384D02*
D03*
G54D77*
X06349Y02805D02*
D03*
X02514Y02210D02*
D03*
X03494Y03466D02*
D03*
X01258Y02300D02*
D03*
X01209Y02192D02*
D03*
X02070Y02197D02*
D03*
X01770Y02428D02*
D03*
X03353Y03101D02*
D03*
M02*
