G04 Layer_Physical_Order=1*
G04 Layer_Color=255*
%FSAX23Y23*%
%MOIN*%
G70*
G01*
G75*
%ADD10R,0.057X0.039*%
%ADD11R,0.039X0.057*%
%ADD12R,0.020X0.049*%
%ADD13R,0.060X0.026*%
%ADD14R,0.049X0.020*%
%ADD15R,0.049X0.079*%
%ADD16R,0.020X0.063*%
%ADD17R,0.051X0.087*%
%ADD18R,0.150X0.098*%
%ADD19R,0.059X0.039*%
%ADD20R,0.067X0.039*%
%ADD21R,0.079X0.161*%
%ADD22R,0.041X0.136*%
%ADD23C,0.024*%
%ADD24C,0.098*%
G04:AMPARAMS|DCode=25|XSize=126mil|YSize=15mil|CornerRadius=0mil|HoleSize=0mil|Usage=FLASHONLY|Rotation=315.000|XOffset=0mil|YOffset=0mil|HoleType=Round|Shape=Rectangle|*
%AMROTATEDRECTD25*
4,1,4,-0.050,0.039,-0.039,0.050,0.050,-0.039,0.039,-0.050,-0.050,0.039,0.0*
%
%ADD25ROTATEDRECTD25*%

G04:AMPARAMS|DCode=26|XSize=126mil|YSize=31mil|CornerRadius=0mil|HoleSize=0mil|Usage=FLASHONLY|Rotation=225.000|XOffset=0mil|YOffset=0mil|HoleType=Round|Shape=Rectangle|*
%AMROTATEDRECTD26*
4,1,4,0.033,0.056,0.056,0.033,-0.033,-0.056,-0.056,-0.033,0.033,0.056,0.0*
%
%ADD26ROTATEDRECTD26*%

G04:AMPARAMS|DCode=27|XSize=126mil|YSize=31mil|CornerRadius=0mil|HoleSize=0mil|Usage=FLASHONLY|Rotation=135.000|XOffset=0mil|YOffset=0mil|HoleType=Round|Shape=Rectangle|*
%AMROTATEDRECTD27*
4,1,4,0.056,-0.033,0.033,-0.056,-0.056,0.033,-0.033,0.056,0.056,-0.033,0.0*
%
%ADD27ROTATEDRECTD27*%

G04:AMPARAMS|DCode=28|XSize=78mil|YSize=69mil|CornerRadius=0mil|HoleSize=0mil|Usage=FLASHONLY|Rotation=225.000|XOffset=0mil|YOffset=0mil|HoleType=Round|Shape=Rectangle|*
%AMROTATEDRECTD28*
4,1,4,0.003,0.052,0.052,0.003,-0.003,-0.052,-0.052,-0.003,0.003,0.052,0.0*
%
%ADD28ROTATEDRECTD28*%

G04:AMPARAMS|DCode=29|XSize=148mil|YSize=69mil|CornerRadius=0mil|HoleSize=0mil|Usage=FLASHONLY|Rotation=135.000|XOffset=0mil|YOffset=0mil|HoleType=Round|Shape=Rectangle|*
%AMROTATEDRECTD29*
4,1,4,0.077,-0.028,0.028,-0.077,-0.077,0.028,-0.028,0.077,0.077,-0.028,0.0*
%
%ADD29ROTATEDRECTD29*%

G04:AMPARAMS|DCode=30|XSize=35mil|YSize=132mil|CornerRadius=0mil|HoleSize=0mil|Usage=FLASHONLY|Rotation=135.000|XOffset=0mil|YOffset=0mil|HoleType=Round|Shape=Rectangle|*
%AMROTATEDRECTD30*
4,1,4,0.059,0.034,-0.034,-0.059,-0.059,-0.034,0.034,0.059,0.059,0.034,0.0*
%
%ADD30ROTATEDRECTD30*%

G04:AMPARAMS|DCode=31|XSize=42mil|YSize=42mil|CornerRadius=0mil|HoleSize=0mil|Usage=FLASHONLY|Rotation=45.000|XOffset=0mil|YOffset=0mil|HoleType=Round|Shape=Rectangle|*
%AMROTATEDRECTD31*
4,1,4,0.000,-0.030,-0.030,0.000,0.000,0.030,0.030,0.000,0.000,-0.030,0.0*
%
%ADD31ROTATEDRECTD31*%

G04:AMPARAMS|DCode=32|XSize=90mil|YSize=21mil|CornerRadius=0mil|HoleSize=0mil|Usage=FLASHONLY|Rotation=45.000|XOffset=0mil|YOffset=0mil|HoleType=Round|Shape=Rectangle|*
%AMROTATEDRECTD32*
4,1,4,-0.025,-0.039,-0.039,-0.025,0.025,0.039,0.039,0.025,-0.025,-0.039,0.0*
%
%ADD32ROTATEDRECTD32*%

G04:AMPARAMS|DCode=33|XSize=10mil|YSize=98mil|CornerRadius=0mil|HoleSize=0mil|Usage=FLASHONLY|Rotation=45.000|XOffset=0mil|YOffset=0mil|HoleType=Round|Shape=Rectangle|*
%AMROTATEDRECTD33*
4,1,4,0.031,-0.038,-0.038,0.031,-0.031,0.038,0.038,-0.031,0.031,-0.038,0.0*
%
%ADD33ROTATEDRECTD33*%

G04:AMPARAMS|DCode=34|XSize=10mil|YSize=98mil|CornerRadius=0mil|HoleSize=0mil|Usage=FLASHONLY|Rotation=135.000|XOffset=0mil|YOffset=0mil|HoleType=Round|Shape=Rectangle|*
%AMROTATEDRECTD34*
4,1,4,0.038,0.031,-0.031,-0.038,-0.038,-0.031,0.031,0.038,0.038,0.031,0.0*
%
%ADD34ROTATEDRECTD34*%

G04:AMPARAMS|DCode=35|XSize=10mil|YSize=30mil|CornerRadius=0mil|HoleSize=0mil|Usage=FLASHONLY|Rotation=135.000|XOffset=0mil|YOffset=0mil|HoleType=Round|Shape=Rectangle|*
%AMROTATEDRECTD35*
4,1,4,0.014,0.007,-0.007,-0.014,-0.014,-0.007,0.007,0.014,0.014,0.007,0.0*
%
%ADD35ROTATEDRECTD35*%

G04:AMPARAMS|DCode=36|XSize=20mil|YSize=77mil|CornerRadius=0mil|HoleSize=0mil|Usage=FLASHONLY|Rotation=225.000|XOffset=0mil|YOffset=0mil|HoleType=Round|Shape=Rectangle|*
%AMROTATEDRECTD36*
4,1,4,-0.020,0.034,0.034,-0.020,0.020,-0.034,-0.034,0.020,-0.020,0.034,0.0*
%
%ADD36ROTATEDRECTD36*%

G04:AMPARAMS|DCode=37|XSize=51mil|YSize=16mil|CornerRadius=0mil|HoleSize=0mil|Usage=FLASHONLY|Rotation=45.000|XOffset=0mil|YOffset=0mil|HoleType=Round|Shape=Rectangle|*
%AMROTATEDRECTD37*
4,1,4,-0.012,-0.024,-0.024,-0.012,0.012,0.024,0.024,0.012,-0.012,-0.024,0.0*
%
%ADD37ROTATEDRECTD37*%

%ADD38O,0.079X0.098*%
%ADD39O,0.079X0.059*%
%ADD40R,0.079X0.059*%
%ADD41O,0.078X0.118*%
%ADD42R,0.078X0.078*%
%ADD43C,0.177*%
%ADD44R,0.074X0.074*%
%ADD45O,0.118X0.074*%
%ADD46C,0.157*%
%ADD47O,0.098X0.079*%
%ADD48C,0.112*%
%ADD49C,0.079*%
G36*
X02735Y02231D02*
X02735Y02227D01*
X02735Y02223D01*
X02736Y02220D01*
X02737Y02217D01*
X02739Y02215D01*
X02740Y02214D01*
X02742Y02213D01*
X02744Y02212D01*
X02746Y02212D01*
X02699D01*
X02701Y02212D01*
X02703Y02213D01*
X02705Y02214D01*
X02707Y02215D01*
X02708Y02217D01*
X02709Y02220D01*
X02710Y02223D01*
X02710Y02227D01*
X02711Y02231D01*
X02711Y02235D01*
X02734D01*
X02735Y02231D01*
D02*
G37*
G36*
X02006Y02234D02*
X02004Y02234D01*
X02002Y02233D01*
X02001Y02231D01*
X02000Y02229D01*
X01999Y02226D01*
X01998Y02223D01*
X01998Y02222D01*
X01998Y02222D01*
X01999Y02218D01*
X02000Y02216D01*
X02001Y02214D01*
X02002Y02212D01*
X02004Y02211D01*
X02006Y02210D01*
X02009Y02210D01*
X01961D01*
X01964Y02210D01*
X01966Y02211D01*
X01967Y02212D01*
X01969Y02214D01*
X01970Y02216D01*
X01971Y02218D01*
X01972Y02222D01*
X01972Y02222D01*
X01972Y02223D01*
X01971Y02226D01*
X01970Y02229D01*
X01969Y02231D01*
X01967Y02233D01*
X01966Y02234D01*
X01964Y02234D01*
X01961Y02235D01*
X02009D01*
X02006Y02234D01*
D02*
G37*
G36*
X02524Y02202D02*
X02520Y02202D01*
X02516Y02202D01*
X02513Y02201D01*
X02509Y02200D01*
X02506Y02199D01*
X02502Y02198D01*
X02499Y02196D01*
X02496Y02194D01*
X02494Y02192D01*
X02491Y02190D01*
X02474Y02206D01*
X02477Y02209D01*
X02479Y02212D01*
X02481Y02215D01*
X02482Y02218D01*
X02484Y02221D01*
X02485Y02225D01*
X02486Y02228D01*
X02486Y02232D01*
X02486Y02235D01*
X02486Y02239D01*
X02524Y02202D01*
D02*
G37*
G36*
X02204Y02231D02*
X02204Y02232D01*
X02203Y02233D01*
X02202Y02234D01*
X02200Y02234D01*
X02198Y02235D01*
X02196Y02235D01*
X02189Y02235D01*
X02180Y02236D01*
Y02259D01*
X02185Y02259D01*
X02189Y02260D01*
X02192Y02260D01*
X02196Y02261D01*
X02198Y02262D01*
X02200Y02263D01*
X02202Y02265D01*
X02203Y02266D01*
X02204Y02268D01*
X02204Y02271D01*
Y02231D01*
D02*
G37*
G36*
X02015Y02260D02*
X02016Y02260D01*
X02017Y02260D01*
X02021Y02259D01*
X02038Y02259D01*
Y02236D01*
X02015Y02235D01*
Y02260D01*
X02015Y02260D01*
D02*
G37*
G36*
X01741Y02235D02*
X01741Y02235D01*
X01740Y02235D01*
X01739Y02235D01*
X01736Y02235D01*
X01718Y02236D01*
Y02259D01*
X01741Y02260D01*
Y02235D01*
D02*
G37*
G36*
X02261Y02269D02*
X02262Y02268D01*
X02263Y02267D01*
X02265Y02266D01*
X02267Y02265D01*
X02269Y02264D01*
X02272Y02264D01*
X02276Y02263D01*
X02284Y02263D01*
Y02239D01*
X02280Y02239D01*
X02272Y02239D01*
X02269Y02238D01*
X02267Y02237D01*
X02265Y02236D01*
X02263Y02235D01*
X02262Y02234D01*
X02261Y02233D01*
X02261Y02231D01*
Y02271D01*
X02261Y02269D01*
D02*
G37*
G36*
X03152Y02181D02*
X03153Y02179D01*
X03154Y02178D01*
X03155Y02177D01*
X03158Y02176D01*
X03160Y02176D01*
X03163Y02175D01*
X03167Y02175D01*
X03175Y02174D01*
Y02151D01*
X03171Y02151D01*
X03163Y02150D01*
X03160Y02149D01*
X03158Y02149D01*
X03155Y02148D01*
X03154Y02147D01*
X03153Y02146D01*
X03152Y02144D01*
X03152Y02143D01*
Y02182D01*
X03152Y02181D01*
D02*
G37*
G36*
X02015Y02160D02*
X02016Y02160D01*
X02017Y02160D01*
X02021Y02159D01*
X02038Y02159D01*
Y02136D01*
X02015Y02135D01*
Y02160D01*
X02015Y02160D01*
D02*
G37*
G36*
X01741Y02135D02*
X01741Y02135D01*
X01740Y02135D01*
X01739Y02135D01*
X01736Y02135D01*
X01718Y02136D01*
Y02159D01*
X01741Y02160D01*
Y02135D01*
D02*
G37*
G36*
X01378Y02168D02*
X01379Y02164D01*
X01379Y02161D01*
X01380Y02158D01*
X01381Y02156D01*
X01382Y02154D01*
X01383Y02153D01*
X01384Y02151D01*
X01386Y02151D01*
X01388Y02151D01*
X01345D01*
X01346Y02151D01*
X01348Y02151D01*
X01350Y02153D01*
X01351Y02154D01*
X01352Y02156D01*
X01353Y02158D01*
X01354Y02161D01*
X01354Y02164D01*
X01354Y02168D01*
X01354Y02172D01*
X01378D01*
X01378Y02168D01*
D02*
G37*
G36*
X02015Y02210D02*
X02016Y02210D01*
X02017Y02210D01*
X02021Y02209D01*
X02038Y02209D01*
Y02186D01*
X02015Y02185D01*
Y02210D01*
X02015Y02210D01*
D02*
G37*
G36*
X01741Y02185D02*
X01741Y02185D01*
X01740Y02185D01*
X01739Y02185D01*
X01736Y02185D01*
X01718Y02186D01*
Y02209D01*
X01741Y02210D01*
Y02185D01*
D02*
G37*
G36*
X01184Y02186D02*
X01181Y02183D01*
X01179Y02180D01*
X01177Y02177D01*
X01175Y02173D01*
X01174Y02170D01*
X01173Y02167D01*
X01172Y02163D01*
X01172Y02160D01*
X01171Y02156D01*
X01148D01*
X01148Y02160D01*
X01147Y02163D01*
X01146Y02167D01*
X01145Y02170D01*
X01144Y02173D01*
X01142Y02177D01*
X01140Y02180D01*
X01138Y02183D01*
X01135Y02186D01*
X01132Y02189D01*
X01187D01*
X01184Y02186D01*
D02*
G37*
G36*
X02204Y02311D02*
X02204Y02312D01*
X02204Y02312D01*
X02203Y02313D01*
X02202Y02313D01*
X02200Y02313D01*
X02199Y02314D01*
X02197Y02314D01*
X02192Y02314D01*
X02189Y02314D01*
Y02338D01*
X02192Y02338D01*
X02199Y02338D01*
X02200Y02338D01*
X02202Y02339D01*
X02203Y02339D01*
X02204Y02340D01*
X02204Y02340D01*
X02204Y02341D01*
Y02311D01*
D02*
G37*
G36*
X01268Y02318D02*
X01267Y02318D01*
X01267Y02317D01*
X01267Y02316D01*
X01266Y02315D01*
X01266Y02311D01*
X01266Y02307D01*
X01266Y02304D01*
X01242D01*
X01242Y02307D01*
X01242Y02315D01*
X01242Y02316D01*
X01241Y02317D01*
X01241Y02318D01*
X01241Y02318D01*
X01240Y02319D01*
X01268D01*
X01268Y02318D01*
D02*
G37*
G36*
X02015Y02310D02*
X02016Y02310D01*
X02017Y02310D01*
X02021Y02309D01*
X02038Y02309D01*
Y02286D01*
X02015Y02285D01*
Y02310D01*
X02015Y02310D01*
D02*
G37*
G36*
X02441Y02339D02*
X02442Y02335D01*
X02442Y02331D01*
X02443Y02328D01*
X02444Y02326D01*
X02445Y02324D01*
X02447Y02322D01*
X02449Y02321D01*
X02451Y02320D01*
X02453Y02320D01*
X02406D01*
X02408Y02320D01*
X02410Y02321D01*
X02412Y02322D01*
X02413Y02324D01*
X02415Y02326D01*
X02416Y02328D01*
X02416Y02331D01*
X02417Y02335D01*
X02417Y02339D01*
X02417Y02343D01*
X02441D01*
X02441Y02339D01*
D02*
G37*
G36*
X02015Y02360D02*
X02016Y02360D01*
X02017Y02360D01*
X02021Y02359D01*
X02038Y02359D01*
Y02336D01*
X02015Y02335D01*
Y02360D01*
X02015Y02360D01*
D02*
G37*
G36*
X01484Y02339D02*
X01485Y02329D01*
X01485Y02329D01*
X01486Y02329D01*
X01460D01*
X01460Y02329D01*
X01460Y02329D01*
X01460Y02330D01*
X01460Y02331D01*
X01461Y02332D01*
X01461Y02337D01*
X01461Y02342D01*
X01484D01*
X01484Y02339D01*
D02*
G37*
G36*
X02065Y02325D02*
X02065Y02327D01*
X02064Y02329D01*
X02063Y02330D01*
X02061Y02332D01*
X02059Y02333D01*
X02057Y02334D01*
X02054Y02335D01*
X02050Y02335D01*
X02046Y02335D01*
X02042Y02336D01*
Y02359D01*
X02046Y02359D01*
X02050Y02360D01*
X02054Y02360D01*
X02057Y02361D01*
X02059Y02362D01*
X02061Y02363D01*
X02063Y02365D01*
X02064Y02367D01*
X02065Y02369D01*
X02065Y02371D01*
Y02325D01*
D02*
G37*
G36*
X01378Y02277D02*
X01378Y02279D01*
X01377Y02281D01*
X01376Y02283D01*
X01375Y02284D01*
X01372Y02286D01*
X01370Y02287D01*
X01367Y02287D01*
X01363Y02288D01*
X01359Y02288D01*
X01355Y02288D01*
Y02312D01*
X01359Y02312D01*
X01363Y02313D01*
X01367Y02313D01*
X01370Y02314D01*
X01372Y02315D01*
X01375Y02316D01*
X01376Y02318D01*
X01377Y02320D01*
X01378Y02322D01*
X01378Y02324D01*
Y02277D01*
D02*
G37*
G36*
X03134Y02260D02*
X03134Y02256D01*
X03135Y02253D01*
X03136Y02250D01*
X03137Y02247D01*
X03138Y02245D01*
X03140Y02243D01*
X03142Y02242D01*
X03144Y02241D01*
X03146Y02241D01*
X03099D01*
X03101Y02241D01*
X03103Y02242D01*
X03105Y02243D01*
X03106Y02245D01*
X03107Y02247D01*
X03109Y02250D01*
X03109Y02253D01*
X03110Y02256D01*
X03110Y02260D01*
X03110Y02265D01*
X03134D01*
X03134Y02260D01*
D02*
G37*
G36*
X02815Y02257D02*
X02816Y02251D01*
X02816Y02248D01*
X02817Y02246D01*
X02818Y02244D01*
X02819Y02243D01*
X02820Y02242D01*
X02822Y02241D01*
X02823Y02241D01*
X02784D01*
X02785Y02241D01*
X02786Y02242D01*
X02788Y02243D01*
X02789Y02244D01*
X02789Y02246D01*
X02790Y02248D01*
X02791Y02251D01*
X02791Y02254D01*
X02791Y02257D01*
X02791Y02261D01*
X02815D01*
X02815Y02257D01*
D02*
G37*
G36*
X01492Y02322D02*
X01493Y02320D01*
X01494Y02318D01*
X01496Y02316D01*
X01498Y02315D01*
X01501Y02314D01*
X01504Y02313D01*
X01507Y02313D01*
X01511Y02312D01*
X01516Y02312D01*
Y02288D01*
X01511Y02288D01*
X01507Y02288D01*
X01504Y02287D01*
X01501Y02287D01*
X01498Y02286D01*
X01496Y02284D01*
X01494Y02283D01*
X01493Y02281D01*
X01492Y02279D01*
X01492Y02277D01*
Y02324D01*
X01492Y02322D01*
D02*
G37*
G36*
X01955Y02285D02*
X01955Y02285D01*
X01954Y02285D01*
X01953Y02285D01*
X01949Y02285D01*
X01931Y02286D01*
Y02309D01*
X01955Y02310D01*
Y02285D01*
D02*
G37*
G36*
X01741Y02310D02*
Y02285D01*
X01741Y02285D01*
X01740Y02286D01*
X01739Y02287D01*
X01738Y02287D01*
X01736Y02288D01*
X01733Y02288D01*
X01726Y02288D01*
X01718Y02288D01*
Y02312D01*
X01741Y02310D01*
D02*
G37*
G36*
X03032Y02321D02*
X03032Y02320D01*
X03043D01*
X03041Y02320D01*
X03039Y02319D01*
X03037Y02318D01*
X03036Y02316D01*
X03035Y02314D01*
X03034Y02313D01*
X03035Y02311D01*
X03038Y02308D01*
X03040Y02306D01*
X03043Y02304D01*
X03047Y02303D01*
X03051Y02302D01*
X03055Y02302D01*
X03020Y02279D01*
X02984Y02302D01*
X02989Y02302D01*
X02993Y02303D01*
X02996Y02304D01*
X03000Y02306D01*
X03002Y02308D01*
X03004Y02311D01*
X03006Y02313D01*
X03005Y02314D01*
X03004Y02316D01*
X03002Y02318D01*
X03000Y02319D01*
X02998Y02320D01*
X02996Y02320D01*
X03008D01*
X03008Y02321D01*
X03008Y02326D01*
X03032D01*
X03032Y02321D01*
D02*
G37*
G36*
X02273Y02025D02*
X02273Y02026D01*
X02272Y02028D01*
X02271Y02029D01*
X02269Y02030D01*
X02267Y02031D01*
X02264Y02031D01*
X02261Y02032D01*
X02258Y02032D01*
X02249Y02033D01*
Y02056D01*
X02254Y02056D01*
X02261Y02057D01*
X02264Y02057D01*
X02267Y02058D01*
X02269Y02059D01*
X02271Y02060D01*
X02272Y02061D01*
X02273Y02062D01*
X02273Y02064D01*
Y02025D01*
D02*
G37*
G36*
X02107Y02024D02*
X02106Y02026D01*
X02106Y02028D01*
X02105Y02030D01*
X02103Y02031D01*
X02101Y02033D01*
X02098Y02034D01*
X02095Y02034D01*
X02092Y02035D01*
X02087Y02035D01*
X02083Y02036D01*
Y02059D01*
X02087Y02059D01*
X02092Y02060D01*
X02095Y02060D01*
X02098Y02061D01*
X02101Y02062D01*
X02103Y02063D01*
X02105Y02065D01*
X02106Y02067D01*
X02106Y02069D01*
X02107Y02071D01*
Y02024D01*
D02*
G37*
G36*
X02221Y02066D02*
X02221Y02064D01*
X02223Y02062D01*
X02224Y02060D01*
X02226Y02059D01*
X02229Y02058D01*
X02232Y02057D01*
X02236Y02057D01*
X02240Y02056D01*
X02244Y02056D01*
Y02033D01*
X02240Y02032D01*
X02236Y02032D01*
X02232Y02031D01*
X02229Y02031D01*
X02226Y02030D01*
X02224Y02028D01*
X02223Y02027D01*
X02221Y02025D01*
X02221Y02023D01*
X02221Y02021D01*
Y02068D01*
X02221Y02066D01*
D02*
G37*
G36*
X02330Y02062D02*
X02331Y02061D01*
X02332Y02060D01*
X02334Y02059D01*
X02336Y02058D01*
X02338Y02057D01*
X02341Y02057D01*
X02345Y02056D01*
X02353Y02056D01*
Y02033D01*
X02349Y02032D01*
X02341Y02032D01*
X02338Y02031D01*
X02336Y02031D01*
X02334Y02030D01*
X02332Y02029D01*
X02331Y02028D01*
X02330Y02026D01*
X02330Y02025D01*
Y02064D01*
X02330Y02062D01*
D02*
G37*
G36*
X01741Y02035D02*
X01741Y02035D01*
X01740Y02035D01*
X01739Y02035D01*
X01736Y02035D01*
X01718Y02036D01*
Y02059D01*
X01741Y02060D01*
Y02035D01*
D02*
G37*
G36*
X02825Y02084D02*
X02823Y02083D01*
X02821Y02082D01*
X02819Y02080D01*
X02818Y02078D01*
X02817Y02075D01*
X02816Y02072D01*
X02816Y02069D01*
X02816Y02068D01*
X02816Y02065D01*
X02817Y02062D01*
X02818Y02060D01*
X02819Y02058D01*
X02820Y02057D01*
X02821Y02056D01*
X02823Y02056D01*
X02803Y02033D01*
X02768Y02056D01*
X02772Y02056D01*
X02776Y02057D01*
X02780Y02058D01*
X02783Y02060D01*
X02786Y02062D01*
X02788Y02065D01*
X02789Y02068D01*
X02791Y02071D01*
X02791Y02071D01*
X02790Y02072D01*
X02790Y02075D01*
X02789Y02078D01*
X02787Y02080D01*
X02786Y02082D01*
X02784Y02083D01*
X02782Y02084D01*
X02780Y02084D01*
X02827D01*
X02825Y02084D01*
D02*
G37*
G36*
X01551Y02076D02*
X01552Y02074D01*
X01553Y02072D01*
X01555Y02070D01*
X01557Y02069D01*
X01560Y02068D01*
X01563Y02067D01*
X01566Y02066D01*
X01570Y02066D01*
X01575Y02066D01*
Y02042D01*
X01570Y02042D01*
X01566Y02042D01*
X01563Y02041D01*
X01560Y02041D01*
X01557Y02039D01*
X01555Y02038D01*
X01553Y02037D01*
X01552Y02035D01*
X01551Y02033D01*
X01551Y02031D01*
Y02078D01*
X01551Y02076D01*
D02*
G37*
G36*
X02330Y01988D02*
X02331Y01986D01*
X02332Y01985D01*
X02334Y01984D01*
X02336Y01983D01*
X02338Y01983D01*
X02341Y01982D01*
X02345Y01982D01*
X02353Y01981D01*
Y01958D01*
X02349Y01958D01*
X02341Y01957D01*
X02338Y01957D01*
X02336Y01956D01*
X02334Y01955D01*
X02332Y01954D01*
X02331Y01953D01*
X02330Y01951D01*
X02330Y01950D01*
Y01989D01*
X02330Y01988D01*
D02*
G37*
G36*
X02323Y01950D02*
X02321Y01949D01*
X02319Y01948D01*
X02317Y01946D01*
X02316Y01944D01*
X02315Y01942D01*
X02314Y01938D01*
X02314Y01935D01*
X02313Y01931D01*
X02313Y01926D01*
X02290D01*
X02289Y01931D01*
X02289Y01935D01*
X02288Y01938D01*
X02288Y01942D01*
X02287Y01944D01*
X02285Y01946D01*
X02284Y01948D01*
X02282Y01949D01*
X02280Y01950D01*
X02278Y01950D01*
X02325D01*
X02323Y01950D01*
D02*
G37*
G36*
X01524Y01967D02*
X01525Y01965D01*
X01526Y01964D01*
X01527Y01962D01*
X01530Y01961D01*
X01532Y01960D01*
X01535Y01959D01*
X01539Y01958D01*
X01543Y01958D01*
X01547Y01958D01*
Y01934D01*
X01543Y01934D01*
X01539Y01934D01*
X01535Y01933D01*
X01532Y01932D01*
X01530Y01931D01*
X01527Y01930D01*
X01526Y01928D01*
X01525Y01927D01*
X01524Y01925D01*
X01524Y01922D01*
Y01970D01*
X01524Y01967D01*
D02*
G37*
G36*
X01469Y02026D02*
X01469Y02026D01*
X01476D01*
X01475Y02026D01*
X01474Y02025D01*
X01472Y02024D01*
X01471Y02022D01*
X01471Y02020D01*
X01470Y02019D01*
X01471Y02019D01*
X01472Y02015D01*
X01475Y02013D01*
X01477Y02011D01*
X01480Y02009D01*
X01484Y02008D01*
X01488Y02007D01*
X01492Y02007D01*
Y01983D01*
X01488Y01983D01*
X01484Y01982D01*
X01480Y01981D01*
X01477Y01980D01*
X01475Y01977D01*
X01472Y01975D01*
X01471Y01972D01*
X01470Y01968D01*
X01469Y01964D01*
X01469Y01960D01*
X01445Y01995D01*
X01450Y02002D01*
X01445D01*
X01445Y02007D01*
X01444Y02014D01*
X01444Y02017D01*
X01443Y02020D01*
X01442Y02022D01*
X01441Y02024D01*
X01440Y02025D01*
X01439Y02026D01*
X01437Y02026D01*
X01465D01*
X01469Y02031D01*
X01469Y02026D01*
D02*
G37*
G36*
X02006Y02034D02*
X02004Y02034D01*
X02002Y02033D01*
X02001Y02031D01*
X02000Y02029D01*
X01999Y02026D01*
X01998Y02023D01*
X01998Y02022D01*
X01998Y02022D01*
X01999Y02018D01*
X02000Y02016D01*
X02001Y02014D01*
X02002Y02012D01*
X02004Y02011D01*
X02006Y02010D01*
X02009Y02010D01*
X01961D01*
X01964Y02010D01*
X01966Y02011D01*
X01967Y02012D01*
X01969Y02014D01*
X01970Y02016D01*
X01971Y02018D01*
X01972Y02022D01*
X01972Y02022D01*
X01972Y02023D01*
X01971Y02026D01*
X01970Y02029D01*
X01969Y02031D01*
X01967Y02033D01*
X01966Y02034D01*
X01964Y02034D01*
X01961Y02035D01*
X02009D01*
X02006Y02034D01*
D02*
G37*
G36*
X01801Y02010D02*
X01802Y02010D01*
X01803Y02010D01*
X01807Y02009D01*
X01825Y02009D01*
Y01986D01*
X01801Y01985D01*
Y02010D01*
X01801Y02010D01*
D02*
G37*
G36*
X01793Y01984D02*
X01791Y01984D01*
X01789Y01983D01*
X01787Y01981D01*
X01786Y01979D01*
X01785Y01976D01*
X01784Y01973D01*
X01784Y01970D01*
X01783Y01966D01*
X01783Y01961D01*
X01760D01*
X01759Y01966D01*
X01759Y01970D01*
X01758Y01973D01*
X01758Y01976D01*
X01757Y01979D01*
X01755Y01981D01*
X01754Y01983D01*
X01752Y01984D01*
X01750Y01984D01*
X01748Y01985D01*
X01795D01*
X01793Y01984D01*
D02*
G37*
G36*
X01524Y02154D02*
X01525Y02152D01*
X01526Y02151D01*
X01527Y02149D01*
X01530Y02148D01*
X01532Y02147D01*
X01535Y02146D01*
X01539Y02145D01*
X01543Y02145D01*
X01547Y02145D01*
Y02121D01*
X01543Y02121D01*
X01539Y02121D01*
X01535Y02120D01*
X01532Y02119D01*
X01530Y02118D01*
X01527Y02117D01*
X01526Y02115D01*
X01525Y02114D01*
X01524Y02112D01*
X01524Y02109D01*
Y02157D01*
X01524Y02154D01*
D02*
G37*
G36*
X01278D02*
X01278Y02152D01*
X01280Y02151D01*
X01281Y02149D01*
X01283Y02148D01*
X01286Y02147D01*
X01289Y02146D01*
X01293Y02145D01*
X01297Y02145D01*
X01301Y02145D01*
Y02121D01*
X01297Y02121D01*
X01293Y02121D01*
X01289Y02120D01*
X01286Y02119D01*
X01283Y02118D01*
X01281Y02117D01*
X01280Y02115D01*
X01278Y02114D01*
X01278Y02112D01*
X01277Y02109D01*
Y02157D01*
X01278Y02154D01*
D02*
G37*
G36*
X01199Y02109D02*
X01199Y02112D01*
X01198Y02114D01*
X01197Y02115D01*
X01195Y02117D01*
X01193Y02118D01*
X01191Y02119D01*
X01188Y02120D01*
X01184Y02121D01*
X01180Y02121D01*
X01175Y02121D01*
Y02145D01*
X01180Y02145D01*
X01184Y02145D01*
X01188Y02146D01*
X01191Y02147D01*
X01193Y02148D01*
X01195Y02149D01*
X01197Y02151D01*
X01198Y02152D01*
X01199Y02154D01*
X01199Y02157D01*
Y02109D01*
D02*
G37*
G36*
X02006Y02134D02*
X02004Y02134D01*
X02002Y02133D01*
X02001Y02131D01*
X02000Y02129D01*
X01999Y02126D01*
X01998Y02123D01*
X01998Y02122D01*
X01998Y02122D01*
X01999Y02118D01*
X02000Y02116D01*
X02001Y02114D01*
X02002Y02112D01*
X02004Y02111D01*
X02006Y02110D01*
X02009Y02110D01*
X01961D01*
X01964Y02110D01*
X01966Y02111D01*
X01967Y02112D01*
X01969Y02114D01*
X01970Y02116D01*
X01971Y02118D01*
X01972Y02122D01*
X01972Y02122D01*
X01972Y02123D01*
X01971Y02126D01*
X01970Y02129D01*
X01969Y02131D01*
X01967Y02133D01*
X01966Y02134D01*
X01964Y02134D01*
X01961Y02135D01*
X02009D01*
X02006Y02134D01*
D02*
G37*
G36*
X03238Y02162D02*
X03215Y02127D01*
X03214Y02132D01*
X03214Y02136D01*
X03213Y02139D01*
X03211Y02142D01*
X03209Y02145D01*
X03206Y02147D01*
X03203Y02149D01*
X03200Y02150D01*
X03196Y02150D01*
X03191Y02151D01*
Y02174D01*
X03196Y02175D01*
X03200Y02175D01*
X03203Y02176D01*
X03206Y02178D01*
X03209Y02180D01*
X03211Y02183D01*
X03213Y02186D01*
X03214Y02189D01*
X03214Y02193D01*
X03215Y02198D01*
X03238Y02162D01*
D02*
G37*
G36*
X02617Y02124D02*
X02616Y02126D01*
X02616Y02128D01*
X02614Y02130D01*
X02613Y02131D01*
X02611Y02133D01*
X02608Y02134D01*
X02605Y02134D01*
X02601Y02135D01*
X02597Y02135D01*
X02593Y02136D01*
Y02159D01*
X02597Y02159D01*
X02601Y02160D01*
X02605Y02160D01*
X02608Y02161D01*
X02611Y02162D01*
X02613Y02163D01*
X02614Y02165D01*
X02616Y02167D01*
X02616Y02169D01*
X02617Y02171D01*
Y02124D01*
D02*
G37*
G36*
X01338Y02111D02*
X01338Y02113D01*
X01337Y02115D01*
X01336Y02116D01*
X01334Y02118D01*
X01332Y02119D01*
X01329Y02120D01*
X01326Y02120D01*
X01323Y02121D01*
X01319Y02121D01*
X01314Y02121D01*
Y02145D01*
X01319Y02145D01*
X01329Y02146D01*
X01332Y02146D01*
X01334Y02147D01*
X01336Y02148D01*
X01337Y02148D01*
X01338Y02149D01*
X01338Y02151D01*
Y02111D01*
D02*
G37*
G36*
X03146Y02084D02*
X03145Y02083D01*
X03144Y02082D01*
X03143Y02081D01*
X03142Y02079D01*
X03141Y02077D01*
X03141Y02074D01*
X03140Y02071D01*
X03140Y02068D01*
X03140Y02064D01*
X03116D01*
X03116Y02068D01*
X03116Y02074D01*
X03115Y02077D01*
X03114Y02079D01*
X03113Y02081D01*
X03112Y02082D01*
X03111Y02083D01*
X03110Y02084D01*
X03108Y02084D01*
X03148D01*
X03146Y02084D01*
D02*
G37*
G36*
X01338Y02037D02*
X01338Y02038D01*
X01337Y02039D01*
X01336Y02041D01*
X01334Y02042D01*
X01332Y02042D01*
X01329Y02043D01*
X01326Y02044D01*
X01323Y02044D01*
X01314Y02044D01*
Y02068D01*
X01319Y02068D01*
X01326Y02069D01*
X01329Y02069D01*
X01332Y02070D01*
X01334Y02071D01*
X01336Y02072D01*
X01337Y02073D01*
X01338Y02074D01*
X01338Y02076D01*
Y02037D01*
D02*
G37*
G36*
X02015Y02060D02*
X02016Y02060D01*
X02017Y02060D01*
X02021Y02059D01*
X02038Y02059D01*
Y02036D01*
X02015Y02035D01*
Y02060D01*
X02015Y02060D01*
D02*
G37*
G36*
X01437Y02033D02*
X01437Y02035D01*
X01436Y02037D01*
X01435Y02039D01*
X01434Y02040D01*
X01431Y02041D01*
X01429Y02042D01*
X01426Y02043D01*
X01422Y02044D01*
X01418Y02044D01*
X01416Y02044D01*
X01414Y02044D01*
X01406Y02044D01*
X01403Y02043D01*
X01401Y02042D01*
X01399Y02042D01*
X01397Y02041D01*
X01396Y02039D01*
X01395Y02038D01*
X01395Y02037D01*
Y02076D01*
X01395Y02074D01*
X01396Y02073D01*
X01397Y02072D01*
X01399Y02071D01*
X01401Y02070D01*
X01403Y02069D01*
X01406Y02069D01*
X01410Y02068D01*
X01416Y02068D01*
X01418Y02068D01*
X01422Y02068D01*
X01426Y02069D01*
X01429Y02070D01*
X01431Y02071D01*
X01434Y02072D01*
X01435Y02074D01*
X01436Y02076D01*
X01437Y02078D01*
X01437Y02080D01*
Y02033D01*
D02*
G37*
G36*
X01955Y02085D02*
X01955Y02085D01*
X01954Y02085D01*
X01953Y02085D01*
X01949Y02085D01*
X01931Y02086D01*
Y02109D01*
X01955Y02110D01*
Y02085D01*
D02*
G37*
G36*
X01741D02*
X01741Y02085D01*
X01740Y02085D01*
X01739Y02085D01*
X01736Y02085D01*
X01718Y02086D01*
Y02109D01*
X01741Y02110D01*
Y02085D01*
D02*
G37*
G36*
X01467Y02102D02*
X01468Y02094D01*
X01468Y02091D01*
X01469Y02089D01*
X01470Y02086D01*
X01471Y02085D01*
X01473Y02084D01*
X01475Y02083D01*
X01476Y02083D01*
X01437D01*
X01438Y02083D01*
X01439Y02084D01*
X01440Y02085D01*
X01441Y02086D01*
X01442Y02089D01*
X01442Y02091D01*
X01443Y02094D01*
X01443Y02102D01*
X01443Y02106D01*
X01467D01*
X01467Y02102D01*
D02*
G37*
G36*
X02254Y02391D02*
X02252Y02390D01*
X02250Y02389D01*
X02249Y02387D01*
X02247Y02385D01*
X02246Y02383D01*
X02245Y02379D01*
X02245Y02376D01*
X02244Y02372D01*
X02244Y02368D01*
X02244Y02365D01*
X02245Y02361D01*
X02245Y02357D01*
X02246Y02354D01*
X02247Y02351D01*
X02249Y02349D01*
X02250Y02348D01*
X02252Y02346D01*
X02254Y02346D01*
X02256Y02345D01*
X02209D01*
X02211Y02346D01*
X02213Y02346D01*
X02215Y02348D01*
X02216Y02349D01*
X02218Y02351D01*
X02219Y02354D01*
X02220Y02357D01*
X02220Y02361D01*
X02221Y02365D01*
X02221Y02368D01*
X02221Y02372D01*
X02220Y02376D01*
X02220Y02379D01*
X02219Y02383D01*
X02218Y02385D01*
X02216Y02387D01*
X02215Y02389D01*
X02213Y02390D01*
X02211Y02391D01*
X02209Y02391D01*
X02256D01*
X02254Y02391D01*
D02*
G37*
G36*
X03445Y03238D02*
X03446Y03224D01*
X03446Y03222D01*
X03447Y03221D01*
X03447Y03219D01*
X03448Y03219D01*
X03449Y03218D01*
X03410D01*
X03412Y03219D01*
X03414Y03219D01*
X03416Y03221D01*
X03417Y03222D01*
X03418Y03224D01*
X03420Y03227D01*
X03420Y03230D01*
X03421Y03234D01*
X03421Y03238D01*
X03421Y03242D01*
X03445D01*
X03445Y03238D01*
D02*
G37*
G36*
X06705Y03237D02*
X06703Y03237D01*
X06701Y03236D01*
X06699Y03234D01*
X06698Y03232D01*
X06697Y03229D01*
X06696Y03226D01*
X06696Y03223D01*
X06695Y03218D01*
X06695Y03214D01*
X06671D01*
X06671Y03218D01*
X06671Y03223D01*
X06670Y03226D01*
X06670Y03229D01*
X06668Y03232D01*
X06667Y03234D01*
X06666Y03236D01*
X06664Y03237D01*
X06662Y03237D01*
X06660Y03238D01*
X06707D01*
X06705Y03237D01*
D02*
G37*
G36*
X03335Y03166D02*
X03335Y03169D01*
X03334Y03171D01*
X03333Y03172D01*
X03331Y03174D01*
X03329Y03175D01*
X03326Y03176D01*
X03323Y03177D01*
X03320Y03178D01*
X03316Y03178D01*
X03311Y03178D01*
Y03202D01*
X03316Y03202D01*
X03320Y03202D01*
X03323Y03203D01*
X03326Y03204D01*
X03329Y03205D01*
X03331Y03206D01*
X03333Y03208D01*
X03334Y03209D01*
X03335Y03211D01*
X03335Y03214D01*
Y03166D01*
D02*
G37*
G36*
X03089Y03248D02*
X03089Y03244D01*
X03090Y03241D01*
X03091Y03238D01*
X03092Y03235D01*
X03093Y03233D01*
X03095Y03231D01*
X03096Y03230D01*
X03098Y03229D01*
X03101Y03229D01*
X03053D01*
X03056Y03229D01*
X03058Y03230D01*
X03059Y03231D01*
X03061Y03233D01*
X03062Y03235D01*
X03063Y03238D01*
X03064Y03241D01*
X03065Y03244D01*
X03065Y03248D01*
X03065Y03253D01*
X03089D01*
X03089Y03248D01*
D02*
G37*
G36*
X03321Y03314D02*
X03321Y03316D01*
X03320Y03318D01*
X03319Y03320D01*
X03317Y03322D01*
X03315Y03323D01*
X03313Y03324D01*
X03310Y03325D01*
X03306Y03325D01*
X03302Y03326D01*
X03298Y03326D01*
Y03349D01*
X03302Y03350D01*
X03306Y03350D01*
X03310Y03351D01*
X03313Y03351D01*
X03315Y03352D01*
X03317Y03354D01*
X03319Y03355D01*
X03320Y03357D01*
X03321Y03359D01*
X03321Y03361D01*
Y03314D01*
D02*
G37*
G36*
X03254Y03359D02*
X03255Y03357D01*
X03256Y03355D01*
X03258Y03354D01*
X03260Y03352D01*
X03262Y03351D01*
X03265Y03351D01*
X03269Y03350D01*
X03273Y03350D01*
X03278Y03349D01*
Y03326D01*
X03273Y03326D01*
X03269Y03325D01*
X03265Y03325D01*
X03262Y03324D01*
X03260Y03323D01*
X03258Y03322D01*
X03256Y03320D01*
X03255Y03318D01*
X03254Y03316D01*
X03254Y03314D01*
Y03361D01*
X03254Y03359D01*
D02*
G37*
G36*
X03098Y03298D02*
X03096Y03298D01*
X03095Y03296D01*
X03093Y03295D01*
X03092Y03293D01*
X03091Y03290D01*
X03090Y03287D01*
X03089Y03283D01*
X03089Y03279D01*
X03089Y03275D01*
X03065D01*
X03065Y03279D01*
X03064Y03287D01*
X03064Y03290D01*
X03063Y03293D01*
X03062Y03295D01*
X03061Y03296D01*
X03060Y03297D01*
X03059Y03298D01*
X03057Y03298D01*
X03101Y03299D01*
X03098Y03298D01*
D02*
G37*
G36*
X06655Y03037D02*
X06655Y03038D01*
X06654Y03039D01*
X06653Y03041D01*
X06651Y03042D01*
X06649Y03042D01*
X06646Y03043D01*
X06643Y03044D01*
X06640Y03044D01*
X06631Y03044D01*
Y03068D01*
X06636Y03068D01*
X06643Y03069D01*
X06646Y03069D01*
X06649Y03070D01*
X06651Y03071D01*
X06653Y03072D01*
X06654Y03073D01*
X06655Y03074D01*
X06655Y03076D01*
Y03037D01*
D02*
G37*
G36*
X06502Y03081D02*
X06505Y03078D01*
X06508Y03076D01*
X06511Y03074D01*
X06515Y03072D01*
X06518Y03071D01*
X06521Y03069D01*
X06525Y03069D01*
X06528Y03068D01*
X06532Y03068D01*
Y03044D01*
X06528Y03044D01*
X06525Y03044D01*
X06521Y03043D01*
X06518Y03042D01*
X06515Y03040D01*
X06511Y03039D01*
X06508Y03037D01*
X06505Y03034D01*
X06502Y03032D01*
X06499Y03029D01*
Y03084D01*
X06502Y03081D01*
D02*
G37*
G36*
X03231Y03033D02*
X03231Y03029D01*
X03232Y03025D01*
X03233Y03022D01*
X03234Y03020D01*
X03235Y03017D01*
X03237Y03016D01*
X03238Y03015D01*
X03240Y03014D01*
X03243Y03014D01*
X03195D01*
X03198Y03014D01*
X03200Y03015D01*
X03201Y03016D01*
X03203Y03017D01*
X03204Y03020D01*
X03205Y03022D01*
X03206Y03025D01*
X03207Y03029D01*
X03207Y03033D01*
X03207Y03037D01*
X03231D01*
X03231Y03033D01*
D02*
G37*
G36*
X06695Y03095D02*
X06696Y03091D01*
X06696Y03087D01*
X06697Y03084D01*
X06698Y03082D01*
X06699Y03080D01*
X06701Y03078D01*
X06703Y03077D01*
X06705Y03076D01*
X06707Y03076D01*
X06660D01*
X06662Y03076D01*
X06664Y03077D01*
X06666Y03078D01*
X06667Y03080D01*
X06668Y03082D01*
X06670Y03084D01*
X06670Y03087D01*
X06671Y03091D01*
X06671Y03095D01*
X06671Y03099D01*
X06695D01*
X06695Y03095D01*
D02*
G37*
G36*
X03249Y03211D02*
X03250Y03209D01*
X03251Y03208D01*
X03253Y03206D01*
X03255Y03205D01*
X03258Y03204D01*
X03261Y03203D01*
X03264Y03202D01*
X03268Y03202D01*
X03273Y03202D01*
Y03178D01*
X03268Y03178D01*
X03264Y03178D01*
X03261Y03177D01*
X03258Y03176D01*
X03255Y03175D01*
X03253Y03174D01*
X03251Y03172D01*
X03250Y03171D01*
X03249Y03169D01*
X03249Y03166D01*
Y03214D01*
X03249Y03211D01*
D02*
G37*
G36*
X03366Y03162D02*
X03366Y03162D01*
X03374D01*
X03373Y03161D01*
X03371Y03161D01*
X03370Y03159D01*
X03369Y03158D01*
X03368Y03156D01*
X03368Y03153D01*
X03367Y03153D01*
X03368Y03152D01*
X03369Y03148D01*
X03370Y03145D01*
X03372Y03141D01*
X03374Y03138D01*
X03376Y03135D01*
X03379Y03131D01*
X03381Y03128D01*
X03326Y03131D01*
X03329Y03134D01*
X03332Y03137D01*
X03335Y03140D01*
X03337Y03143D01*
X03339Y03146D01*
X03340Y03149D01*
X03341Y03153D01*
X03341Y03153D01*
X03341Y03156D01*
X03340Y03158D01*
X03339Y03159D01*
X03338Y03161D01*
X03336Y03161D01*
X03335Y03162D01*
X03343D01*
X03343Y03163D01*
X03366Y03162D01*
D02*
G37*
G36*
X03246Y03151D02*
X03244Y03150D01*
X03242Y03149D01*
X03241Y03147D01*
X03239Y03145D01*
X03238Y03142D01*
X03237Y03139D01*
X03237Y03136D01*
X03236Y03132D01*
X03236Y03127D01*
X03213D01*
X03213Y03132D01*
X03212Y03136D01*
X03212Y03139D01*
X03211Y03142D01*
X03210Y03145D01*
X03209Y03147D01*
X03207Y03149D01*
X03205Y03150D01*
X03203Y03151D01*
X03201Y03151D01*
X03248D01*
X03246Y03151D01*
D02*
G37*
G36*
X06463Y04155D02*
Y04155D01*
X06463D01*
X06571Y03958D01*
Y03859D01*
Y03712D01*
X06466Y03568D01*
X06463Y03564D01*
Y03564D01*
X06463Y03564D01*
X06099Y03564D01*
X06099Y03564D01*
D01*
X06010Y03731D01*
Y03987D01*
X06099Y04155D01*
X06463Y04155D01*
D02*
G37*
G36*
X03466Y03478D02*
X03468Y03478D01*
X03472Y03477D01*
Y03454D01*
X03468Y03454D01*
X03466Y03454D01*
Y03438D01*
X03463Y03441D01*
X03460Y03444D01*
X03457Y03446D01*
X03453Y03448D01*
X03452Y03449D01*
X03451Y03448D01*
X03450Y03446D01*
X03449Y03444D01*
X03449Y03442D01*
Y03450D01*
X03447Y03451D01*
X03443Y03452D01*
X03440Y03453D01*
X03437Y03454D01*
X03433Y03454D01*
X03433Y03477D01*
X03437Y03478D01*
X03440Y03478D01*
X03443Y03479D01*
X03447Y03480D01*
X03449Y03481D01*
Y03489D01*
X03449Y03487D01*
X03450Y03485D01*
X03451Y03483D01*
X03452Y03482D01*
X03453Y03483D01*
X03457Y03485D01*
X03460Y03488D01*
X03463Y03490D01*
X03466Y03493D01*
Y03478D01*
D02*
G37*
G36*
X03335Y03442D02*
X03335Y03444D01*
X03334Y03446D01*
X03333Y03448D01*
X03331Y03450D01*
X03329Y03451D01*
X03326Y03452D01*
X03323Y03453D01*
X03320Y03453D01*
X03316Y03454D01*
X03311Y03454D01*
Y03477D01*
X03316Y03478D01*
X03320Y03478D01*
X03323Y03479D01*
X03326Y03479D01*
X03329Y03480D01*
X03331Y03482D01*
X03333Y03483D01*
X03334Y03485D01*
X03335Y03487D01*
X03335Y03489D01*
Y03442D01*
D02*
G37*
G36*
X05685Y04155D02*
X05685D01*
X05813Y04027D01*
Y03731D01*
X05685Y03564D01*
X05685D01*
X05685Y03564D01*
X03941Y03564D01*
Y03564D01*
X03097D01*
X01167D01*
X01108Y03643D01*
Y03968D01*
X01177Y04036D01*
X01177D01*
X01177Y04036D01*
X02998D01*
X02998Y04036D01*
X02998D01*
X03097Y03918D01*
Y03781D01*
X03467Y03781D01*
Y03781D01*
X03467D01*
X03524Y03666D01*
X03941D01*
Y04056D01*
X04012Y04155D01*
X05685D01*
X05685Y04155D01*
D02*
G37*
G36*
X06463Y04627D02*
D01*
X06463D01*
X06581Y04499D01*
Y04411D01*
Y04302D01*
X06463Y04194D01*
X06463D01*
Y04194D01*
X04455Y04194D01*
X04455Y04194D01*
Y04194D01*
X04451Y04197D01*
X04297Y04302D01*
Y04411D01*
Y04519D01*
X04435Y04627D01*
X06463Y04627D01*
D02*
G37*
G36*
X02782Y04450D02*
Y04145D01*
X02697Y04079D01*
X02693Y04076D01*
X02693Y04076D01*
X02693Y04076D01*
X01177D01*
X01108Y04155D01*
Y04470D01*
X01177Y04548D01*
X02723D01*
X02782Y04450D01*
D02*
G37*
G36*
X03894Y04548D02*
Y04548D01*
X03894Y04548D01*
Y04543D01*
X03894Y03909D01*
X03894D01*
Y03909D01*
X03825Y03840D01*
X03710D01*
X03677Y03741D01*
X03676Y03760D01*
X03673Y03777D01*
X03668Y03791D01*
X03662Y03804D01*
X03653Y03815D01*
X03642Y03824D01*
X03629Y03831D01*
X03614Y03836D01*
X03598Y03839D01*
X03579Y03840D01*
Y03840D01*
X03520D01*
X03471Y03889D01*
X03426Y03933D01*
X03471Y03977D01*
Y04184D01*
X03402Y04302D01*
X03351Y04389D01*
X03402Y04440D01*
Y04578D01*
X03480Y04627D01*
X03815D01*
X03894Y04548D01*
D02*
G37*
G36*
X03103Y03426D02*
X03101Y03426D01*
X03099Y03424D01*
X03098Y03423D01*
X03097Y03421D01*
X03096Y03418D01*
X03095Y03415D01*
X03094Y03411D01*
X03094Y03407D01*
X03094Y03403D01*
X03070D01*
X03070Y03407D01*
X03070Y03411D01*
X03069Y03415D01*
X03068Y03418D01*
X03067Y03421D01*
X03066Y03423D01*
X03064Y03424D01*
X03062Y03426D01*
X03060Y03426D01*
X03058Y03427D01*
X03105D01*
X03103Y03426D01*
D02*
G37*
G36*
X03094Y03396D02*
X03094Y03392D01*
X03095Y03388D01*
X03096Y03385D01*
X03097Y03383D01*
X03098Y03381D01*
X03099Y03379D01*
X03101Y03378D01*
X03103Y03377D01*
X03105Y03377D01*
X03058D01*
X03060Y03377D01*
X03062Y03378D01*
X03064Y03379D01*
X03066Y03381D01*
X03067Y03383D01*
X03068Y03385D01*
X03069Y03388D01*
X03070Y03392D01*
X03070Y03396D01*
X03070Y03401D01*
X03094D01*
X03094Y03396D01*
D02*
G37*
G36*
X06695Y03371D02*
X06695Y03367D01*
X06696Y03363D01*
X06697Y03360D01*
X06698Y03357D01*
X06699Y03355D01*
X06701Y03354D01*
X06702Y03352D01*
X06704Y03352D01*
X06707Y03352D01*
X06659D01*
X06662Y03352D01*
X06664Y03352D01*
X06665Y03354D01*
X06667Y03355D01*
X06668Y03357D01*
X06669Y03360D01*
X06670Y03363D01*
X06671Y03367D01*
X06671Y03371D01*
X06671Y03375D01*
X06695D01*
X06695Y03371D01*
D02*
G37*
G36*
X03447Y03437D02*
X03446Y03436D01*
X03445Y03435D01*
X03444Y03433D01*
X03443Y03431D01*
X03442Y03429D01*
X03442Y03426D01*
X03441Y03422D01*
X03441Y03414D01*
X03417D01*
X03417Y03418D01*
X03417Y03426D01*
X03416Y03429D01*
X03416Y03431D01*
X03415Y03433D01*
X03414Y03435D01*
X03413Y03436D01*
X03411Y03437D01*
X03410Y03437D01*
X03449D01*
X03447Y03437D01*
D02*
G37*
G36*
X03254Y03487D02*
X03255Y03485D01*
X03256Y03483D01*
X03258Y03482D01*
X03260Y03480D01*
X03262Y03479D01*
X03266Y03479D01*
X03269Y03478D01*
X03273Y03478D01*
X03278Y03477D01*
Y03454D01*
X03273Y03454D01*
X03269Y03453D01*
X03266Y03453D01*
X03262Y03452D01*
X03260Y03451D01*
X03258Y03450D01*
X03256Y03448D01*
X03255Y03446D01*
X03254Y03444D01*
X03254Y03442D01*
Y03489D01*
X03254Y03487D01*
D02*
G37*
G36*
X03057Y03442D02*
X03057Y03444D01*
X03057Y03446D01*
X03055Y03448D01*
X03054Y03450D01*
X03052Y03451D01*
X03049Y03452D01*
X03046Y03453D01*
X03042Y03453D01*
X03038Y03454D01*
X03034Y03454D01*
Y03477D01*
X03038Y03478D01*
X03042Y03478D01*
X03046Y03479D01*
X03049Y03479D01*
X03052Y03480D01*
X03054Y03482D01*
X03055Y03483D01*
X03057Y03485D01*
X03057Y03487D01*
X03057Y03489D01*
Y03442D01*
D02*
G37*
G36*
X02959Y03487D02*
X02960Y03485D01*
X02961Y03483D01*
X02962Y03482D01*
X02965Y03480D01*
X02967Y03479D01*
X02970Y03479D01*
X02974Y03478D01*
X02978Y03478D01*
X02982Y03477D01*
Y03454D01*
X02978Y03454D01*
X02974Y03453D01*
X02970Y03453D01*
X02967Y03452D01*
X02965Y03451D01*
X02962Y03450D01*
X02961Y03448D01*
X02960Y03446D01*
X02959Y03444D01*
X02959Y03442D01*
Y03489D01*
X02959Y03487D01*
D02*
G37*
G36*
X02243Y02524D02*
X02243Y02520D01*
X02244Y02516D01*
X02245Y02513D01*
X02246Y02511D01*
X02247Y02509D01*
X02248Y02507D01*
X02250Y02506D01*
X02252Y02505D01*
X02254Y02505D01*
X02207D01*
X02209Y02505D01*
X02211Y02506D01*
X02213Y02507D01*
X02215Y02509D01*
X02216Y02511D01*
X02217Y02513D01*
X02218Y02516D01*
X02219Y02520D01*
X02219Y02524D01*
X02219Y02529D01*
X02243D01*
X02243Y02524D01*
D02*
G37*
G36*
X01465Y02538D02*
X01466Y02536D01*
X01467Y02534D01*
X01468Y02533D01*
X01471Y02532D01*
X01473Y02531D01*
X01476Y02530D01*
X01480Y02529D01*
X01484Y02529D01*
X01488Y02529D01*
Y02505D01*
X01484Y02505D01*
X01480Y02505D01*
X01476Y02504D01*
X01473Y02503D01*
X01471Y02502D01*
X01468Y02501D01*
X01467Y02499D01*
X01466Y02497D01*
X01465Y02495D01*
X01465Y02493D01*
Y02540D01*
X01465Y02538D01*
D02*
G37*
G36*
X02747Y02517D02*
X02744Y02514D01*
X02742Y02511D01*
X02740Y02507D01*
X02738Y02504D01*
X02737Y02501D01*
X02736Y02498D01*
X02735Y02494D01*
X02735Y02491D01*
X02734Y02487D01*
X02711D01*
X02711Y02491D01*
X02710Y02494D01*
X02709Y02498D01*
X02708Y02501D01*
X02707Y02504D01*
X02705Y02507D01*
X02703Y02511D01*
X02701Y02514D01*
X02698Y02517D01*
X02695Y02520D01*
X02750D01*
X02747Y02517D01*
D02*
G37*
G36*
X03131Y02579D02*
X03131Y02574D01*
X03132Y02571D01*
X03133Y02568D01*
X03134Y02565D01*
X03135Y02563D01*
X03137Y02561D01*
X03138Y02560D01*
X03140Y02560D01*
X03143Y02559D01*
X03095D01*
X03098Y02560D01*
X03100Y02560D01*
X03101Y02561D01*
X03103Y02563D01*
X03104Y02565D01*
X03105Y02568D01*
X03106Y02571D01*
X03107Y02574D01*
X03107Y02579D01*
X03107Y02583D01*
X03131D01*
X03131Y02579D01*
D02*
G37*
G36*
X01711Y02617D02*
X01712Y02615D01*
X01713Y02613D01*
X01714Y02612D01*
X01717Y02610D01*
X01719Y02609D01*
X01722Y02608D01*
X01726Y02608D01*
X01730Y02607D01*
X01734Y02607D01*
Y02584D01*
X01730Y02584D01*
X01726Y02583D01*
X01722Y02583D01*
X01719Y02582D01*
X01717Y02581D01*
X01714Y02579D01*
X01713Y02578D01*
X01712Y02576D01*
X01711Y02574D01*
X01711Y02572D01*
Y02619D01*
X01711Y02617D01*
D02*
G37*
G36*
X01632Y02572D02*
X01632Y02574D01*
X01631Y02576D01*
X01630Y02578D01*
X01628Y02579D01*
X01626Y02581D01*
X01624Y02582D01*
X01621Y02583D01*
X01617Y02583D01*
X01613Y02584D01*
X01609Y02584D01*
Y02607D01*
X01613Y02607D01*
X01617Y02608D01*
X01621Y02608D01*
X01624Y02609D01*
X01626Y02610D01*
X01628Y02612D01*
X01630Y02613D01*
X01631Y02615D01*
X01632Y02617D01*
X01632Y02619D01*
Y02572D01*
D02*
G37*
G36*
X01467Y02626D02*
X01468Y02622D01*
X01469Y02619D01*
X01470Y02616D01*
X01473Y02613D01*
X01475Y02611D01*
X01478Y02609D01*
X01482Y02608D01*
X01486Y02608D01*
X01490Y02607D01*
Y02584D01*
X01486Y02584D01*
X01482Y02583D01*
X01478Y02582D01*
X01475Y02580D01*
X01473Y02578D01*
X01470Y02575D01*
X01469Y02572D01*
X01468Y02569D01*
X01467Y02565D01*
X01467Y02560D01*
X01443D01*
X01443Y02565D01*
X01442Y02569D01*
X01441Y02572D01*
X01439Y02575D01*
X01437Y02578D01*
X01435Y02580D01*
X01431Y02582D01*
X01428Y02583D01*
X01424Y02584D01*
X01419Y02584D01*
Y02607D01*
X01424Y02608D01*
X01428Y02608D01*
X01431Y02609D01*
X01435Y02611D01*
X01437Y02613D01*
X01439Y02616D01*
X01441Y02619D01*
X01442Y02622D01*
X01443Y02626D01*
X01443Y02631D01*
X01467D01*
X01467Y02626D01*
D02*
G37*
G36*
X01490Y02450D02*
X01491Y02448D01*
X01492Y02446D01*
X01494Y02444D01*
X01496Y02443D01*
X01499Y02442D01*
X01502Y02441D01*
X01505Y02441D01*
X01509Y02440D01*
X01514Y02440D01*
Y02416D01*
X01509Y02416D01*
X01505Y02416D01*
X01502Y02415D01*
X01499Y02415D01*
X01496Y02413D01*
X01494Y02412D01*
X01492Y02411D01*
X01491Y02409D01*
X01490Y02407D01*
X01490Y02405D01*
Y02452D01*
X01490Y02450D01*
D02*
G37*
G36*
X03032Y02418D02*
X03032Y02414D01*
X03033Y02410D01*
X03034Y02407D01*
X03035Y02404D01*
X03036Y02402D01*
X03037Y02401D01*
X03039Y02400D01*
X03041Y02399D01*
X03043Y02399D01*
X02996D01*
X02998Y02399D01*
X03000Y02400D01*
X03002Y02401D01*
X03004Y02402D01*
X03005Y02404D01*
X03006Y02407D01*
X03007Y02410D01*
X03008Y02414D01*
X03008Y02418D01*
X03008Y02422D01*
X03032D01*
X03032Y02418D01*
D02*
G37*
G36*
X01796Y02398D02*
X01793Y02395D01*
X01791Y02391D01*
X01789Y02388D01*
X01787Y02385D01*
X01786Y02381D01*
X01785Y02378D01*
X01784Y02374D01*
X01784Y02374D01*
X01784Y02372D01*
X01785Y02368D01*
X01786Y02366D01*
X01787Y02364D01*
X01789Y02362D01*
X01791Y02361D01*
X01793Y02360D01*
X01795Y02360D01*
X01748D01*
X01750Y02360D01*
X01752Y02361D01*
X01754Y02362D01*
X01755Y02364D01*
X01757Y02366D01*
X01758Y02368D01*
X01758Y02372D01*
X01759Y02374D01*
X01758Y02377D01*
X01757Y02380D01*
X01755Y02384D01*
X01754Y02387D01*
X01752Y02390D01*
X01749Y02393D01*
X01746Y02396D01*
X01743Y02399D01*
X01798Y02401D01*
X01796Y02398D01*
D02*
G37*
G36*
X01544Y02405D02*
X01543Y02407D01*
X01543Y02409D01*
X01542Y02411D01*
X01540Y02412D01*
X01538Y02413D01*
X01535Y02415D01*
X01532Y02415D01*
X01529Y02416D01*
X01524Y02416D01*
X01520Y02416D01*
Y02440D01*
X01524Y02440D01*
X01529Y02441D01*
X01532Y02441D01*
X01535Y02442D01*
X01538Y02443D01*
X01540Y02444D01*
X01542Y02446D01*
X01543Y02448D01*
X01543Y02450D01*
X01544Y02452D01*
Y02405D01*
D02*
G37*
G36*
X01408Y02476D02*
X01408Y02468D01*
X01409Y02465D01*
X01410Y02463D01*
X01410Y02460D01*
X01411Y02459D01*
X01413Y02458D01*
X01414Y02457D01*
X01415Y02457D01*
X01376D01*
X01378Y02457D01*
X01379Y02458D01*
X01380Y02459D01*
X01381Y02460D01*
X01382Y02463D01*
X01383Y02465D01*
X01383Y02468D01*
X01384Y02472D01*
X01384Y02480D01*
X01408D01*
X01408Y02476D01*
D02*
G37*
G36*
X03140Y02473D02*
X03138Y02472D01*
X03137Y02471D01*
X03135Y02469D01*
X03134Y02467D01*
X03133Y02464D01*
X03132Y02461D01*
X03131Y02458D01*
X03131Y02454D01*
X03131Y02449D01*
X03107D01*
X03107Y02454D01*
X03107Y02458D01*
X03106Y02461D01*
X03105Y02464D01*
X03104Y02467D01*
X03103Y02469D01*
X03101Y02471D01*
X03100Y02472D01*
X03098Y02473D01*
X03095Y02473D01*
X03143D01*
X03140Y02473D01*
D02*
G37*
G36*
X03041D02*
X03039Y02472D01*
X03037Y02471D01*
X03036Y02469D01*
X03035Y02467D01*
X03034Y02464D01*
X03033Y02461D01*
X03032Y02458D01*
X03032Y02454D01*
X03032Y02449D01*
X03008D01*
X03008Y02454D01*
X03008Y02458D01*
X03007Y02461D01*
X03006Y02464D01*
X03005Y02467D01*
X03004Y02469D01*
X03002Y02471D01*
X03000Y02472D01*
X02998Y02473D01*
X02996Y02473D01*
X03043D01*
X03041Y02473D01*
D02*
G37*
G36*
X06695Y02813D02*
X06695Y02808D01*
X06696Y02803D01*
X06696Y02799D01*
X06697Y02796D01*
X06698Y02793D01*
X06699Y02790D01*
X06701Y02788D01*
X06703Y02787D01*
X06705Y02786D01*
X06707Y02786D01*
X06660Y02789D01*
X06662Y02789D01*
X06664Y02789D01*
X06666Y02791D01*
X06667Y02792D01*
X06668Y02794D01*
X06670Y02797D01*
X06670Y02801D01*
X06671Y02804D01*
X06671Y02809D01*
X06671Y02814D01*
X06695Y02813D01*
D02*
G37*
G36*
X02095Y02803D02*
X02094Y02802D01*
X02093Y02801D01*
X02092Y02800D01*
X02091Y02797D01*
X02090Y02795D01*
X02089Y02792D01*
X02089Y02788D01*
X02089Y02780D01*
X02065D01*
X02065Y02784D01*
X02064Y02792D01*
X02064Y02795D01*
X02063Y02797D01*
X02062Y02800D01*
X02061Y02801D01*
X02060Y02802D01*
X02059Y02803D01*
X02057Y02803D01*
X02096D01*
X02095Y02803D01*
D02*
G37*
G36*
X02466Y02722D02*
X02462Y02721D01*
X02458Y02721D01*
X02454Y02719D01*
X02451Y02718D01*
X02449Y02716D01*
X02446Y02713D01*
X02445Y02710D01*
X02444Y02708D01*
X02445Y02706D01*
X02446Y02703D01*
X02447Y02701D01*
X02448Y02698D01*
X02450Y02697D01*
X02452Y02696D01*
X02454Y02696D01*
X02407D01*
X02410Y02696D01*
X02412Y02697D01*
X02413Y02698D01*
X02415Y02701D01*
X02416Y02703D01*
X02417Y02706D01*
X02418Y02708D01*
X02417Y02710D01*
X02415Y02713D01*
X02413Y02716D01*
X02411Y02718D01*
X02407Y02719D01*
X02404Y02721D01*
X02400Y02721D01*
X02395Y02722D01*
X02431Y02745D01*
X02466Y02722D01*
D02*
G37*
G36*
X01122Y02819D02*
X01123Y02815D01*
X01123Y02812D01*
X01124Y02809D01*
X01125Y02806D01*
X01126Y02804D01*
X01128Y02802D01*
X01130Y02801D01*
X01132Y02800D01*
X01134Y02800D01*
X01087D01*
X01089Y02800D01*
X01091Y02801D01*
X01093Y02802D01*
X01094Y02804D01*
X01096Y02806D01*
X01097Y02809D01*
X01098Y02812D01*
X01098Y02815D01*
X01098Y02819D01*
X01099Y02824D01*
X01122D01*
X01122Y02819D01*
D02*
G37*
G36*
X02933Y03033D02*
X02934Y03029D01*
X02934Y03025D01*
X02935Y03022D01*
X02936Y03020D01*
X02937Y03018D01*
X02939Y03016D01*
X02940Y03015D01*
X02942Y03014D01*
X02945Y03014D01*
X02898Y03014D01*
X02900Y03014D01*
X02902Y03015D01*
X02904Y03016D01*
X02905Y03017D01*
X02907Y03020D01*
X02908Y03022D01*
X02909Y03025D01*
X02909Y03029D01*
X02909Y03033D01*
X02910Y03037D01*
X02933D01*
X02933Y03033D01*
D02*
G37*
G36*
X06705Y02962D02*
X06703Y02961D01*
X06701Y02960D01*
X06699Y02958D01*
X06698Y02956D01*
X06697Y02953D01*
X06696Y02950D01*
X06696Y02947D01*
X06695Y02943D01*
X06695Y02938D01*
X06671D01*
X06671Y02943D01*
X06671Y02947D01*
X06670Y02950D01*
X06670Y02953D01*
X06668Y02956D01*
X06667Y02958D01*
X06666Y02960D01*
X06664Y02961D01*
X06662Y02962D01*
X06660Y02962D01*
X06707D01*
X06705Y02962D01*
D02*
G37*
G36*
X02171Y02857D02*
X02172Y02855D01*
X02173Y02853D01*
X02175Y02852D01*
X02177Y02850D01*
X02180Y02849D01*
X02183Y02849D01*
X02186Y02848D01*
X02190Y02848D01*
X02195Y02848D01*
Y02824D01*
X02190Y02824D01*
X02186Y02823D01*
X02183Y02823D01*
X02180Y02822D01*
X02177Y02821D01*
X02175Y02820D01*
X02173Y02818D01*
X02172Y02816D01*
X02171Y02814D01*
X02171Y02812D01*
Y02859D01*
X02171Y02857D01*
D02*
G37*
G36*
X01722Y02656D02*
X01720Y02655D01*
X01719Y02654D01*
X01717Y02652D01*
X01716Y02650D01*
X01715Y02647D01*
X01714Y02644D01*
X01713Y02641D01*
X01713Y02637D01*
X01713Y02632D01*
X01689D01*
X01689Y02637D01*
X01688Y02655D01*
X01688Y02655D01*
X01687Y02656D01*
X01725Y02656D01*
X01722Y02656D01*
D02*
G37*
G36*
X02452Y02613D02*
X02450Y02612D01*
X02448Y02611D01*
X02447Y02609D01*
X02446Y02606D01*
X02445Y02603D01*
X02444Y02599D01*
X02443Y02594D01*
X02443Y02589D01*
X02443Y02584D01*
X02419D01*
X02419Y02589D01*
X02418Y02599D01*
X02417Y02603D01*
X02416Y02606D01*
X02415Y02609D01*
X02413Y02611D01*
X02412Y02612D01*
X02410Y02613D01*
X02407Y02613D01*
X02454D01*
X02452Y02613D01*
D02*
G37*
G36*
X02252D02*
X02250Y02612D01*
X02248Y02611D01*
X02247Y02609D01*
X02246Y02606D01*
X02245Y02603D01*
X02244Y02599D01*
X02243Y02594D01*
X02243Y02589D01*
X02243Y02584D01*
X02219D01*
X02219Y02589D01*
X02218Y02599D01*
X02217Y02603D01*
X02216Y02606D01*
X02215Y02609D01*
X02213Y02611D01*
X02212Y02612D01*
X02210Y02613D01*
X02207Y02613D01*
X02254D01*
X02252Y02613D01*
D02*
G37*
G36*
X01524Y02706D02*
X01524Y02704D01*
X01526Y02702D01*
X01527Y02700D01*
X01529Y02699D01*
X01532Y02698D01*
X01535Y02697D01*
X01539Y02696D01*
X01543Y02696D01*
X01547Y02696D01*
Y02672D01*
X01543Y02672D01*
X01539Y02672D01*
X01535Y02671D01*
X01532Y02670D01*
X01529Y02669D01*
X01527Y02668D01*
X01526Y02667D01*
X01524Y02665D01*
X01524Y02663D01*
X01524Y02661D01*
Y02708D01*
X01524Y02706D01*
D02*
G37*
G36*
X02394Y02631D02*
X02394Y02633D01*
X02393Y02635D01*
X02392Y02637D01*
X02390Y02639D01*
X02388Y02640D01*
X02385Y02641D01*
X02381Y02642D01*
X02381Y02642D01*
X02380Y02642D01*
X02377Y02641D01*
X02374Y02640D01*
X02372Y02639D01*
X02370Y02637D01*
X02369Y02635D01*
X02368Y02633D01*
X02368Y02631D01*
Y02678D01*
X02368Y02676D01*
X02369Y02674D01*
X02370Y02672D01*
X02372Y02671D01*
X02374Y02669D01*
X02377Y02668D01*
X02380Y02667D01*
X02381Y02667D01*
X02381Y02667D01*
X02385Y02668D01*
X02388Y02669D01*
X02390Y02671D01*
X02392Y02672D01*
X02393Y02674D01*
X02394Y02676D01*
X02394Y02678D01*
Y02631D01*
D02*
G37*
G36*
X01132Y02686D02*
X01130Y02685D01*
X01128Y02684D01*
X01126Y02682D01*
X01125Y02680D01*
X01124Y02678D01*
X01123Y02675D01*
X01123Y02671D01*
X01122Y02667D01*
X01122Y02663D01*
X01099D01*
X01098Y02667D01*
X01098Y02671D01*
X01098Y02675D01*
X01097Y02678D01*
X01096Y02680D01*
X01094Y02682D01*
X01093Y02684D01*
X01091Y02685D01*
X01089Y02686D01*
X01087Y02686D01*
X01134D01*
X01132Y02686D01*
D02*
G37*
G36*
X01612Y02661D02*
X01612Y02663D01*
X01612Y02665D01*
X01610Y02667D01*
X01609Y02668D01*
X01607Y02669D01*
X01604Y02670D01*
X01601Y02671D01*
X01597Y02672D01*
X01593Y02672D01*
X01589Y02672D01*
Y02696D01*
X01593Y02696D01*
X01597Y02696D01*
X01601Y02697D01*
X01604Y02698D01*
X01607Y02699D01*
X01609Y02700D01*
X01610Y02702D01*
X01612Y02704D01*
X01612Y02706D01*
X01612Y02708D01*
Y02661D01*
D02*
G37*
G54D10*
X01110Y02781D02*
D03*
Y02706D02*
D03*
X02232Y02411D02*
D03*
Y02485D02*
D03*
Y02251D02*
D03*
Y02326D02*
D03*
X02301Y01970D02*
D03*
Y02044D02*
D03*
X01366Y02056D02*
D03*
Y02131D02*
D03*
X06683Y03257D02*
D03*
Y03332D02*
D03*
X06683Y02981D02*
D03*
Y03056D02*
D03*
G54D11*
X02126Y02044D02*
D03*
X02201D02*
D03*
X02152Y02832D02*
D03*
X02077D02*
D03*
X03354Y03190D02*
D03*
X03429D02*
D03*
X03354Y03466D02*
D03*
X03429D02*
D03*
X01457Y02054D02*
D03*
X01532D02*
D03*
X01398Y02300D02*
D03*
X01473D02*
D03*
X01471Y02428D02*
D03*
X01396D02*
D03*
X01707Y02684D02*
D03*
X01632D02*
D03*
X03266Y03889D02*
D03*
X03341D02*
D03*
G54D12*
X02075Y02349D02*
D03*
X02134D02*
D03*
X01701Y02596D02*
D03*
X01642D02*
D03*
X02949Y03466D02*
D03*
X02890D02*
D03*
X01612Y02428D02*
D03*
X01553D02*
D03*
X01514Y01946D02*
D03*
X01455D02*
D03*
X01514Y02133D02*
D03*
X01455D02*
D03*
X01209D02*
D03*
X01268D02*
D03*
X01455Y02517D02*
D03*
X01396Y02517D02*
D03*
X01455Y02684D02*
D03*
X01514D02*
D03*
X03087Y03889D02*
D03*
X03146D02*
D03*
G54D13*
X01771Y02347D02*
D03*
Y02297D02*
D03*
Y02247D02*
D03*
Y02197D02*
D03*
Y02147D02*
D03*
Y02097D02*
D03*
Y02047D02*
D03*
Y01997D02*
D03*
X01985D02*
D03*
Y02047D02*
D03*
Y02097D02*
D03*
Y02147D02*
D03*
Y02197D02*
D03*
Y02247D02*
D03*
Y02297D02*
D03*
Y02347D02*
D03*
G54D14*
X02154Y01946D02*
D03*
Y01887D02*
D03*
X03020Y02389D02*
D03*
Y02330D02*
D03*
X02065Y01946D02*
D03*
Y01887D02*
D03*
X04730Y04204D02*
D03*
Y04145D02*
D03*
X02429Y02310D02*
D03*
Y02251D02*
D03*
X02664Y04027D02*
D03*
Y04086D02*
D03*
G54D15*
X03082Y03466D02*
D03*
X03229D02*
D03*
Y03338D02*
D03*
X03082D02*
D03*
X03077Y03190D02*
D03*
X03225D02*
D03*
G54D16*
X03331Y03338D02*
D03*
X03433D02*
D03*
G54D17*
X02919Y02970D02*
D03*
X03019D02*
D03*
X03119D02*
D03*
X03219D02*
D03*
Y02516D02*
D03*
X03119D02*
D03*
X03019D02*
D03*
X02919D02*
D03*
G54D18*
X02691Y02162D02*
D03*
X03010D02*
D03*
G54D19*
X02803Y02222D02*
D03*
Y02103D02*
D03*
X03122Y02222D02*
D03*
Y02103D02*
D03*
G54D20*
X02799Y02162D02*
D03*
X03118D02*
D03*
G54D21*
X02349Y04227D02*
D03*
Y03885D02*
D03*
X01837Y04227D02*
D03*
Y03885D02*
D03*
X05597Y04351D02*
D03*
Y04009D02*
D03*
X05085Y04355D02*
D03*
Y04013D02*
D03*
G54D22*
X06032Y03800D02*
D03*
X05791D02*
D03*
G54D23*
X06679Y03056D02*
X06681Y03058D01*
X01073Y02151D02*
Y02554D01*
X01110Y02592D01*
Y02706D01*
X01073Y02151D02*
X01167Y02056D01*
X01232Y02247D02*
X01771D01*
X01169Y02310D02*
X01232Y02247D01*
X01366Y02172D02*
X01391Y02197D01*
X01771D01*
X01366Y02131D02*
Y02172D01*
X01110Y02781D02*
Y02966D01*
X01561Y03416D01*
X03119Y02398D02*
X03227Y02290D01*
X03119Y02398D02*
Y02516D01*
X02919Y02970D02*
X02921Y02973D01*
Y03082D01*
X02896Y03107D02*
X02921Y03082D01*
X02890Y03107D02*
X02896D01*
X03219Y03041D02*
X03225Y03046D01*
Y03190D01*
X02152Y02836D02*
X03343D01*
X03494Y03466D02*
X03494Y03466D01*
X03429Y03466D02*
X03494D01*
X06681Y03058D02*
X06683Y03056D01*
X06650Y04312D02*
X06683Y04279D01*
X06571Y04312D02*
X06650D01*
X06683Y03332D02*
Y04279D01*
X02431Y02733D02*
X02980D01*
X02183D02*
X02431D01*
Y02655D02*
Y02733D01*
X02134Y02349D02*
Y02684D01*
X02183Y02733D01*
X02980D02*
X03119Y02595D01*
Y02516D02*
Y02595D01*
X01911Y02097D02*
X01985D01*
X01878Y02064D02*
X01911Y02097D01*
X01878Y02025D02*
Y02064D01*
X01851Y01997D02*
X01878Y02025D01*
X01771Y01997D02*
X01851D01*
X01561Y03416D02*
Y03613D01*
X02006Y01887D02*
X02065D01*
X01977Y01857D02*
X02006Y01887D01*
X01484Y01857D02*
X01977D01*
X01455Y01887D02*
Y01946D01*
Y01887D02*
X01484Y01857D01*
X02065Y01887D02*
X02154D01*
X01532Y02054D02*
X01593D01*
X01636Y02097D01*
X01771D01*
X01514Y02133D02*
X01563D01*
X01578Y02147D01*
X01457Y01995D02*
Y02054D01*
Y01948D02*
Y01995D01*
X01593D01*
X01455Y01946D02*
X01457Y01948D01*
X01514Y01946D02*
X02065D01*
X01770Y01956D02*
X01771Y01957D01*
X01364Y02133D02*
X01366Y02131D01*
X01268Y02133D02*
X01364D01*
X01229Y02596D02*
X01455D01*
X01169Y02536D02*
X01229Y02596D01*
X01169Y02310D02*
Y02536D01*
X03963Y03456D02*
X06049D01*
X06108Y03515D01*
Y03613D01*
X03343Y02836D02*
X03963Y03456D01*
X02075Y02349D02*
X02077Y02351D01*
Y02832D01*
X02429Y02428D02*
X02431Y02430D01*
Y02655D01*
X02331D02*
X02431D01*
X02231Y02487D02*
X02232Y02485D01*
X02231Y02487D02*
Y02655D01*
X02232Y02326D02*
Y02411D01*
X02301Y01970D02*
X03191D01*
X03227Y02162D02*
Y02290D01*
X01770Y02428D02*
X01771Y02427D01*
Y02347D02*
Y02427D01*
X01878Y02320D02*
Y02546D01*
X01829Y02596D02*
X01878Y02546D01*
X01701Y02596D02*
X01829D01*
X01878Y02320D02*
X01901Y02297D01*
X01258Y02300D02*
X01327D01*
X02429Y02310D02*
Y02428D01*
X02161Y02297D02*
X02189Y02326D01*
X02073Y02347D02*
X02075Y02349D01*
X02189Y02326D02*
X02232D01*
X02229Y02247D02*
X02232Y02251D01*
X02429D01*
X01701Y02678D02*
X01707Y02684D01*
X01701Y02596D02*
Y02678D01*
X01455Y02596D02*
Y02684D01*
Y02517D02*
Y02596D01*
X01642D01*
X01514Y02684D02*
X01632D01*
X01366Y02056D02*
X01455D01*
X01771Y01957D02*
Y01997D01*
X01578Y02147D02*
X01771D01*
X02065Y01946D02*
X02154D01*
X03118Y02162D02*
X03227D01*
Y02005D02*
Y02162D01*
X03191Y01970D02*
X03227Y02005D01*
X02301Y01916D02*
Y01970D01*
X02272Y01887D02*
X02301Y01916D01*
X02154Y01887D02*
X02272D01*
X02803Y02044D02*
X02823D01*
X02301D02*
X02803D01*
X02823D02*
X02823Y02044D01*
X02201Y02044D02*
X02301D01*
X02123Y02047D02*
X02126Y02044D01*
X03020Y02389D02*
Y02515D01*
X02890Y03107D02*
Y03466D01*
X03219Y02970D02*
Y03041D01*
X03520Y04253D02*
Y04355D01*
X03353Y03101D02*
X03354Y03103D01*
Y03190D01*
X03429D02*
X03433Y03194D01*
Y03338D01*
X03429Y03342D02*
X03433Y03338D01*
X03429Y03342D02*
Y03466D01*
X03225Y03190D02*
X03354D01*
X03229Y03338D02*
X03331D01*
X03229Y03466D02*
X03354D01*
X03077Y03190D02*
Y03333D01*
X03082Y03338D01*
Y03466D01*
X03082Y03466D02*
X03082Y03466D01*
X02949Y03466D02*
X03082D01*
X03020Y02290D02*
X03099D01*
X02833D02*
X03020D01*
Y02330D01*
X02803Y02261D02*
X02833Y02290D01*
X02803Y02222D02*
Y02261D01*
X03122Y02222D02*
Y02267D01*
X03099Y02290D02*
X03122Y02267D01*
X02823Y02044D02*
X03108D01*
X02803Y02044D02*
Y02103D01*
X03128Y02064D02*
Y02098D01*
X03108Y02044D02*
X03128Y02064D01*
X03122Y02103D02*
X03128Y02098D01*
X03019Y02516D02*
X03020Y02515D01*
X01985Y02097D02*
Y02147D01*
Y01997D02*
Y02047D01*
Y02197D02*
Y02247D01*
X01612Y02428D02*
Y02497D01*
X01593Y02517D02*
X01612Y02497D01*
X01455Y02517D02*
X01593D01*
X01396Y02428D02*
X01396Y02428D01*
Y02517D01*
X01473Y02300D02*
X01768D01*
X01473D02*
Y02342D01*
X01445Y02369D02*
X01473Y02342D01*
X01416Y02369D02*
X01445D01*
X01396Y02389D02*
X01416Y02369D01*
X01396Y02389D02*
Y02428D01*
X01327Y02300D02*
X01327Y02300D01*
X01398D01*
X01553Y02428D02*
X01553Y02428D01*
X01471Y02428D02*
X01553D01*
X01645Y02047D02*
X01771D01*
X01593Y01995D02*
X01645Y02047D01*
X01455Y02056D02*
X01455Y02056D01*
Y02133D01*
X01532Y02054D02*
X01535Y02058D01*
X01768Y02300D02*
X01771Y02297D01*
X01985Y02347D02*
X02073D01*
X01985Y02047D02*
X02123D01*
X01901Y02297D02*
X01985D01*
X02161D01*
X06683Y03257D02*
X06683Y03257D01*
Y03056D02*
Y03056D01*
X06471Y03056D02*
X06679D01*
X06683Y03056D02*
Y03257D01*
Y02755D02*
Y02981D01*
X06679Y02751D02*
X06683Y02755D01*
X01985Y02247D02*
X02229D01*
X02723Y02194D02*
Y02548D01*
X02691Y02162D02*
X02723Y02194D01*
X02676Y02147D02*
X02691Y02162D01*
X01985Y02147D02*
X02676D01*
X01985Y02197D02*
X02482D01*
X02526Y02241D01*
X01254Y02304D02*
X01258Y02300D01*
X01254Y02304D02*
Y02355D01*
X01136Y02206D02*
X01148Y02218D01*
X01160D01*
Y02143D02*
Y02218D01*
Y02143D02*
X01169Y02133D01*
X01209D01*
X01167Y02056D02*
X01366D01*
G54D24*
X03520Y04355D02*
X03723D01*
X03323D02*
X03520D01*
X03723D02*
X03727Y04351D01*
Y03741D02*
Y04351D01*
X03727Y03741D02*
X03727Y03741D01*
X04396Y04351D02*
Y04352D01*
X03185Y03889D02*
X03234D01*
X03362Y03889D02*
X03727D01*
X03833Y03621D02*
Y03737D01*
X02647Y04245D02*
X03323D01*
X03614Y03627D02*
Y03741D01*
G54D25*
X06553Y04358D02*
D03*
G54D26*
X02778Y04192D02*
D03*
G54D27*
X02776Y04312D02*
D03*
G54D28*
X03655Y03649D02*
D03*
G54D29*
X03827Y03641D02*
D03*
X03099Y03769D02*
D03*
G54D30*
X03845Y03624D02*
D03*
G54D31*
X03939Y03661D02*
D03*
G54D32*
X03795Y03845D02*
D03*
G54D33*
X01535Y03573D02*
D03*
G54D34*
X01592Y03583D02*
D03*
G54D35*
X06122Y03561D02*
D03*
G54D36*
X03661Y04291D02*
D03*
G54D37*
X03562Y03671D02*
D03*
G54D38*
X02431Y02655D02*
D03*
X02331D02*
D03*
X02231D02*
D03*
G54D39*
X03766Y02847D02*
D03*
Y02747D02*
D03*
Y02647D02*
D03*
G54D40*
Y02547D02*
D03*
G54D41*
X03825Y03741D02*
D03*
X03727D02*
D03*
G54D42*
X03626D02*
D03*
G54D43*
X06719Y01202D02*
D03*
Y04745D02*
D03*
X01207Y01202D02*
D03*
Y04745D02*
D03*
G54D44*
X03323Y04145D02*
D03*
G54D45*
Y04245D02*
D03*
Y04345D02*
D03*
G54D46*
X04396Y04351D02*
D03*
X03727D02*
D03*
G54D47*
X06679Y02551D02*
D03*
Y02651D02*
D03*
Y02751D02*
D03*
G54D48*
X01227Y03643D02*
D03*
X01423D02*
D03*
X01227Y03918D02*
D03*
X01423D02*
D03*
X01227Y04194D02*
D03*
X01423D02*
D03*
X01227Y04470D02*
D03*
X01423D02*
D03*
X06187Y04273D02*
D03*
X06384D02*
D03*
X06187Y04548D02*
D03*
X06384D02*
D03*
X06187Y03800D02*
D03*
X06384D02*
D03*
X06187Y04076D02*
D03*
X06384D02*
D03*
G54D49*
X03494Y03466D02*
D03*
X01770Y02428D02*
D03*
X03353Y03101D02*
D03*
X06471Y03056D02*
D03*
X02723Y02548D02*
D03*
X02526Y02241D02*
D03*
X01254Y02355D02*
D03*
X01160Y02218D02*
D03*
M02*
