G04 Layer_Color=2752767*
%FSAX23Y23*%
%MOIN*%
G70*
G01*
G75*
%ADD81C,0.002*%
%ADD82C,0.003*%
G54D81*
X02423Y02647D02*
Y02663D01*
X02439D01*
Y02647D01*
X02423D01*
X02323D02*
Y02663D01*
X02339D01*
Y02647D01*
X02323D01*
X02223D02*
Y02663D01*
X02239D01*
Y02647D01*
X02223D01*
X03758Y02839D02*
Y02855D01*
X03774D01*
Y02839D01*
X03758D01*
Y02739D02*
Y02755D01*
X03774D01*
Y02739D01*
X03758D01*
Y02639D02*
Y02655D01*
X03774D01*
Y02639D01*
X03758D01*
Y02539D02*
Y02555D01*
X03774D01*
Y02539D01*
X03758D01*
X06719Y01194D02*
X06711Y01210D01*
X06727D01*
X06719Y01194D01*
X03323Y04137D02*
X03327Y04141D01*
X03331D01*
X03327Y04145D01*
X03331Y04149D01*
X03327D01*
X03323Y04153D01*
X03319Y04149D01*
X03315D01*
X03319Y04145D01*
X03315Y04141D01*
X03319D01*
X03323Y04137D01*
Y04237D02*
X03327Y04241D01*
X03331D01*
X03327Y04245D01*
X03331Y04249D01*
X03327D01*
X03323Y04253D01*
X03319Y04249D01*
X03315D01*
X03319Y04245D01*
X03315Y04241D01*
X03319D01*
X03323Y04237D01*
Y04337D02*
X03327Y04341D01*
X03331D01*
X03327Y04345D01*
X03331Y04349D01*
X03327D01*
X03323Y04353D01*
X03319Y04349D01*
X03315D01*
X03319Y04345D01*
X03315Y04341D01*
X03319D01*
X03323Y04337D01*
X04388Y04343D02*
X04392Y04351D01*
X04388Y04359D01*
X04396Y04355D01*
X04404Y04359D01*
X04400Y04351D01*
X04404Y04343D01*
X04396Y04347D01*
X04388Y04343D01*
X03719D02*
X03723Y04351D01*
X03719Y04359D01*
X03727Y04355D01*
X03735Y04359D01*
X03731Y04351D01*
X03735Y04343D01*
X03727Y04347D01*
X03719Y04343D01*
X06719Y04737D02*
X06711Y04753D01*
X06727D01*
X06719Y04737D01*
X01207Y01194D02*
X01199Y01210D01*
X01215D01*
X01207Y01194D01*
Y04737D02*
X01199Y04753D01*
X01215D01*
X01207Y04737D01*
X06671Y02543D02*
Y02559D01*
X06687D01*
Y02543D01*
X06671D01*
Y02643D02*
Y02659D01*
X06687D01*
Y02643D01*
X06671D01*
Y02743D02*
Y02759D01*
X06687D01*
Y02743D01*
X06671D01*
X01223Y03639D02*
Y03635D01*
X01231D01*
Y03639D01*
X01235D01*
Y03647D01*
X01231D01*
Y03651D01*
X01223D01*
Y03647D01*
X01219D01*
Y03639D01*
X01223D01*
X01419D02*
Y03635D01*
X01427D01*
Y03639D01*
X01431D01*
Y03647D01*
X01427D01*
Y03651D01*
X01419D01*
Y03647D01*
X01415D01*
Y03639D01*
X01419D01*
X01223Y03914D02*
Y03910D01*
X01231D01*
Y03914D01*
X01235D01*
Y03922D01*
X01231D01*
Y03926D01*
X01223D01*
Y03922D01*
X01219D01*
Y03914D01*
X01223D01*
X01419D02*
Y03910D01*
X01427D01*
Y03914D01*
X01431D01*
Y03922D01*
X01427D01*
Y03926D01*
X01419D01*
Y03922D01*
X01415D01*
Y03914D01*
X01419D01*
X01223Y04190D02*
Y04186D01*
X01231D01*
Y04190D01*
X01235D01*
Y04198D01*
X01231D01*
Y04202D01*
X01223D01*
Y04198D01*
X01219D01*
Y04190D01*
X01223D01*
X01419D02*
Y04186D01*
X01427D01*
Y04190D01*
X01431D01*
Y04198D01*
X01427D01*
Y04202D01*
X01419D01*
Y04198D01*
X01415D01*
Y04190D01*
X01419D01*
X01223Y04466D02*
Y04462D01*
X01231D01*
Y04466D01*
X01235D01*
Y04474D01*
X01231D01*
Y04478D01*
X01223D01*
Y04474D01*
X01219D01*
Y04466D01*
X01223D01*
X01419D02*
Y04462D01*
X01427D01*
Y04466D01*
X01431D01*
Y04474D01*
X01427D01*
Y04478D01*
X01419D01*
Y04474D01*
X01415D01*
Y04466D01*
X01419D01*
X06183Y04269D02*
Y04265D01*
X06191D01*
Y04269D01*
X06195D01*
Y04277D01*
X06191D01*
Y04281D01*
X06183D01*
Y04277D01*
X06179D01*
Y04269D01*
X06183D01*
X06380D02*
Y04265D01*
X06388D01*
Y04269D01*
X06392D01*
Y04277D01*
X06388D01*
Y04281D01*
X06380D01*
Y04277D01*
X06376D01*
Y04269D01*
X06380D01*
X06183Y04544D02*
Y04540D01*
X06191D01*
Y04544D01*
X06195D01*
Y04552D01*
X06191D01*
Y04556D01*
X06183D01*
Y04552D01*
X06179D01*
Y04544D01*
X06183D01*
X06380D02*
Y04540D01*
X06388D01*
Y04544D01*
X06392D01*
Y04552D01*
X06388D01*
Y04556D01*
X06380D01*
Y04552D01*
X06376D01*
Y04544D01*
X06380D01*
X06183Y03796D02*
Y03792D01*
X06191D01*
Y03796D01*
X06195D01*
Y03804D01*
X06191D01*
Y03808D01*
X06183D01*
Y03804D01*
X06179D01*
Y03796D01*
X06183D01*
X06380D02*
Y03792D01*
X06388D01*
Y03796D01*
X06392D01*
Y03804D01*
X06388D01*
Y03808D01*
X06380D01*
Y03804D01*
X06376D01*
Y03796D01*
X06380D01*
X06183Y04072D02*
Y04068D01*
X06191D01*
Y04072D01*
X06195D01*
Y04080D01*
X06191D01*
Y04084D01*
X06183D01*
Y04080D01*
X06179D01*
Y04072D01*
X06183D01*
X06380D02*
Y04068D01*
X06388D01*
Y04072D01*
X06392D01*
Y04080D01*
X06388D01*
Y04084D01*
X06380D01*
Y04080D01*
X06376D01*
Y04072D01*
X06380D01*
X03486Y03458D02*
Y03474D01*
X03502D01*
Y03458D01*
X03486D01*
X01762Y02420D02*
Y02436D01*
X01778D01*
Y02420D01*
X01762D01*
X03345Y03093D02*
Y03109D01*
X03361D01*
Y03093D01*
X03345D01*
X06463Y03048D02*
Y03064D01*
X06479D01*
Y03048D01*
X06463D01*
X02715Y02540D02*
Y02556D01*
X02731D01*
Y02540D01*
X02715D01*
X02518Y02233D02*
Y02249D01*
X02534D01*
Y02233D01*
X02518D01*
X01246Y02347D02*
Y02363D01*
X01262D01*
Y02347D01*
X01246D01*
X01152Y02210D02*
Y02226D01*
X01168D01*
Y02210D01*
X01152D01*
G54D82*
X03833Y03741D02*
X03827Y03749D01*
X03818Y03746D01*
Y03737D01*
X03827Y03734D01*
X03833Y03741D01*
X03735D02*
X03729Y03749D01*
X03720Y03746D01*
Y03737D01*
X03729Y03734D01*
X03735Y03741D01*
X03634D02*
X03629Y03749D01*
X03620Y03746D01*
Y03737D01*
X03629Y03734D01*
X03634Y03741D01*
M02*
