G04 Layer_Physical_Order=2*
G04 Layer_Color=16711680*
%FSAX23Y23*%
%MOIN*%
G70*
G01*
G75*
%ADD23C,0.024*%
%ADD38C,0.048*%
%ADD39C,0.059*%
%ADD40R,0.059X0.059*%
%ADD41C,0.078*%
%ADD42R,0.078X0.078*%
%ADD43C,0.177*%
%ADD44R,0.074X0.074*%
%ADD45C,0.074*%
%ADD46C,0.157*%
%ADD47C,0.112*%
%ADD48C,0.050*%
G36*
X01804Y02446D02*
X01803Y02444D01*
X01799Y02440D01*
X01798Y02439D01*
X01797Y02437D01*
X01796Y02435D01*
X01796Y02433D01*
X01795Y02432D01*
X01795Y02430D01*
X01795Y02428D01*
X01770Y02453D01*
X01772Y02453D01*
X01773Y02454D01*
X01775Y02454D01*
X01777Y02455D01*
X01778Y02456D01*
X01780Y02457D01*
X01782Y02458D01*
X01784Y02459D01*
X01786Y02461D01*
X01788Y02463D01*
X01804Y02446D01*
D02*
G37*
G36*
X03737Y02523D02*
X03736Y02525D01*
X03736Y02527D01*
X03734Y02529D01*
X03733Y02531D01*
X03731Y02532D01*
X03728Y02533D01*
X03725Y02534D01*
X03721Y02534D01*
X03717Y02535D01*
X03713Y02535D01*
Y02559D01*
X03717Y02559D01*
X03721Y02559D01*
X03725Y02560D01*
X03728Y02560D01*
X03731Y02561D01*
X03733Y02563D01*
X03734Y02564D01*
X03736Y02566D01*
X03736Y02568D01*
X03737Y02570D01*
Y02523D01*
D02*
G37*
G36*
X03778Y02689D02*
X03778Y02686D01*
X03779Y02683D01*
X03779Y02681D01*
X03780Y02678D01*
X03781Y02676D01*
X03782Y02674D01*
X03783Y02672D01*
X03785Y02670D01*
X03787Y02668D01*
X03752D01*
X03738Y02636D01*
X03737Y02638D01*
X03736Y02640D01*
X03735Y02642D01*
X03733Y02643D01*
X03731Y02644D01*
X03729Y02645D01*
X03727Y02646D01*
X03724Y02646D01*
X03722Y02647D01*
X03719Y02647D01*
X03730Y02670D01*
X03733Y02670D01*
X03742Y02671D01*
X03744Y02671D01*
X03749Y02672D01*
X03749Y02672D01*
X03750Y02674D01*
X03751Y02676D01*
X03752Y02678D01*
X03753Y02681D01*
X03753Y02683D01*
X03754Y02686D01*
X03754Y02689D01*
X03754Y02692D01*
X03778D01*
X03778Y02689D01*
D02*
G37*
G36*
X01258Y02275D02*
X01256Y02275D01*
X01255Y02275D01*
X01253Y02274D01*
X01251Y02274D01*
X01249Y02273D01*
X01248Y02272D01*
X01246Y02271D01*
X01244Y02269D01*
X01242Y02268D01*
X01240Y02266D01*
X01223Y02282D01*
X01225Y02284D01*
X01228Y02288D01*
X01230Y02290D01*
X01231Y02292D01*
X01232Y02293D01*
X01232Y02295D01*
X01233Y02297D01*
X01233Y02298D01*
X01233Y02300D01*
X01258Y02275D01*
D02*
G37*
G36*
X01221Y02226D02*
X01221Y02222D01*
X01222Y02219D01*
X01222Y02217D01*
X01223Y02216D01*
X01223Y02214D01*
X01224Y02212D01*
X01225Y02212D01*
X01226Y02211D01*
X01227Y02211D01*
X01229Y02210D01*
X01231Y02210D01*
X01233Y02209D01*
X01237Y02209D01*
X01240Y02209D01*
X01242Y02209D01*
X01248Y02185D01*
X01245Y02185D01*
X01243Y02185D01*
X01240Y02185D01*
X01238Y02184D01*
X01236Y02183D01*
X01235Y02183D01*
X01233Y02182D01*
X01232Y02181D01*
X01231Y02180D01*
X01230Y02178D01*
X01223Y02210D01*
X01191D01*
X01192Y02211D01*
X01193Y02212D01*
X01194Y02214D01*
X01195Y02216D01*
X01196Y02217D01*
X01196Y02219D01*
X01196Y02222D01*
X01197Y02224D01*
X01197Y02226D01*
X01197Y02229D01*
X01221D01*
X01221Y02226D01*
D02*
G37*
G36*
X02052Y02179D02*
X02051Y02181D01*
X02050Y02181D01*
X02048Y02182D01*
X02046Y02183D01*
X02045Y02184D01*
X02043Y02184D01*
X02040Y02185D01*
X02038Y02185D01*
X02036Y02185D01*
X02033Y02185D01*
Y02209D01*
X02036Y02209D01*
X02040Y02209D01*
X02043Y02210D01*
X02045Y02210D01*
X02046Y02211D01*
X02048Y02212D01*
X02050Y02212D01*
X02051Y02213D01*
X02052Y02214D01*
Y02179D01*
D02*
G37*
G36*
X02548Y02228D02*
X02547Y02226D01*
X02544Y02222D01*
X02542Y02220D01*
X02541Y02218D01*
X02540Y02217D01*
X02540Y02215D01*
X02539Y02213D01*
X02539Y02212D01*
X02539Y02210D01*
X02514Y02235D01*
X02516Y02235D01*
X02517Y02235D01*
X02519Y02236D01*
X02521Y02236D01*
X02523Y02237D01*
X02524Y02238D01*
X02526Y02239D01*
X02528Y02241D01*
X02530Y02242D01*
X02532Y02244D01*
X02548Y02228D01*
D02*
G37*
G36*
X03506Y03500D02*
X03507Y03495D01*
X03507Y03493D01*
X03507Y03491D01*
X03508Y03489D01*
X03509Y03488D01*
X03510Y03486D01*
X03511Y03485D01*
X03512Y03483D01*
X03477D01*
X03478Y03485D01*
X03479Y03486D01*
X03480Y03488D01*
X03480Y03489D01*
X03481Y03491D01*
X03482Y03493D01*
X03482Y03495D01*
X03482Y03498D01*
X03482Y03500D01*
X03482Y03503D01*
X03506D01*
X03506Y03500D01*
D02*
G37*
G36*
X03751Y03710D02*
X03748Y03707D01*
X03746Y03704D01*
X03744Y03701D01*
X03742Y03698D01*
X03741Y03694D01*
X03740Y03691D01*
X03739Y03688D01*
X03739Y03684D01*
X03738Y03681D01*
X03715D01*
X03715Y03684D01*
X03714Y03688D01*
X03713Y03691D01*
X03712Y03694D01*
X03711Y03698D01*
X03709Y03701D01*
X03707Y03704D01*
X03705Y03707D01*
X03702Y03710D01*
X03699Y03713D01*
X03754D01*
X03751Y03710D01*
D02*
G37*
G36*
X03360Y04166D02*
X03361Y04164D01*
X03362Y04162D01*
X03363Y04161D01*
X03366Y04160D01*
X03368Y04158D01*
X03371Y04158D01*
X03375Y04157D01*
X03379Y04157D01*
X03383Y04157D01*
Y04133D01*
X03379Y04133D01*
X03375Y04132D01*
X03371Y04132D01*
X03368Y04131D01*
X03366Y04130D01*
X03363Y04129D01*
X03362Y04127D01*
X03361Y04125D01*
X03360Y04123D01*
X03360Y04121D01*
Y04168D01*
X03360Y04166D01*
D02*
G37*
G36*
X03372Y03118D02*
X03373Y03117D01*
X03374Y03116D01*
X03376Y03115D01*
X03378Y03115D01*
X03380Y03114D01*
X03382Y03114D01*
X03384Y03113D01*
X03387Y03113D01*
X03390Y03113D01*
Y03090D01*
X03387Y03090D01*
X03382Y03089D01*
X03380Y03089D01*
X03378Y03088D01*
X03376Y03088D01*
X03374Y03087D01*
X03373Y03086D01*
X03372Y03085D01*
X03370Y03084D01*
Y03119D01*
X03372Y03118D01*
D02*
G37*
G36*
X02446Y02673D02*
X02447Y02673D01*
X02449Y02672D01*
X02450Y02672D01*
X02452Y02671D01*
X02454Y02671D01*
X02458Y02670D01*
X02461Y02670D01*
X02463Y02670D01*
X02468Y02647D01*
X02465Y02647D01*
X02461Y02646D01*
X02459Y02646D01*
X02457Y02645D01*
X02455Y02645D01*
X02454Y02644D01*
X02453Y02643D01*
X02451Y02642D01*
X02450Y02641D01*
X02445Y02674D01*
X02446Y02673D01*
D02*
G37*
G36*
X03785Y02724D02*
X03783Y02722D01*
X03782Y02720D01*
X03781Y02718D01*
X03780Y02715D01*
X03779Y02713D01*
X03779Y02710D01*
X03778Y02708D01*
X03778Y02705D01*
X03778Y02702D01*
X03754D01*
X03754Y02705D01*
X03754Y02708D01*
X03753Y02710D01*
X03753Y02713D01*
X03752Y02715D01*
X03751Y02718D01*
X03750Y02720D01*
X03748Y02722D01*
X03747Y02724D01*
X03745Y02726D01*
X03787D01*
X03785Y02724D01*
D02*
G37*
G36*
X06331Y02787D02*
X06330Y02789D01*
X06328Y02790D01*
X06327Y02790D01*
X06325Y02791D01*
X06323Y02792D01*
X06321Y02792D01*
X06319Y02793D01*
X06317Y02793D01*
X06314Y02793D01*
X06312Y02793D01*
Y02817D01*
X06314Y02817D01*
X06319Y02817D01*
X06321Y02818D01*
X06323Y02818D01*
X06325Y02819D01*
X06327Y02820D01*
X06328Y02820D01*
X06330Y02821D01*
X06331Y02822D01*
Y02787D01*
D02*
G37*
G54D23*
X02399Y02659D02*
X03754D01*
X02147Y02805D02*
X06349D01*
X01770Y02428D02*
X02147Y02805D01*
X03754Y02659D02*
X03766Y02647D01*
X02851Y02547D02*
X03766D01*
X02514Y02210D02*
X02851Y02547D01*
X03727Y03367D02*
Y03741D01*
X03461Y03101D02*
X03727Y03367D01*
X03323Y04145D02*
X03425D01*
X03494Y04076D01*
Y03466D02*
Y04076D01*
X01209Y02251D02*
X01258Y02300D01*
X03766Y02647D02*
Y02747D01*
X01209Y02192D02*
Y02251D01*
Y02192D02*
X01214Y02197D01*
X02070D01*
X03353Y03101D02*
X03461D01*
G54D38*
X02431Y02655D02*
D03*
X02331D02*
D03*
X02231D02*
D03*
X06003Y03052D02*
D03*
X06103D02*
D03*
X06203D02*
D03*
G54D39*
X03766Y02847D02*
D03*
Y02747D02*
D03*
Y02647D02*
D03*
G54D40*
Y02547D02*
D03*
G54D41*
X03825Y03741D02*
D03*
X03727D02*
D03*
G54D42*
X03626D02*
D03*
G54D43*
X06719Y01202D02*
D03*
Y04745D02*
D03*
X01207Y01202D02*
D03*
Y04745D02*
D03*
G54D44*
X03323Y04145D02*
D03*
G54D45*
Y04245D02*
D03*
Y04345D02*
D03*
G54D46*
X04396Y04351D02*
D03*
X03727D02*
D03*
G54D47*
X01227Y03643D02*
D03*
X01423D02*
D03*
X01227Y03918D02*
D03*
X01423D02*
D03*
X01227Y04194D02*
D03*
X01423D02*
D03*
X01227Y04470D02*
D03*
X01423D02*
D03*
X06187Y04273D02*
D03*
X06384D02*
D03*
X06187Y04548D02*
D03*
X06384D02*
D03*
X06187Y03800D02*
D03*
X06384D02*
D03*
X06187Y04076D02*
D03*
X06384D02*
D03*
G54D48*
X06349Y02805D02*
D03*
X02514Y02210D02*
D03*
X03494Y03466D02*
D03*
X01258Y02300D02*
D03*
X01209Y02192D02*
D03*
X02070Y02197D02*
D03*
X01770Y02428D02*
D03*
X03353Y03101D02*
D03*
M02*
