G04 Layer_Color=128*
%FSAX23Y23*%
%MOIN*%
G70*
G01*
G75*
%ADD81C,0.002*%
G54D81*
X02411Y02655D02*
X02451D01*
X02431Y02635D02*
Y02674D01*
X02311Y02655D02*
X02351D01*
X02331Y02635D02*
Y02674D01*
X02211Y02655D02*
X02251D01*
X02231Y02635D02*
Y02674D01*
X03746Y02847D02*
X03786D01*
X03766Y02827D02*
Y02866D01*
X03746Y02747D02*
X03786D01*
X03766Y02727D02*
Y02766D01*
X03746Y02647D02*
X03786D01*
X03766Y02627D02*
Y02666D01*
X03746Y02547D02*
X03786D01*
X03766Y02527D02*
Y02566D01*
X03799Y03741D02*
X03851D01*
X03825Y03715D02*
Y03767D01*
X03701Y03741D02*
X03753D01*
X03727Y03715D02*
Y03767D01*
X03600Y03741D02*
X03652D01*
X03626Y03715D02*
Y03767D01*
X06650Y01202D02*
X06788D01*
X06719Y01133D02*
Y01271D01*
X03298Y04145D02*
X03348D01*
X03323Y04120D02*
Y04169D01*
X03298Y04245D02*
X03348D01*
X03323Y04220D02*
Y04269D01*
X03298Y04345D02*
X03348D01*
X03323Y04320D02*
Y04369D01*
X04337Y04351D02*
X04455D01*
X04396Y04292D02*
Y04411D01*
X03667Y04351D02*
X03786D01*
X03727Y04292D02*
Y04411D01*
X06650Y04745D02*
X06788D01*
X06719Y04676D02*
Y04814D01*
X01138Y01202D02*
X01276D01*
X01207Y01133D02*
Y01271D01*
X01138Y04745D02*
X01276D01*
X01207Y04676D02*
Y04814D01*
X06660Y02551D02*
X06699D01*
X06679Y02531D02*
Y02570D01*
X06660Y02651D02*
X06699D01*
X06679Y02631D02*
Y02670D01*
X06660Y02751D02*
X06699D01*
X06679Y02731D02*
Y02770D01*
X01189Y03643D02*
X01264D01*
X01227Y03605D02*
Y03680D01*
X01386Y03643D02*
X01461D01*
X01423Y03605D02*
Y03680D01*
X01189Y03918D02*
X01264D01*
X01227Y03881D02*
Y03956D01*
X01386Y03918D02*
X01461D01*
X01423Y03881D02*
Y03956D01*
X01189Y04194D02*
X01264D01*
X01227Y04157D02*
Y04231D01*
X01386Y04194D02*
X01461D01*
X01423Y04157D02*
Y04231D01*
X01189Y04470D02*
X01264D01*
X01227Y04432D02*
Y04507D01*
X01386Y04470D02*
X01461D01*
X01423Y04432D02*
Y04507D01*
X06150Y04273D02*
X06225D01*
X06187Y04235D02*
Y04310D01*
X06347Y04273D02*
X06421D01*
X06384Y04235D02*
Y04310D01*
X06150Y04548D02*
X06225D01*
X06187Y04511D02*
Y04586D01*
X06347Y04548D02*
X06421D01*
X06384Y04511D02*
Y04586D01*
X06150Y03800D02*
X06225D01*
X06187Y03763D02*
Y03838D01*
X06347Y03800D02*
X06421D01*
X06384Y03763D02*
Y03838D01*
X06150Y04076D02*
X06225D01*
X06187Y04038D02*
Y04113D01*
X06347Y04076D02*
X06421D01*
X06384Y04038D02*
Y04113D01*
X03475Y03466D02*
X03514D01*
X03494Y03446D02*
Y03485D01*
X01750Y02428D02*
X01790D01*
X01770Y02409D02*
Y02448D01*
X03333Y03101D02*
X03372D01*
X03353Y03082D02*
Y03121D01*
X06451Y03056D02*
X06490D01*
X06471Y03036D02*
Y03076D01*
X02703Y02548D02*
X02742D01*
X02723Y02529D02*
Y02568D01*
X02506Y02241D02*
X02545D01*
X02526Y02222D02*
Y02261D01*
X01234Y02355D02*
X01274D01*
X01254Y02336D02*
Y02375D01*
X01140Y02218D02*
X01179D01*
X01160Y02198D02*
Y02237D01*
M02*
