M48
;Layer_Color=9474304
;FILE_FORMAT=2:3
INCH
;TYPE=PLATED
T1F00S00C0.039
T2F00S00C0.049
T3F00S00C0.052
T4F00S00C0.075
T5F00S00C0.118
T6F00S00C0.138
%
T01
X06297Y02556
X06397
X06197
X04022Y02554
Y02454
Y02354
Y02654
X03353Y03101
X02979Y02355
X02687Y02462
X02587
X02487
X02026Y02235
X02782Y02048
X01510Y02162
X01416Y02025
X03494Y03466
X06475Y03237
T02
X03323Y04145
Y04245
Y04345
T03
X03626Y03741
X03727
X03825
T04
X01227Y03643
X01423
Y03918
X01227
Y04194
X01423
Y04470
X01227
X06187Y04548
Y04273
Y04076
Y03800
X06384
Y04076
Y04273
Y04548
T05
X03727Y04351
X04396
T06
X01207Y01202
X06719
Y04745
X01207
M30
