G04 Layer_Color=2752767*
%FSAX23Y23*%
%MOIN*%
G70*
G01*
G75*
%ADD79C,0.002*%
%ADD80C,0.003*%
G54D79*
X02423Y02647D02*
Y02663D01*
X02439D01*
Y02647D01*
X02423D01*
X02323D02*
Y02663D01*
X02339D01*
Y02647D01*
X02323D01*
X02223D02*
Y02663D01*
X02239D01*
Y02647D01*
X02223D01*
X03825Y03733D02*
X03817Y03749D01*
X03833D01*
X03825Y03733D01*
X03727D02*
X03719Y03749D01*
X03735D01*
X03727Y03733D01*
X03626D02*
X03618Y03749D01*
X03634D01*
X03626Y03733D01*
X06719Y01194D02*
X06723Y01198D01*
X06727D01*
X06723Y01202D01*
X06727Y01206D01*
X06723D01*
X06719Y01210D01*
X06715Y01206D01*
X06711D01*
X06715Y01202D01*
X06711Y01198D01*
X06715D01*
X06719Y01194D01*
X03315Y04137D02*
X03319Y04145D01*
X03315Y04153D01*
X03323Y04149D01*
X03331Y04153D01*
X03327Y04145D01*
X03331Y04137D01*
X03323Y04141D01*
X03315Y04137D01*
Y04237D02*
X03319Y04245D01*
X03315Y04253D01*
X03323Y04249D01*
X03331Y04253D01*
X03327Y04245D01*
X03331Y04237D01*
X03323Y04241D01*
X03315Y04237D01*
Y04337D02*
X03319Y04345D01*
X03315Y04353D01*
X03323Y04349D01*
X03331Y04353D01*
X03327Y04345D01*
X03331Y04337D01*
X03323Y04341D01*
X03315Y04337D01*
X04392Y04347D02*
Y04343D01*
X04400D01*
Y04347D01*
X04404D01*
Y04355D01*
X04400D01*
Y04359D01*
X04392D01*
Y04355D01*
X04388D01*
Y04347D01*
X04392D01*
X03723D02*
Y04343D01*
X03731D01*
Y04347D01*
X03735D01*
Y04355D01*
X03731D01*
Y04359D01*
X03723D01*
Y04355D01*
X03719D01*
Y04347D01*
X03723D01*
X06719Y04737D02*
X06723Y04741D01*
X06727D01*
X06723Y04745D01*
X06727Y04749D01*
X06723D01*
X06719Y04753D01*
X06715Y04749D01*
X06711D01*
X06715Y04745D01*
X06711Y04741D01*
X06715D01*
X06719Y04737D01*
X01207Y01194D02*
X01211Y01198D01*
X01215D01*
X01211Y01202D01*
X01215Y01206D01*
X01211D01*
X01207Y01210D01*
X01203Y01206D01*
X01199D01*
X01203Y01202D01*
X01199Y01198D01*
X01203D01*
X01207Y01194D01*
Y04737D02*
X01211Y04741D01*
X01215D01*
X01211Y04745D01*
X01215Y04749D01*
X01211D01*
X01207Y04753D01*
X01203Y04749D01*
X01199D01*
X01203Y04745D01*
X01199Y04741D01*
X01203D01*
X01207Y04737D01*
X05995Y03044D02*
Y03060D01*
X06011D01*
Y03044D01*
X05995D01*
X06095D02*
Y03060D01*
X06111D01*
Y03044D01*
X06095D01*
X06195D02*
Y03060D01*
X06211D01*
Y03044D01*
X06195D01*
X01219Y03635D02*
X01223D01*
X01227Y03639D01*
X01231Y03635D01*
X01235D01*
Y03639D01*
X01231Y03643D01*
X01235Y03647D01*
Y03651D01*
X01231D01*
X01227Y03647D01*
X01223Y03651D01*
X01219D01*
Y03647D01*
X01223Y03643D01*
X01219Y03639D01*
Y03635D01*
X01415D02*
X01419D01*
X01423Y03639D01*
X01427Y03635D01*
X01431D01*
Y03639D01*
X01427Y03643D01*
X01431Y03647D01*
Y03651D01*
X01427D01*
X01423Y03647D01*
X01419Y03651D01*
X01415D01*
Y03647D01*
X01419Y03643D01*
X01415Y03639D01*
Y03635D01*
X01219Y03910D02*
X01223D01*
X01227Y03914D01*
X01231Y03910D01*
X01235D01*
Y03914D01*
X01231Y03918D01*
X01235Y03922D01*
Y03926D01*
X01231D01*
X01227Y03922D01*
X01223Y03926D01*
X01219D01*
Y03922D01*
X01223Y03918D01*
X01219Y03914D01*
Y03910D01*
X01415D02*
X01419D01*
X01423Y03914D01*
X01427Y03910D01*
X01431D01*
Y03914D01*
X01427Y03918D01*
X01431Y03922D01*
Y03926D01*
X01427D01*
X01423Y03922D01*
X01419Y03926D01*
X01415D01*
Y03922D01*
X01419Y03918D01*
X01415Y03914D01*
Y03910D01*
X01219Y04186D02*
X01223D01*
X01227Y04190D01*
X01231Y04186D01*
X01235D01*
Y04190D01*
X01231Y04194D01*
X01235Y04198D01*
Y04202D01*
X01231D01*
X01227Y04198D01*
X01223Y04202D01*
X01219D01*
Y04198D01*
X01223Y04194D01*
X01219Y04190D01*
Y04186D01*
X01415D02*
X01419D01*
X01423Y04190D01*
X01427Y04186D01*
X01431D01*
Y04190D01*
X01427Y04194D01*
X01431Y04198D01*
Y04202D01*
X01427D01*
X01423Y04198D01*
X01419Y04202D01*
X01415D01*
Y04198D01*
X01419Y04194D01*
X01415Y04190D01*
Y04186D01*
X01219Y04462D02*
X01223D01*
X01227Y04466D01*
X01231Y04462D01*
X01235D01*
Y04466D01*
X01231Y04470D01*
X01235Y04474D01*
Y04478D01*
X01231D01*
X01227Y04474D01*
X01223Y04478D01*
X01219D01*
Y04474D01*
X01223Y04470D01*
X01219Y04466D01*
Y04462D01*
X01415D02*
X01419D01*
X01423Y04466D01*
X01427Y04462D01*
X01431D01*
Y04466D01*
X01427Y04470D01*
X01431Y04474D01*
Y04478D01*
X01427D01*
X01423Y04474D01*
X01419Y04478D01*
X01415D01*
Y04474D01*
X01419Y04470D01*
X01415Y04466D01*
Y04462D01*
X06179Y04265D02*
X06183D01*
X06187Y04269D01*
X06191Y04265D01*
X06195D01*
Y04269D01*
X06191Y04273D01*
X06195Y04277D01*
Y04281D01*
X06191D01*
X06187Y04277D01*
X06183Y04281D01*
X06179D01*
Y04277D01*
X06183Y04273D01*
X06179Y04269D01*
Y04265D01*
X06376D02*
X06380D01*
X06384Y04269D01*
X06388Y04265D01*
X06392D01*
Y04269D01*
X06388Y04273D01*
X06392Y04277D01*
Y04281D01*
X06388D01*
X06384Y04277D01*
X06380Y04281D01*
X06376D01*
Y04277D01*
X06380Y04273D01*
X06376Y04269D01*
Y04265D01*
X06179Y04540D02*
X06183D01*
X06187Y04544D01*
X06191Y04540D01*
X06195D01*
Y04544D01*
X06191Y04548D01*
X06195Y04552D01*
Y04556D01*
X06191D01*
X06187Y04552D01*
X06183Y04556D01*
X06179D01*
Y04552D01*
X06183Y04548D01*
X06179Y04544D01*
Y04540D01*
X06376D02*
X06380D01*
X06384Y04544D01*
X06388Y04540D01*
X06392D01*
Y04544D01*
X06388Y04548D01*
X06392Y04552D01*
Y04556D01*
X06388D01*
X06384Y04552D01*
X06380Y04556D01*
X06376D01*
Y04552D01*
X06380Y04548D01*
X06376Y04544D01*
Y04540D01*
X06179Y03792D02*
X06183D01*
X06187Y03796D01*
X06191Y03792D01*
X06195D01*
Y03796D01*
X06191Y03800D01*
X06195Y03804D01*
Y03808D01*
X06191D01*
X06187Y03804D01*
X06183Y03808D01*
X06179D01*
Y03804D01*
X06183Y03800D01*
X06179Y03796D01*
Y03792D01*
X06376D02*
X06380D01*
X06384Y03796D01*
X06388Y03792D01*
X06392D01*
Y03796D01*
X06388Y03800D01*
X06392Y03804D01*
Y03808D01*
X06388D01*
X06384Y03804D01*
X06380Y03808D01*
X06376D01*
Y03804D01*
X06380Y03800D01*
X06376Y03796D01*
Y03792D01*
X06179Y04068D02*
X06183D01*
X06187Y04072D01*
X06191Y04068D01*
X06195D01*
Y04072D01*
X06191Y04076D01*
X06195Y04080D01*
Y04084D01*
X06191D01*
X06187Y04080D01*
X06183Y04084D01*
X06179D01*
Y04080D01*
X06183Y04076D01*
X06179Y04072D01*
Y04068D01*
X06376D02*
X06380D01*
X06384Y04072D01*
X06388Y04068D01*
X06392D01*
Y04072D01*
X06388Y04076D01*
X06392Y04080D01*
Y04084D01*
X06388D01*
X06384Y04080D01*
X06380Y04084D01*
X06376D01*
Y04080D01*
X06380Y04076D01*
X06376Y04072D01*
Y04068D01*
X06341Y02805D02*
X06349Y02813D01*
X06357Y02805D01*
X06349Y02797D01*
X06341Y02805D01*
X02506Y02210D02*
X02514Y02218D01*
X02522Y02210D01*
X02514Y02202D01*
X02506Y02210D01*
X03486Y03466D02*
X03494Y03474D01*
X03502Y03466D01*
X03494Y03458D01*
X03486Y03466D01*
X01250Y02300D02*
X01258Y02308D01*
X01266Y02300D01*
X01258Y02292D01*
X01250Y02300D01*
X01201Y02192D02*
X01209Y02200D01*
X01217Y02192D01*
X01209Y02184D01*
X01201Y02192D01*
X02062Y02197D02*
X02070Y02205D01*
X02078Y02197D01*
X02070Y02189D01*
X02062Y02197D01*
X01762Y02428D02*
X01770Y02436D01*
X01778Y02428D01*
X01770Y02420D01*
X01762Y02428D01*
X03345Y03101D02*
X03353Y03109D01*
X03361Y03101D01*
X03353Y03093D01*
X03345Y03101D01*
G54D80*
X03774Y02847D02*
X03768Y02854D01*
X03759Y02851D01*
Y02842D01*
X03768Y02839D01*
X03774Y02847D01*
Y02747D02*
X03768Y02754D01*
X03759Y02751D01*
Y02742D01*
X03768Y02739D01*
X03774Y02747D01*
Y02647D02*
X03768Y02654D01*
X03759Y02651D01*
Y02642D01*
X03768Y02639D01*
X03774Y02647D01*
Y02547D02*
X03768Y02554D01*
X03759Y02551D01*
Y02542D01*
X03768Y02539D01*
X03774Y02547D01*
M02*
