G04 Layer_Color=65535*
%FSAX23Y23*%
%MOIN*%
G70*
G01*
G75*
%ADD49C,0.008*%
%ADD50C,0.010*%
%ADD51C,0.028*%
%ADD52C,0.004*%
%ADD53C,0.010*%
G54D49*
X02121Y02655D02*
X02113D01*
X02121D01*
X02850Y02107D02*
Y02099D01*
Y02107D01*
X03168D02*
Y02099D01*
Y02107D01*
X06313Y03052D02*
X06321D01*
X06313D01*
X01090Y02743D02*
X01131D01*
X02164Y02024D02*
Y02065D01*
X03716Y02497D02*
X03816D01*
X03716D02*
Y02897D01*
X03816Y02497D02*
Y02897D01*
X03716D02*
X03816D01*
X02212Y02448D02*
X02253D01*
X02212Y02288D02*
X02253D01*
X02104Y02327D02*
Y02372D01*
X02114Y02811D02*
Y02852D01*
X01815Y02367D02*
X01941D01*
Y01977D02*
Y02367D01*
X01815Y01977D02*
X01941D01*
X01815D02*
Y02367D01*
X01741Y02374D02*
X01801D01*
X01671Y02573D02*
Y02618D01*
X02131Y01916D02*
X02176D01*
X02281Y02007D02*
X02322D01*
X02997Y02359D02*
X03042D01*
X02042Y01916D02*
X02088D01*
X02919Y03443D02*
Y03488D01*
X03528Y03741D02*
X03528Y03862D01*
X03937D01*
X03937Y03681D01*
X03126Y03495D02*
X03185D01*
X03126Y03436D02*
X03185D01*
X03126Y03308D02*
X03185D01*
X03126Y03367D02*
X03185D01*
X03121Y03220D02*
X03180D01*
X03121Y03161D02*
X03180D01*
X03392Y03169D02*
Y03211D01*
Y03445D02*
Y03486D01*
X03319Y03377D02*
X03441D01*
X03319Y03298D02*
X03441D01*
X02688Y02251D02*
X02787D01*
X02688Y02222D02*
Y02251D01*
Y02074D02*
Y02103D01*
Y02074D02*
X02787D01*
X03007Y02251D02*
X03105D01*
X03007Y02222D02*
Y02251D01*
Y02074D02*
Y02103D01*
Y02074D02*
X03105D01*
X01583Y02406D02*
Y02451D01*
X01484Y01923D02*
Y01969D01*
X01484Y02110D02*
Y02156D01*
X01494Y02034D02*
Y02075D01*
X01238Y02110D02*
Y02156D01*
X01346Y02094D02*
X01387D01*
X01425Y02494D02*
Y02539D01*
X01435Y02280D02*
Y02321D01*
X01433Y02408D02*
Y02449D01*
X03204Y04449D02*
X03384D01*
X03204Y04041D02*
Y04449D01*
Y04041D02*
X03323D01*
X02146Y03853D02*
Y04158D01*
X02247Y04259D01*
X02450D02*
X02551Y04158D01*
Y03853D02*
Y04158D01*
X02398Y03853D02*
X02551D01*
X02146D02*
X02295D01*
X02146D02*
Y03867D01*
X01634Y03853D02*
Y04158D01*
X01735Y04259D01*
X01938D02*
X02040Y04158D01*
Y03853D02*
Y04158D01*
X01886Y03853D02*
X02040D01*
X01634D02*
X01784D01*
X01634D02*
Y03867D01*
X05394Y03977D02*
Y04282D01*
X05495Y04383D01*
X05698D02*
X05799Y04282D01*
Y03977D02*
Y04282D01*
X05646Y03977D02*
X05799D01*
X05394D02*
X05543D01*
X05394D02*
Y03991D01*
X04882Y03981D02*
Y04286D01*
X04983Y04387D01*
X05186D02*
X05288Y04286D01*
Y03981D02*
Y04286D01*
X05134Y03981D02*
X05288D01*
X04882D02*
X05032D01*
X04882D02*
Y03995D01*
X04708Y04174D02*
X04753D01*
X01484Y02661D02*
Y02707D01*
X01669Y02663D02*
Y02705D01*
X02407Y02281D02*
X02452D01*
X05912Y03739D02*
Y03861D01*
X02641Y04056D02*
X02686D01*
X03303Y03868D02*
Y03910D01*
X03116Y03866D02*
Y03911D01*
X06662Y03295D02*
X06704D01*
X06644Y03032D02*
Y03073D01*
G54D50*
X03042Y03466D02*
X03035Y03470D01*
Y03461D01*
X03042Y03466D01*
X03279Y03338D02*
X03271Y03342D01*
Y03333D01*
X03279Y03338D01*
X03038Y03190D02*
X03030Y03194D01*
Y03186D01*
X03038Y03190D01*
G54D51*
X02868Y02456D02*
Y02460D01*
Y02456D01*
G54D52*
X02349Y04332D02*
Y04328D01*
Y04332D01*
X01837D02*
Y04328D01*
Y04332D01*
X05597Y04456D02*
Y04452D01*
Y04456D01*
X05085Y04460D02*
Y04456D01*
Y04460D01*
X02518Y02749D02*
X02518Y02559D01*
X02143Y02749D02*
X02518D01*
X02143D02*
X02143Y02559D01*
X02518D01*
X03299Y02566D02*
Y02926D01*
X02839Y02560D02*
Y02926D01*
X05915Y03148D02*
X05915Y02957D01*
X06291D01*
X06291Y03148D02*
X06291Y02957D01*
X05915Y03148D02*
X06291D01*
X01167Y03702D02*
Y03840D01*
X01482Y03702D02*
Y03840D01*
X01167Y04253D02*
Y04391D01*
X01482Y04253D02*
Y04391D01*
X06128Y04332D02*
Y04470D01*
X06443Y04332D02*
Y04470D01*
X06128Y03859D02*
Y03997D01*
X06443Y03859D02*
Y03997D01*
G54D53*
X03429Y03875D02*
X04020D01*
X03429Y03678D02*
Y04072D01*
X04020Y03678D02*
Y04072D01*
X03547Y03875D02*
Y04072D01*
X03666Y03875D02*
Y04072D01*
X03784Y03875D02*
X03784Y04072D01*
X03902Y03875D02*
Y04072D01*
X02996Y04422D02*
X03193D01*
X02996Y04304D02*
X03193Y04304D01*
X02996Y04186D02*
X03193D01*
X02996Y04068D02*
X03193D01*
X02996Y04540D02*
X03390D01*
X02996Y03949D02*
X03390D01*
X03193Y03949D02*
Y04540D01*
X03569Y04588D02*
X04553D01*
X03569Y04115D02*
X04553D01*
X03569D02*
Y04588D01*
X04553Y04115D02*
Y04588D01*
X06002Y03234D02*
Y03194D01*
X06022Y03174D01*
X06042Y03194D01*
Y03234D01*
X06062Y03174D02*
Y03234D01*
X06092D01*
X06102Y03224D01*
Y03204D01*
X06092Y03194D01*
X06062D01*
X06082D02*
X06102Y03174D01*
X06162D02*
X06122D01*
X06162Y03214D01*
Y03224D01*
X06152Y03234D01*
X06132D01*
X06122Y03224D01*
X02538Y02744D02*
Y02704D01*
X02558Y02684D01*
X02578Y02704D01*
Y02744D01*
X02598Y02684D02*
Y02744D01*
X02628D01*
X02638Y02734D01*
Y02714D01*
X02628Y02704D01*
X02598D01*
X02618D02*
X02638Y02684D01*
X02658D02*
X02678D01*
X02668D01*
Y02744D01*
X02658Y02734D01*
X02646Y03148D02*
X02686D01*
X02666D01*
Y03088D01*
X02706D02*
Y03148D01*
X02736D01*
X02746Y03138D01*
Y03118D01*
X02736Y03108D01*
X02706D01*
X02726D02*
X02746Y03088D01*
X02766D02*
X02786D01*
X02776D01*
Y03148D01*
X02766Y03138D01*
X01632Y02547D02*
X01672D01*
X01652D01*
Y02487D01*
X01692Y02547D02*
Y02487D01*
X01732D01*
X01782D02*
Y02547D01*
X01752Y02517D01*
X01792D01*
X01812Y02497D02*
X01822Y02487D01*
X01842D01*
X01852Y02497D01*
Y02537D01*
X01842Y02547D01*
X01822D01*
X01812Y02537D01*
Y02527D01*
X01822Y02517D01*
X01852D01*
X01902Y02487D02*
Y02547D01*
X01872Y02517D01*
X01912D01*
X01972Y02537D02*
X01962Y02547D01*
X01942D01*
X01932Y02537D01*
Y02497D01*
X01942Y02487D01*
X01962D01*
X01972Y02497D01*
X01992Y02547D02*
Y02487D01*
X02022D01*
X02032Y02497D01*
Y02537D01*
X02022Y02547D01*
X01992D01*
X02052Y02487D02*
Y02547D01*
X02082D01*
X02092Y02537D01*
Y02517D01*
X02082Y02507D01*
X02052D01*
X02072D02*
X02092Y02487D01*
X03490Y03161D02*
Y03220D01*
X03520D01*
X03530Y03210D01*
Y03191D01*
X03520Y03181D01*
X03490D01*
X03510D02*
X03530Y03161D01*
X03550D02*
X03570D01*
X03560D01*
Y03220D01*
X03550Y03210D01*
X03600D02*
X03610Y03220D01*
X03630D01*
X03640Y03210D01*
Y03200D01*
X03630Y03191D01*
X03640Y03181D01*
Y03171D01*
X03630Y03161D01*
X03610D01*
X03600Y03171D01*
Y03181D01*
X03610Y03191D01*
X03600Y03200D01*
Y03210D01*
X03610Y03191D02*
X03630D01*
X03500Y03328D02*
Y03388D01*
X03530D01*
X03540Y03378D01*
Y03358D01*
X03530Y03348D01*
X03500D01*
X03520D02*
X03540Y03328D01*
X03560D02*
X03580D01*
X03570D01*
Y03388D01*
X03560Y03378D01*
X03610Y03388D02*
X03650D01*
Y03378D01*
X03610Y03338D01*
Y03328D01*
X03604Y03446D02*
Y03506D01*
X03634D01*
X03644Y03496D01*
Y03476D01*
X03634Y03466D01*
X03604D01*
X03624D02*
X03644Y03446D01*
X03664D02*
X03684D01*
X03674D01*
Y03506D01*
X03664Y03496D01*
X03754Y03506D02*
X03734Y03496D01*
X03714Y03476D01*
Y03456D01*
X03724Y03446D01*
X03744D01*
X03754Y03456D01*
Y03466D01*
X03744Y03476D01*
X03714D01*
X06439Y03119D02*
Y03179D01*
X06469D01*
X06479Y03169D01*
Y03149D01*
X06469Y03139D01*
X06439D01*
X06459D02*
X06479Y03119D01*
X06499D02*
X06519D01*
X06509D01*
Y03179D01*
X06499Y03169D01*
X06589Y03179D02*
X06549D01*
Y03149D01*
X06569Y03159D01*
X06579D01*
X06589Y03149D01*
Y03129D01*
X06579Y03119D01*
X06559D01*
X06549Y03129D01*
X06447Y03275D02*
Y03335D01*
X06477D01*
X06487Y03325D01*
Y03305D01*
X06477Y03295D01*
X06447D01*
X06467D02*
X06487Y03275D01*
X06507D02*
X06527D01*
X06517D01*
Y03335D01*
X06507Y03325D01*
X06587Y03275D02*
Y03335D01*
X06557Y03305D01*
X06597D01*
X05831Y03564D02*
Y03624D01*
X05861D01*
X05871Y03614D01*
Y03594D01*
X05861Y03584D01*
X05831D01*
X05851D02*
X05871Y03564D01*
X05891D02*
X05911D01*
X05901D01*
Y03624D01*
X05891Y03614D01*
X05941D02*
X05951Y03624D01*
X05971D01*
X05981Y03614D01*
Y03604D01*
X05971Y03594D01*
X05961D01*
X05971D01*
X05981Y03584D01*
Y03574D01*
X05971Y03564D01*
X05951D01*
X05941Y03574D01*
X02291Y01788D02*
Y01848D01*
X02321D01*
X02331Y01838D01*
Y01818D01*
X02321Y01808D01*
X02291D01*
X02311D02*
X02331Y01788D01*
X02351D02*
X02371D01*
X02361D01*
Y01848D01*
X02351Y01838D01*
X02441Y01788D02*
X02401D01*
X02441Y01828D01*
Y01838D01*
X02431Y01848D01*
X02411D01*
X02401Y01838D01*
X03244Y03603D02*
Y03663D01*
X03274D01*
X03284Y03653D01*
Y03633D01*
X03274Y03623D01*
X03244D01*
X03264D02*
X03284Y03603D01*
X03304D02*
X03324D01*
X03314D01*
Y03663D01*
X03304Y03653D01*
X03354Y03603D02*
X03374D01*
X03364D01*
Y03663D01*
X03354Y03653D01*
X02104Y02107D02*
Y02167D01*
X02134D01*
X02144Y02157D01*
Y02137D01*
X02134Y02127D01*
X02104D01*
X02124D02*
X02144Y02107D01*
X02164D02*
X02184D01*
X02174D01*
Y02167D01*
X02164Y02157D01*
X02214D02*
X02224Y02167D01*
X02244D01*
X02254Y02157D01*
Y02117D01*
X02244Y02107D01*
X02224D01*
X02214Y02117D01*
Y02157D01*
X02282Y02477D02*
Y02537D01*
X02312D01*
X02322Y02527D01*
Y02507D01*
X02312Y02497D01*
X02282D01*
X02302D02*
X02322Y02477D01*
X02342Y02487D02*
X02352Y02477D01*
X02372D01*
X02382Y02487D01*
Y02527D01*
X02372Y02537D01*
X02352D01*
X02342Y02527D01*
Y02517D01*
X02352Y02507D01*
X02382D01*
X01611Y02755D02*
Y02815D01*
X01641D01*
X01651Y02805D01*
Y02785D01*
X01641Y02775D01*
X01611D01*
X01631D02*
X01651Y02755D01*
X01671Y02805D02*
X01681Y02815D01*
X01701D01*
X01711Y02805D01*
Y02795D01*
X01701Y02785D01*
X01711Y02775D01*
Y02765D01*
X01701Y02755D01*
X01681D01*
X01671Y02765D01*
Y02775D01*
X01681Y02785D01*
X01671Y02795D01*
Y02805D01*
X01681Y02785D02*
X01701D01*
X02291Y02162D02*
Y02222D01*
X02321D01*
X02331Y02212D01*
Y02192D01*
X02321Y02182D01*
X02291D01*
X02311D02*
X02331Y02162D01*
X02351Y02222D02*
X02391D01*
Y02212D01*
X02351Y02172D01*
Y02162D01*
X02055Y02950D02*
Y03010D01*
X02085D01*
X02095Y03000D01*
Y02980D01*
X02085Y02970D01*
X02055D01*
X02075D02*
X02095Y02950D01*
X02155Y03010D02*
X02135Y03000D01*
X02115Y02980D01*
Y02960D01*
X02125Y02950D01*
X02145D01*
X02155Y02960D01*
Y02970D01*
X02145Y02980D01*
X02115D01*
X01248Y02428D02*
Y02488D01*
X01278D01*
X01288Y02478D01*
Y02458D01*
X01278Y02448D01*
X01248D01*
X01268D02*
X01288Y02428D01*
X01348Y02488D02*
X01308D01*
Y02458D01*
X01328Y02468D01*
X01338D01*
X01348Y02458D01*
Y02438D01*
X01338Y02428D01*
X01318D01*
X01308Y02438D01*
X01337Y01956D02*
Y02016D01*
X01367D01*
X01377Y02006D01*
Y01986D01*
X01367Y01976D01*
X01337D01*
X01357D02*
X01377Y01956D01*
X01427D02*
Y02016D01*
X01397Y01986D01*
X01437D01*
X01258Y02340D02*
Y02400D01*
X01288D01*
X01298Y02390D01*
Y02370D01*
X01288Y02360D01*
X01258D01*
X01278D02*
X01298Y02340D01*
X01318Y02390D02*
X01328Y02400D01*
X01348D01*
X01358Y02390D01*
Y02380D01*
X01348Y02370D01*
X01338D01*
X01348D01*
X01358Y02360D01*
Y02350D01*
X01348Y02340D01*
X01328D01*
X01318Y02350D01*
X01199Y02025D02*
Y02085D01*
X01229D01*
X01239Y02075D01*
Y02055D01*
X01229Y02045D01*
X01199D01*
X01219D02*
X01239Y02025D01*
X01299D02*
X01259D01*
X01299Y02065D01*
Y02075D01*
X01289Y02085D01*
X01269D01*
X01259Y02075D01*
X01169Y02733D02*
Y02793D01*
X01199D01*
X01209Y02783D01*
Y02763D01*
X01199Y02753D01*
X01169D01*
X01189D02*
X01209Y02733D01*
X01229D02*
X01249D01*
X01239D01*
Y02793D01*
X01229Y02783D01*
X02981Y01877D02*
Y01917D01*
X02971Y01927D01*
X02951D01*
X02941Y01917D01*
Y01877D01*
X02951Y01867D01*
X02971D01*
X02961Y01887D02*
X02981Y01867D01*
X02971D02*
X02981Y01877D01*
X03001Y01917D02*
X03011Y01927D01*
X03031D01*
X03041Y01917D01*
Y01907D01*
X03031Y01897D01*
X03021D01*
X03031D01*
X03041Y01887D01*
Y01877D01*
X03031Y01867D01*
X03011D01*
X03001Y01877D01*
X02725Y02359D02*
Y02399D01*
X02715Y02409D01*
X02695D01*
X02685Y02399D01*
Y02359D01*
X02695Y02349D01*
X02715D01*
X02705Y02369D02*
X02725Y02349D01*
X02715D02*
X02725Y02359D01*
X02785Y02349D02*
X02745D01*
X02785Y02389D01*
Y02399D01*
X02775Y02409D01*
X02755D01*
X02745Y02399D01*
X03041Y04585D02*
Y04625D01*
X03031Y04635D01*
X03011D01*
X03001Y04625D01*
Y04585D01*
X03011Y04575D01*
X03031D01*
X03021Y04595D02*
X03041Y04575D01*
X03031D02*
X03041Y04585D01*
X03061Y04575D02*
X03081D01*
X03071D01*
Y04635D01*
X03061Y04625D01*
X06199Y03651D02*
Y03711D01*
X06229D01*
X06239Y03701D01*
Y03681D01*
X06229Y03671D01*
X06199D01*
X06259Y03711D02*
Y03651D01*
X06289D01*
X06299Y03661D01*
Y03701D01*
X06289Y03711D01*
X06259D01*
X06349Y03651D02*
Y03711D01*
X06319Y03681D01*
X06359D01*
X06097Y04676D02*
Y04736D01*
X06127D01*
X06137Y04726D01*
Y04706D01*
X06127Y04696D01*
X06097D01*
X06157Y04736D02*
Y04676D01*
X06187D01*
X06197Y04686D01*
Y04726D01*
X06187Y04736D01*
X06157D01*
X06217Y04726D02*
X06227Y04736D01*
X06247D01*
X06257Y04726D01*
Y04716D01*
X06247Y04706D01*
X06237D01*
X06247D01*
X06257Y04696D01*
Y04686D01*
X06247Y04676D01*
X06227D01*
X06217Y04686D01*
X03574Y04683D02*
Y04623D01*
X03614D01*
X03634D02*
X03654D01*
X03644D01*
Y04683D01*
X03634Y04673D01*
X01124Y04928D02*
Y04868D01*
Y04898D01*
X01164D01*
Y04928D01*
Y04868D01*
X01214Y04928D02*
X01194D01*
X01184Y04918D01*
Y04878D01*
X01194Y04868D01*
X01214D01*
X01224Y04878D01*
Y04918D01*
X01214Y04928D01*
X01274Y04868D02*
Y04928D01*
X01244Y04898D01*
X01284D01*
X01124Y01384D02*
Y01324D01*
Y01354D01*
X01164D01*
Y01384D01*
Y01324D01*
X01214Y01384D02*
X01194D01*
X01184Y01374D01*
Y01334D01*
X01194Y01324D01*
X01214D01*
X01224Y01334D01*
Y01374D01*
X01214Y01384D01*
X01244Y01374D02*
X01254Y01384D01*
X01274D01*
X01284Y01374D01*
Y01364D01*
X01274Y01354D01*
X01264D01*
X01274D01*
X01284Y01344D01*
Y01334D01*
X01274Y01324D01*
X01254D01*
X01244Y01334D01*
X06636Y04928D02*
Y04868D01*
Y04898D01*
X06676D01*
Y04928D01*
Y04868D01*
X06726Y04928D02*
X06706D01*
X06696Y04918D01*
Y04878D01*
X06706Y04868D01*
X06726D01*
X06736Y04878D01*
Y04918D01*
X06726Y04928D01*
X06796Y04868D02*
X06756D01*
X06796Y04908D01*
Y04918D01*
X06786Y04928D01*
X06766D01*
X06756Y04918D01*
X06636Y01384D02*
Y01324D01*
Y01354D01*
X06676D01*
Y01384D01*
Y01324D01*
X06726Y01384D02*
X06706D01*
X06696Y01374D01*
Y01334D01*
X06706Y01324D01*
X06726D01*
X06736Y01334D01*
Y01374D01*
X06726Y01384D01*
X06756Y01324D02*
X06776D01*
X06766D01*
Y01384D01*
X06756Y01374D01*
X03697Y02451D02*
Y02391D01*
Y02421D01*
X03737D01*
Y02451D01*
Y02391D01*
X03757Y02451D02*
Y02391D01*
X03787D01*
X03797Y02401D01*
Y02441D01*
X03787Y02451D01*
X03757D01*
X03817Y02391D02*
X03837D01*
X03827D01*
Y02451D01*
X03817Y02441D01*
X02919Y03368D02*
Y03308D01*
X02949D01*
X02959Y03318D01*
Y03358D01*
X02949Y03368D01*
X02919D01*
X03009Y03308D02*
Y03368D01*
X02979Y03338D01*
X03019D01*
X03087Y03585D02*
Y03525D01*
X03117D01*
X03127Y03535D01*
Y03575D01*
X03117Y03585D01*
X03087D01*
X03147Y03575D02*
X03157Y03585D01*
X03177D01*
X03187Y03575D01*
Y03565D01*
X03177Y03555D01*
X03167D01*
X03177D01*
X03187Y03545D01*
Y03535D01*
X03177Y03525D01*
X03157D01*
X03147Y03535D01*
X02895Y03220D02*
Y03161D01*
X02925D01*
X02935Y03171D01*
Y03210D01*
X02925Y03220D01*
X02895D01*
X02995Y03161D02*
X02955D01*
X02995Y03200D01*
Y03210D01*
X02985Y03220D01*
X02965D01*
X02955Y03210D01*
X03451Y04047D02*
Y03987D01*
X03481D01*
X03491Y03997D01*
Y04037D01*
X03481Y04047D01*
X03451D01*
X03511Y03987D02*
X03531D01*
X03521D01*
Y04047D01*
X03511Y04037D01*
X02841Y03575D02*
X02831Y03585D01*
X02811D01*
X02801Y03575D01*
Y03535D01*
X02811Y03525D01*
X02831D01*
X02841Y03535D01*
X02901Y03525D02*
X02861D01*
X02901Y03565D01*
Y03575D01*
X02891Y03585D01*
X02871D01*
X02861Y03575D01*
X02921D02*
X02931Y03585D01*
X02951D01*
X02961Y03575D01*
Y03535D01*
X02951Y03525D01*
X02931D01*
X02921Y03535D01*
Y03575D01*
X05403Y04554D02*
X05393Y04564D01*
X05373D01*
X05363Y04554D01*
Y04514D01*
X05373Y04504D01*
X05393D01*
X05403Y04514D01*
X05423Y04504D02*
X05443D01*
X05433D01*
Y04564D01*
X05423Y04554D01*
X05473Y04514D02*
X05483Y04504D01*
X05503D01*
X05513Y04514D01*
Y04554D01*
X05503Y04564D01*
X05483D01*
X05473Y04554D01*
Y04544D01*
X05483Y04534D01*
X05513D01*
X03119Y02399D02*
X03109Y02409D01*
X03089D01*
X03079Y02399D01*
Y02359D01*
X03089Y02349D01*
X03109D01*
X03119Y02359D01*
X03139Y02349D02*
X03159D01*
X03149D01*
Y02409D01*
X03139Y02399D01*
X03189D02*
X03199Y02409D01*
X03219D01*
X03229Y02399D01*
Y02389D01*
X03219Y02379D01*
X03229Y02369D01*
Y02359D01*
X03219Y02349D01*
X03199D01*
X03189Y02359D01*
Y02369D01*
X03199Y02379D01*
X03189Y02389D01*
Y02399D01*
X03199Y02379D02*
X03219D01*
X04891Y04558D02*
X04881Y04568D01*
X04861D01*
X04851Y04558D01*
Y04518D01*
X04861Y04508D01*
X04881D01*
X04891Y04518D01*
X04911Y04508D02*
X04931D01*
X04921D01*
Y04568D01*
X04911Y04558D01*
X04961Y04568D02*
X05001D01*
Y04558D01*
X04961Y04518D01*
Y04508D01*
X04744Y04313D02*
X04734Y04323D01*
X04714D01*
X04704Y04313D01*
Y04273D01*
X04714Y04263D01*
X04734D01*
X04744Y04273D01*
X04764Y04263D02*
X04784D01*
X04774D01*
Y04323D01*
X04764Y04313D01*
X04854Y04323D02*
X04834Y04313D01*
X04814Y04293D01*
Y04273D01*
X04824Y04263D01*
X04844D01*
X04854Y04273D01*
Y04283D01*
X04844Y04293D01*
X04814D01*
X03078Y03653D02*
X03068Y03663D01*
X03048D01*
X03038Y03653D01*
Y03613D01*
X03048Y03603D01*
X03068D01*
X03078Y03613D01*
X03098Y03603D02*
X03118D01*
X03108D01*
Y03663D01*
X03098Y03653D01*
X03188Y03663D02*
X03148D01*
Y03633D01*
X03168Y03643D01*
X03178D01*
X03188Y03633D01*
Y03613D01*
X03178Y03603D01*
X03158D01*
X03148Y03613D01*
X02443Y02419D02*
X02433Y02429D01*
X02413D01*
X02403Y02419D01*
Y02379D01*
X02413Y02369D01*
X02433D01*
X02443Y02379D01*
X02463Y02369D02*
X02483D01*
X02473D01*
Y02429D01*
X02463Y02419D01*
X02543Y02369D02*
Y02429D01*
X02513Y02399D01*
X02553D01*
X01794Y02618D02*
X01784Y02628D01*
X01764D01*
X01754Y02618D01*
Y02578D01*
X01764Y02568D01*
X01784D01*
X01794Y02578D01*
X01814Y02568D02*
X01834D01*
X01824D01*
Y02628D01*
X01814Y02618D01*
X01864D02*
X01874Y02628D01*
X01894D01*
X01904Y02618D01*
Y02608D01*
X01894Y02598D01*
X01884D01*
X01894D01*
X01904Y02588D01*
Y02578D01*
X01894Y02568D01*
X01874D01*
X01864Y02578D01*
X01476Y02801D02*
X01466Y02811D01*
X01446D01*
X01436Y02801D01*
Y02761D01*
X01446Y02751D01*
X01466D01*
X01476Y02761D01*
X01496Y02751D02*
X01516D01*
X01506D01*
Y02811D01*
X01496Y02801D01*
X01586Y02751D02*
X01546D01*
X01586Y02791D01*
Y02801D01*
X01576Y02811D01*
X01556D01*
X01546Y02801D01*
X02164Y01819D02*
X02154Y01829D01*
X02134D01*
X02124Y01819D01*
Y01779D01*
X02134Y01769D01*
X02154D01*
X02164Y01779D01*
X02184Y01769D02*
X02204D01*
X02194D01*
Y01829D01*
X02184Y01819D01*
X02234Y01769D02*
X02254D01*
X02244D01*
Y01829D01*
X02234Y01819D01*
X01987D02*
X01977Y01829D01*
X01957D01*
X01947Y01819D01*
Y01779D01*
X01957Y01769D01*
X01977D01*
X01987Y01779D01*
X02007Y01769D02*
X02027D01*
X02017D01*
Y01829D01*
X02007Y01819D01*
X02057D02*
X02067Y01829D01*
X02087D01*
X02097Y01819D01*
Y01779D01*
X02087Y01769D01*
X02067D01*
X02057Y01779D01*
Y01819D01*
X02026Y02439D02*
X02016Y02449D01*
X01996D01*
X01986Y02439D01*
Y02399D01*
X01996Y02389D01*
X02016D01*
X02026Y02399D01*
X02046D02*
X02056Y02389D01*
X02076D01*
X02086Y02399D01*
Y02439D01*
X02076Y02449D01*
X02056D01*
X02046Y02439D01*
Y02429D01*
X02056Y02419D01*
X02086D01*
X02668Y04173D02*
X02658Y04183D01*
X02638D01*
X02628Y04173D01*
Y04133D01*
X02638Y04123D01*
X02658D01*
X02668Y04133D01*
X02688Y04173D02*
X02698Y04183D01*
X02718D01*
X02728Y04173D01*
Y04163D01*
X02718Y04153D01*
X02728Y04143D01*
Y04133D01*
X02718Y04123D01*
X02698D01*
X02688Y04133D01*
Y04143D01*
X02698Y04153D01*
X02688Y04163D01*
Y04173D01*
X02698Y04153D02*
X02718D01*
X02155Y04430D02*
X02145Y04440D01*
X02125D01*
X02115Y04430D01*
Y04390D01*
X02125Y04380D01*
X02145D01*
X02155Y04390D01*
X02175Y04440D02*
X02214D01*
Y04430D01*
X02175Y04390D01*
Y04380D01*
X01475Y01848D02*
X01465Y01858D01*
X01445D01*
X01435Y01848D01*
Y01808D01*
X01445Y01798D01*
X01465D01*
X01475Y01808D01*
X01535Y01858D02*
X01515Y01848D01*
X01495Y01828D01*
Y01808D01*
X01505Y01798D01*
X01525D01*
X01535Y01808D01*
Y01818D01*
X01525Y01828D01*
X01495D01*
X01643Y04430D02*
X01633Y04440D01*
X01613D01*
X01603Y04430D01*
Y04390D01*
X01613Y04380D01*
X01633D01*
X01643Y04390D01*
X01703Y04440D02*
X01663D01*
Y04410D01*
X01683Y04420D01*
X01693D01*
X01703Y04410D01*
Y04390D01*
X01693Y04380D01*
X01673D01*
X01663Y04390D01*
X01682Y02439D02*
X01672Y02449D01*
X01652D01*
X01642Y02439D01*
Y02399D01*
X01652Y02389D01*
X01672D01*
X01682Y02399D01*
X01732Y02389D02*
Y02449D01*
X01702Y02419D01*
X01742D01*
X01633Y02124D02*
X01623Y02134D01*
X01603D01*
X01593Y02124D01*
Y02084D01*
X01603Y02074D01*
X01623D01*
X01633Y02084D01*
X01653Y02124D02*
X01663Y02134D01*
X01683D01*
X01693Y02124D01*
Y02114D01*
X01683Y02104D01*
X01673D01*
X01683D01*
X01693Y02094D01*
Y02084D01*
X01683Y02074D01*
X01663D01*
X01653Y02084D01*
X01288Y02586D02*
X01278Y02596D01*
X01258D01*
X01248Y02586D01*
Y02546D01*
X01258Y02536D01*
X01278D01*
X01288Y02546D01*
X01348Y02536D02*
X01308D01*
X01348Y02576D01*
Y02586D01*
X01338Y02596D01*
X01318D01*
X01308Y02586D01*
X01131Y02153D02*
X01121Y02163D01*
X01101D01*
X01091Y02153D01*
Y02113D01*
X01101Y02103D01*
X01121D01*
X01131Y02113D01*
X01151Y02103D02*
X01171D01*
X01161D01*
Y02163D01*
X01151Y02153D01*
X01215Y03466D02*
Y03526D01*
X01245D01*
X01255Y03516D01*
Y03496D01*
X01245Y03486D01*
X01215D01*
X01275Y03526D02*
Y03466D01*
X01305D01*
X01315Y03476D01*
Y03516D01*
X01305Y03526D01*
X01275D01*
X01375Y03466D02*
X01335D01*
X01375Y03506D01*
Y03516D01*
X01365Y03526D01*
X01345D01*
X01335Y03516D01*
X01423Y04627D02*
Y04687D01*
X01453D01*
X01463Y04677D01*
Y04657D01*
X01453Y04647D01*
X01423D01*
X01483Y04687D02*
Y04627D01*
X01513D01*
X01523Y04637D01*
Y04677D01*
X01513Y04687D01*
X01483D01*
X01543Y04627D02*
X01563D01*
X01553D01*
Y04687D01*
X01543Y04677D01*
M02*
