M48
;Layer_Color=9474304
;FILE_FORMAT=2:3
INCH
;TYPE=PLATED
T1F00S00C0.028
T2F00S00C0.035
T3F00S00C0.049
T4F00S00C0.052
T5F00S00C0.075
T6F00S00C0.118
T7F00S00C0.138
%
T01
X06349Y02805
X06203Y03052
X06103
X06003
X03353Y03101
X02431Y02655
X02331
X02231
X02070Y02197
X02514Y02210
X01770Y02428
X01258Y02300
X01209Y02192
X03494Y03466
T02
X03766Y02547
Y02647
Y02747
Y02847
T03
X03323Y04145
Y04245
Y04345
T04
X03626Y03741
X03727
X03825
T05
X01227Y03643
X01423
Y03918
X01227
Y04194
X01423
Y04470
X01227
X06187Y04548
Y04273
Y04076
Y03800
X06384
Y04076
Y04273
Y04548
T06
X03727Y04351
X04396
T07
X01207Y01202
X06719
Y04745
X01207
M30
