G04 Layer_Color=32896*
%FSAX23Y23*%
%MOIN*%
G70*
G01*
G75*
%ADD50C,0.004*%
%ADD78C,0.002*%
G54D50*
X06089Y03705D02*
Y04171D01*
Y03705D02*
X06482D01*
Y04171D01*
X06089D02*
X06482D01*
X06089Y04177D02*
Y04644D01*
Y04177D02*
X06482D01*
Y04644D01*
X06089D02*
X06482D01*
X01128Y04099D02*
Y04565D01*
Y04099D02*
X01522D01*
Y04565D01*
X01128D02*
X01522D01*
X01128Y03547D02*
Y04014D01*
Y03547D02*
X01522D01*
Y04014D01*
X01128D02*
X01522D01*
X06070Y02691D02*
X06555Y02691D01*
Y02422D02*
Y02691D01*
X06070Y02422D02*
X06555D01*
X06070D02*
Y02691D01*
X04843Y04475D02*
X05327D01*
X04843Y03893D02*
Y04475D01*
Y03893D02*
X05327D01*
Y04475D01*
X05354Y04472D02*
X05839D01*
X05354Y03889D02*
Y04472D01*
Y03889D02*
X05839D01*
Y04472D01*
X01595Y04348D02*
X02079D01*
X01595Y03765D02*
Y04348D01*
Y03765D02*
X02079D01*
Y04348D01*
X02106D02*
X02591D01*
X02106Y03765D02*
Y04348D01*
Y03765D02*
X02591D01*
Y04348D01*
X02329Y02327D02*
X02814D01*
X02329D02*
Y02596D01*
X02814D01*
Y02327D02*
Y02596D01*
G54D78*
X06368Y03288D02*
Y03367D01*
Y03288D02*
X06502D01*
Y03367D01*
X06368D02*
X06502D01*
X06579Y03288D02*
Y03367D01*
Y03288D02*
X06713D01*
Y03367D01*
X06579D02*
X06713D01*
X03058Y03853D02*
X03174D01*
X03058D02*
Y03924D01*
X03174D01*
Y03853D02*
Y03924D01*
X03236Y03849D02*
Y03928D01*
Y03849D02*
X03370D01*
Y03928D01*
X03236D02*
X03370D01*
X02699Y03998D02*
Y04114D01*
X02628Y03998D02*
X02699D01*
X02628D02*
Y04114D01*
X02699D01*
X05761Y03879D02*
X06062D01*
Y03722D02*
Y03879D01*
X05761Y03722D02*
X06062D01*
X05761D02*
Y03879D01*
X02650Y02030D02*
Y02146D01*
X02721D01*
Y02030D02*
Y02146D01*
X02650Y02030D02*
X02721D01*
X01992Y02452D02*
Y02531D01*
X01858D02*
X01992D01*
X01858Y02452D02*
Y02531D01*
Y02452D02*
X01992D01*
X01682Y02456D02*
X01798D01*
X01682D02*
Y02527D01*
X01798D01*
Y02456D02*
Y02527D01*
X04695Y04116D02*
Y04232D01*
X04766D01*
Y04116D02*
Y04232D01*
X04695Y04116D02*
X04766D01*
X03194Y04031D02*
X03394Y04031D01*
Y04459D01*
X03194Y04459D02*
X03394Y04459D01*
X03194Y04031D02*
Y04459D01*
X01756Y02196D02*
Y02275D01*
X01622D02*
X01756D01*
X01622Y02196D02*
Y02275D01*
Y02196D02*
X01756D01*
X01624Y02068D02*
Y02147D01*
Y02068D02*
X01758D01*
Y02147D01*
X01624D02*
X01758D01*
X01623Y02359D02*
X01739D01*
Y02288D02*
Y02359D01*
X01623Y02288D02*
X01739D01*
X01623D02*
Y02359D01*
X01583Y01834D02*
X01662D01*
Y01968D01*
X01583D02*
X01662D01*
X01583Y01834D02*
Y01968D01*
X01436Y01905D02*
X01552D01*
X01436D02*
Y01975D01*
X01552D01*
Y01905D02*
Y01975D01*
X01683Y01822D02*
Y01901D01*
Y01822D02*
X01817D01*
Y01901D01*
X01683D02*
X01817D01*
X01682Y01975D02*
X01798D01*
Y01905D02*
Y01975D01*
X01682Y01905D02*
X01798D01*
X01682D02*
Y01975D01*
X01682Y01788D02*
X01798D01*
Y01718D02*
Y01788D01*
X01682Y01718D02*
X01798D01*
X01682D02*
Y01788D01*
X01781Y02271D02*
X01897D01*
X01897Y02200D02*
X01897Y02271D01*
X01781Y02200D02*
X01897D01*
X01781D02*
Y02271D01*
X03325Y03426D02*
Y03505D01*
Y03426D02*
X03459D01*
Y03505D01*
X03325D02*
X03459D01*
X03325Y03151D02*
Y03229D01*
Y03151D02*
X03459D01*
Y03229D01*
X03325D02*
X03459D01*
X03518Y03872D02*
X03947D01*
X03947Y03671D01*
X03518D02*
X03947D01*
X03518D02*
X03518Y03872D01*
X02862Y03501D02*
X02977D01*
Y03430D02*
Y03501D01*
X02862Y03430D02*
X02977D01*
X02862D02*
Y03501D01*
X02286Y01666D02*
Y01781D01*
X02356D01*
Y01666D02*
Y01781D01*
X02286Y01666D02*
X02356D01*
X03240Y02109D02*
Y02224D01*
X03311D01*
Y02109D02*
Y02224D01*
X03240Y02109D02*
X03311D01*
X02518Y01747D02*
X02597D01*
Y01881D01*
X02518D02*
X02597D01*
X02518Y01747D02*
Y01881D01*
X02374Y01666D02*
Y01781D01*
X02445D01*
Y01666D02*
Y01781D01*
X02374Y01666D02*
X02445D01*
X01869Y02438D02*
X01985D01*
Y02367D02*
Y02438D01*
X01869Y02367D02*
X01985D01*
X01869D02*
Y02438D01*
X01987Y01773D02*
Y02186D01*
Y01773D02*
X02281D01*
Y02186D01*
X01987D02*
X02281D01*
X02437Y02599D02*
Y02678D01*
X02303D02*
X02437D01*
X02303Y02599D02*
Y02678D01*
Y02599D02*
X02437D01*
X02303Y02121D02*
X02418D01*
X02303D02*
Y02192D01*
X02418D01*
Y02121D02*
Y02192D01*
X02449Y02029D02*
X02528D01*
Y02162D01*
X02449D02*
X02528D01*
X02449Y02029D02*
Y02162D01*
Y02188D02*
X02528D01*
Y02322D01*
X02449D02*
X02528D01*
X02449Y02188D02*
Y02322D01*
X02353Y01812D02*
Y01891D01*
Y01812D02*
X02486D01*
Y01891D01*
X02353D02*
X02486D01*
X01290Y02609D02*
X01368D01*
X01290Y02475D02*
Y02609D01*
Y02475D02*
X01368D01*
Y02609D01*
M02*
