G04 Layer_Color=16711935*
%FSAX23Y23*%
%MOIN*%
G70*
G01*
G75*
%ADD68O,0.087X0.106*%
%ADD69O,0.087X0.067*%
%ADD70R,0.087X0.067*%
%ADD71O,0.086X0.126*%
%ADD72R,0.086X0.086*%
%ADD73C,0.185*%
%ADD74R,0.082X0.082*%
%ADD75O,0.126X0.082*%
%ADD76C,0.165*%
%ADD77O,0.106X0.087*%
%ADD78C,0.120*%
%ADD79C,0.087*%
G54D68*
X02431Y02655D02*
D03*
X02331D02*
D03*
X02231D02*
D03*
G54D69*
X03766Y02847D02*
D03*
Y02747D02*
D03*
Y02647D02*
D03*
G54D70*
Y02547D02*
D03*
G54D71*
X03825Y03741D02*
D03*
X03727D02*
D03*
G54D72*
X03626D02*
D03*
G54D73*
X06719Y01202D02*
D03*
Y04745D02*
D03*
X01207Y01202D02*
D03*
Y04745D02*
D03*
G54D74*
X03323Y04145D02*
D03*
G54D75*
Y04245D02*
D03*
Y04345D02*
D03*
G54D76*
X04396Y04351D02*
D03*
X03727D02*
D03*
G54D77*
X06679Y02551D02*
D03*
Y02651D02*
D03*
Y02751D02*
D03*
G54D78*
X01227Y03643D02*
D03*
X01423D02*
D03*
X01227Y03918D02*
D03*
X01423D02*
D03*
X01227Y04194D02*
D03*
X01423D02*
D03*
X01227Y04470D02*
D03*
X01423D02*
D03*
X06187Y04273D02*
D03*
X06384D02*
D03*
X06187Y04548D02*
D03*
X06384D02*
D03*
X06187Y03800D02*
D03*
X06384D02*
D03*
X06187Y04076D02*
D03*
X06384D02*
D03*
G54D79*
X03494Y03466D02*
D03*
X01770Y02428D02*
D03*
X03353Y03101D02*
D03*
X06471Y03056D02*
D03*
X02723Y02548D02*
D03*
X02526Y02241D02*
D03*
X01254Y02355D02*
D03*
X01160Y02218D02*
D03*
M02*
