G04 Layer_Color=65535*
%FSAX23Y23*%
%MOIN*%
G70*
G01*
G75*
%ADD49C,0.008*%
%ADD50C,0.004*%
%ADD51C,0.028*%
%ADD52C,0.010*%
%ADD53C,0.010*%
G54D49*
X06516Y02556D02*
X06508D01*
X06516D01*
X03424Y01907D02*
Y01914D01*
Y01907D01*
X03105D02*
Y01914D01*
Y01907D01*
X02369Y02462D02*
X02377D01*
X02369D01*
X06435Y03307D02*
Y03349D01*
X06646Y03307D02*
Y03349D01*
X03116Y03866D02*
Y03911D01*
X03303Y03868D02*
Y03910D01*
X02641Y04056D02*
X02686D01*
X05912Y03739D02*
Y03861D01*
X02663Y02088D02*
X02708D01*
X01925Y02471D02*
Y02512D01*
X01740Y02469D02*
Y02514D01*
X04708Y04174D02*
X04753D01*
X04882Y03981D02*
Y03995D01*
Y03981D02*
X05032D01*
X05134D02*
X05288D01*
Y04286D01*
X05186Y04387D02*
X05288Y04286D01*
X04882D02*
X04983Y04387D01*
X04882Y03981D02*
Y04286D01*
X05394Y03977D02*
Y03991D01*
Y03977D02*
X05543D01*
X05646D02*
X05799D01*
Y04282D01*
X05698Y04383D02*
X05799Y04282D01*
X05394D02*
X05495Y04383D01*
X05394Y03977D02*
Y04282D01*
X01634Y03853D02*
Y03867D01*
Y03853D02*
X01784D01*
X01886D02*
X02040D01*
Y04158D01*
X01938Y04259D02*
X02040Y04158D01*
X01634D02*
X01735Y04259D01*
X01634Y03853D02*
Y04158D01*
X02146Y03853D02*
Y03867D01*
Y03853D02*
X02295D01*
X02398D02*
X02551D01*
Y04158D01*
X02450Y04259D02*
X02551Y04158D01*
X02146D02*
X02247Y04259D01*
X02146Y03853D02*
Y04158D01*
X03204Y04041D02*
X03323D01*
X03204D02*
Y04449D01*
X03384D01*
X01689Y02215D02*
Y02256D01*
X01691Y02087D02*
Y02128D01*
X01681Y02301D02*
Y02347D01*
X01602Y01901D02*
X01643D01*
X01494Y01917D02*
Y01963D01*
X01750Y01841D02*
Y01882D01*
X01740Y01917D02*
Y01963D01*
X01740Y01730D02*
Y01776D01*
X01839Y02213D02*
Y02258D01*
X03263Y01881D02*
X03361D01*
X03263D02*
Y01911D01*
Y02029D02*
Y02058D01*
X03361D01*
X02944Y01881D02*
X03042D01*
X02944D02*
Y01911D01*
Y02029D02*
Y02058D01*
X03042D01*
X03319Y03298D02*
X03441D01*
X03319Y03377D02*
X03441D01*
X03392Y03445D02*
Y03486D01*
Y03169D02*
Y03211D01*
X03121Y03161D02*
X03180D01*
X03121Y03220D02*
X03180D01*
X03126Y03367D02*
X03185D01*
X03126Y03308D02*
X03185D01*
X03126Y03436D02*
X03185D01*
X03126Y03495D02*
X03185D01*
X03937Y03862D02*
X03937Y03681D01*
X03528Y03862D02*
X03937D01*
X03528Y03741D02*
X03528Y03862D01*
X02919Y03443D02*
Y03488D01*
X02298Y01724D02*
X02344D01*
X03253Y02166D02*
X03298D01*
X02537Y01814D02*
X02578D01*
X02387Y01724D02*
X02432D01*
X01927Y02380D02*
Y02425D01*
X01997Y02181D02*
X02057D01*
X02071Y01785D02*
Y02174D01*
Y01785D02*
X02197D01*
Y02174D01*
X02071D02*
X02197D01*
X02370Y02618D02*
Y02660D01*
X02360Y02134D02*
Y02179D01*
X02468Y02096D02*
X02509D01*
X02468Y02255D02*
X02509D01*
X03972Y02704D02*
X04072D01*
Y02304D02*
Y02704D01*
X03972Y02304D02*
Y02704D01*
Y02304D02*
X04072D01*
X02419Y01831D02*
Y01872D01*
X01308Y02542D02*
X01350D01*
G54D50*
X05085Y04456D02*
Y04460D01*
Y04456D01*
X05597Y04452D02*
Y04456D01*
Y04452D01*
X01837Y04328D02*
Y04332D01*
Y04328D01*
X02349D02*
Y04332D01*
Y04328D01*
X06443Y03859D02*
Y03997D01*
X06128Y03859D02*
Y03997D01*
X06443Y04332D02*
Y04470D01*
X06128Y04332D02*
Y04470D01*
X01482Y04253D02*
Y04391D01*
X01167Y04253D02*
Y04391D01*
X01482Y03702D02*
Y03840D01*
X01167Y03702D02*
Y03840D01*
X06110Y02651D02*
X06485D01*
X06485Y02461D01*
X06110D02*
X06485D01*
X06110Y02651D02*
X06110Y02461D01*
X03095Y02367D02*
Y02733D01*
X03555Y02373D02*
Y02733D01*
X02399Y02366D02*
X02774D01*
X02399Y02557D02*
X02399Y02366D01*
X02399Y02557D02*
X02774D01*
X02774Y02366D01*
G54D51*
X03124Y02267D02*
Y02263D01*
Y02267D01*
G54D52*
X03038Y03190D02*
X03030Y03194D01*
Y03186D01*
X03038Y03190D01*
X03279Y03338D02*
X03271Y03342D01*
Y03333D01*
X03279Y03338D01*
X03042Y03466D02*
X03035Y03470D01*
Y03461D01*
X03042Y03466D01*
G54D53*
X04553Y04115D02*
Y04588D01*
X03569Y04115D02*
Y04588D01*
Y04115D02*
X04553D01*
X03569Y04588D02*
X04553D01*
X03193Y03949D02*
Y04540D01*
X02996Y03949D02*
X03390D01*
X02996Y04540D02*
X03390D01*
X02996Y04068D02*
X03193D01*
X02996Y04186D02*
X03193D01*
X02996Y04304D02*
X03193Y04304D01*
X02996Y04422D02*
X03193D01*
X03902Y03875D02*
Y04072D01*
X03784Y03875D02*
X03784Y04072D01*
X03666Y03875D02*
Y04072D01*
X03547Y03875D02*
Y04072D01*
X04020Y03678D02*
Y04072D01*
X03429Y03678D02*
Y04072D01*
X03429Y03875D02*
X04020D01*
X01423Y04627D02*
Y04687D01*
X01453D01*
X01463Y04677D01*
Y04657D01*
X01453Y04647D01*
X01423D01*
X01483Y04687D02*
Y04627D01*
X01513D01*
X01523Y04637D01*
Y04677D01*
X01513Y04687D01*
X01483D01*
X01543Y04627D02*
X01563D01*
X01553D01*
Y04687D01*
X01543Y04677D01*
X01215Y03466D02*
Y03526D01*
X01245D01*
X01255Y03516D01*
Y03496D01*
X01245Y03486D01*
X01215D01*
X01275Y03526D02*
Y03466D01*
X01305D01*
X01315Y03476D01*
Y03516D01*
X01305Y03526D01*
X01275D01*
X01375Y03466D02*
X01335D01*
X01375Y03506D01*
Y03516D01*
X01365Y03526D01*
X01345D01*
X01335Y03516D01*
X01499Y01866D02*
X01489Y01876D01*
X01469D01*
X01459Y01866D01*
Y01826D01*
X01469Y01816D01*
X01489D01*
X01499Y01826D01*
X01519Y01816D02*
X01539D01*
X01529D01*
Y01876D01*
X01519Y01866D01*
X01544Y02394D02*
X01534Y02404D01*
X01514D01*
X01504Y02394D01*
Y02354D01*
X01514Y02344D01*
X01534D01*
X01544Y02354D01*
X01604Y02344D02*
X01564D01*
X01604Y02384D01*
Y02394D01*
X01594Y02404D01*
X01574D01*
X01564Y02394D01*
X01861Y01972D02*
X01851Y01982D01*
X01831D01*
X01821Y01972D01*
Y01932D01*
X01831Y01922D01*
X01851D01*
X01861Y01932D01*
X01881Y01972D02*
X01891Y01982D01*
X01911D01*
X01921Y01972D01*
Y01962D01*
X01911Y01952D01*
X01901D01*
X01911D01*
X01921Y01942D01*
Y01932D01*
X01911Y01922D01*
X01891D01*
X01881Y01932D01*
X01814Y02342D02*
X01804Y02352D01*
X01784D01*
X01774Y02342D01*
Y02302D01*
X01784Y02292D01*
X01804D01*
X01814Y02302D01*
X01864Y02292D02*
Y02352D01*
X01834Y02322D01*
X01874D01*
X01643Y04430D02*
X01633Y04440D01*
X01613D01*
X01603Y04430D01*
Y04390D01*
X01613Y04380D01*
X01633D01*
X01643Y04390D01*
X01703Y04440D02*
X01663D01*
Y04410D01*
X01683Y04420D01*
X01693D01*
X01703Y04410D01*
Y04390D01*
X01693Y04380D01*
X01673D01*
X01663Y04390D01*
X01747Y01693D02*
X01737Y01703D01*
X01717D01*
X01707Y01693D01*
Y01653D01*
X01717Y01643D01*
X01737D01*
X01747Y01653D01*
X01807Y01703D02*
X01787Y01693D01*
X01767Y01673D01*
Y01653D01*
X01777Y01643D01*
X01797D01*
X01807Y01653D01*
Y01663D01*
X01797Y01673D01*
X01767D01*
X02155Y04430D02*
X02145Y04440D01*
X02125D01*
X02115Y04430D01*
Y04390D01*
X02125Y04380D01*
X02145D01*
X02155Y04390D01*
X02175Y04440D02*
X02214D01*
Y04430D01*
X02175Y04390D01*
Y04380D01*
X02668Y04173D02*
X02658Y04183D01*
X02638D01*
X02628Y04173D01*
Y04133D01*
X02638Y04123D01*
X02658D01*
X02668Y04133D01*
X02688Y04173D02*
X02698Y04183D01*
X02718D01*
X02728Y04173D01*
Y04163D01*
X02718Y04153D01*
X02728Y04143D01*
Y04133D01*
X02718Y04123D01*
X02698D01*
X02688Y04133D01*
Y04143D01*
X02698Y04153D01*
X02688Y04163D01*
Y04173D01*
X02698Y04153D02*
X02718D01*
X02361Y02268D02*
X02351Y02278D01*
X02331D01*
X02321Y02268D01*
Y02228D01*
X02331Y02218D01*
X02351D01*
X02361Y02228D01*
X02381D02*
X02391Y02218D01*
X02411D01*
X02421Y02228D01*
Y02268D01*
X02411Y02278D01*
X02391D01*
X02381Y02268D01*
Y02258D01*
X02391Y02248D01*
X02421D01*
X02235Y01649D02*
X02225Y01659D01*
X02205D01*
X02195Y01649D01*
Y01609D01*
X02205Y01599D01*
X02225D01*
X02235Y01609D01*
X02255Y01599D02*
X02275D01*
X02265D01*
Y01659D01*
X02255Y01649D01*
X02305D02*
X02315Y01659D01*
X02335D01*
X02345Y01649D01*
Y01609D01*
X02335Y01599D01*
X02315D01*
X02305Y01609D01*
Y01649D01*
X02420Y01646D02*
X02410Y01656D01*
X02390D01*
X02380Y01646D01*
Y01606D01*
X02390Y01596D01*
X02410D01*
X02420Y01606D01*
X02440Y01596D02*
X02460D01*
X02450D01*
Y01656D01*
X02440Y01646D01*
X02490Y01596D02*
X02510D01*
X02500D01*
Y01656D01*
X02490Y01646D01*
X01732Y02608D02*
X01722Y02618D01*
X01702D01*
X01692Y02608D01*
Y02568D01*
X01702Y02558D01*
X01722D01*
X01732Y02568D01*
X01752Y02558D02*
X01772D01*
X01762D01*
Y02618D01*
X01752Y02608D01*
X01842Y02558D02*
X01802D01*
X01842Y02598D01*
Y02608D01*
X01832Y02618D01*
X01812D01*
X01802Y02608D01*
X02050Y02425D02*
X02040Y02435D01*
X02020D01*
X02010Y02425D01*
Y02385D01*
X02020Y02375D01*
X02040D01*
X02050Y02385D01*
X02070Y02375D02*
X02090D01*
X02080D01*
Y02435D01*
X02070Y02425D01*
X02120D02*
X02130Y02435D01*
X02150D01*
X02160Y02425D01*
Y02415D01*
X02150Y02405D01*
X02140D01*
X02150D01*
X02160Y02395D01*
Y02385D01*
X02150Y02375D01*
X02130D01*
X02120Y02385D01*
X02699Y02226D02*
X02689Y02236D01*
X02669D01*
X02659Y02226D01*
Y02186D01*
X02669Y02176D01*
X02689D01*
X02699Y02186D01*
X02719Y02176D02*
X02739D01*
X02729D01*
Y02236D01*
X02719Y02226D01*
X02799Y02176D02*
Y02236D01*
X02769Y02206D01*
X02809D01*
X03078Y03653D02*
X03068Y03663D01*
X03048D01*
X03038Y03653D01*
Y03613D01*
X03048Y03603D01*
X03068D01*
X03078Y03613D01*
X03098Y03603D02*
X03118D01*
X03108D01*
Y03663D01*
X03098Y03653D01*
X03188Y03663D02*
X03148D01*
Y03633D01*
X03168Y03643D01*
X03178D01*
X03188Y03633D01*
Y03613D01*
X03178Y03603D01*
X03158D01*
X03148Y03613D01*
X04744Y04313D02*
X04734Y04323D01*
X04714D01*
X04704Y04313D01*
Y04273D01*
X04714Y04263D01*
X04734D01*
X04744Y04273D01*
X04764Y04263D02*
X04784D01*
X04774D01*
Y04323D01*
X04764Y04313D01*
X04854Y04323D02*
X04834Y04313D01*
X04814Y04293D01*
Y04273D01*
X04824Y04263D01*
X04844D01*
X04854Y04273D01*
Y04283D01*
X04844Y04293D01*
X04814D01*
X04891Y04558D02*
X04881Y04568D01*
X04861D01*
X04851Y04558D01*
Y04518D01*
X04861Y04508D01*
X04881D01*
X04891Y04518D01*
X04911Y04508D02*
X04931D01*
X04921D01*
Y04568D01*
X04911Y04558D01*
X04961Y04568D02*
X05001D01*
Y04558D01*
X04961Y04518D01*
Y04508D01*
X03375Y02207D02*
X03365Y02217D01*
X03345D01*
X03335Y02207D01*
Y02167D01*
X03345Y02157D01*
X03365D01*
X03375Y02167D01*
X03395Y02157D02*
X03415D01*
X03405D01*
Y02217D01*
X03395Y02207D01*
X03445D02*
X03455Y02217D01*
X03475D01*
X03485Y02207D01*
Y02197D01*
X03475Y02187D01*
X03485Y02177D01*
Y02167D01*
X03475Y02157D01*
X03455D01*
X03445Y02167D01*
Y02177D01*
X03455Y02187D01*
X03445Y02197D01*
Y02207D01*
X03455Y02187D02*
X03475D01*
X05403Y04554D02*
X05393Y04564D01*
X05373D01*
X05363Y04554D01*
Y04514D01*
X05373Y04504D01*
X05393D01*
X05403Y04514D01*
X05423Y04504D02*
X05443D01*
X05433D01*
Y04564D01*
X05423Y04554D01*
X05473Y04514D02*
X05483Y04504D01*
X05503D01*
X05513Y04514D01*
Y04554D01*
X05503Y04564D01*
X05483D01*
X05473Y04554D01*
Y04544D01*
X05483Y04534D01*
X05513D01*
X02841Y03575D02*
X02831Y03585D01*
X02811D01*
X02801Y03575D01*
Y03535D01*
X02811Y03525D01*
X02831D01*
X02841Y03535D01*
X02901Y03525D02*
X02861D01*
X02901Y03565D01*
Y03575D01*
X02891Y03585D01*
X02871D01*
X02861Y03575D01*
X02921D02*
X02931Y03585D01*
X02951D01*
X02961Y03575D01*
Y03535D01*
X02951Y03525D01*
X02931D01*
X02921Y03535D01*
Y03575D01*
X03451Y04047D02*
Y03987D01*
X03481D01*
X03491Y03997D01*
Y04037D01*
X03481Y04047D01*
X03451D01*
X03511Y03987D02*
X03531D01*
X03521D01*
Y04047D01*
X03511Y04037D01*
X02895Y03220D02*
Y03161D01*
X02925D01*
X02935Y03171D01*
Y03210D01*
X02925Y03220D01*
X02895D01*
X02995Y03161D02*
X02955D01*
X02995Y03200D01*
Y03210D01*
X02985Y03220D01*
X02965D01*
X02955Y03210D01*
X03087Y03585D02*
Y03525D01*
X03117D01*
X03127Y03535D01*
Y03575D01*
X03117Y03585D01*
X03087D01*
X03147Y03575D02*
X03157Y03585D01*
X03177D01*
X03187Y03575D01*
Y03565D01*
X03177Y03555D01*
X03167D01*
X03177D01*
X03187Y03545D01*
Y03535D01*
X03177Y03525D01*
X03157D01*
X03147Y03535D01*
X02919Y03368D02*
Y03308D01*
X02949D01*
X02959Y03318D01*
Y03358D01*
X02949Y03368D01*
X02919D01*
X03009Y03308D02*
Y03368D01*
X02979Y03338D01*
X03019D01*
X03953Y02258D02*
Y02198D01*
Y02228D01*
X03993D01*
Y02258D01*
Y02198D01*
X04013Y02258D02*
Y02198D01*
X04043D01*
X04053Y02208D01*
Y02248D01*
X04043Y02258D01*
X04013D01*
X04073Y02198D02*
X04093D01*
X04083D01*
Y02258D01*
X04073Y02248D01*
X06636Y01384D02*
Y01324D01*
Y01354D01*
X06676D01*
Y01384D01*
Y01324D01*
X06726Y01384D02*
X06706D01*
X06696Y01374D01*
Y01334D01*
X06706Y01324D01*
X06726D01*
X06736Y01334D01*
Y01374D01*
X06726Y01384D01*
X06756Y01324D02*
X06776D01*
X06766D01*
Y01384D01*
X06756Y01374D01*
X06636Y04928D02*
Y04868D01*
Y04898D01*
X06676D01*
Y04928D01*
Y04868D01*
X06726Y04928D02*
X06706D01*
X06696Y04918D01*
Y04878D01*
X06706Y04868D01*
X06726D01*
X06736Y04878D01*
Y04918D01*
X06726Y04928D01*
X06796Y04868D02*
X06756D01*
X06796Y04908D01*
Y04918D01*
X06786Y04928D01*
X06766D01*
X06756Y04918D01*
X01124Y01384D02*
Y01324D01*
Y01354D01*
X01164D01*
Y01384D01*
Y01324D01*
X01214Y01384D02*
X01194D01*
X01184Y01374D01*
Y01334D01*
X01194Y01324D01*
X01214D01*
X01224Y01334D01*
Y01374D01*
X01214Y01384D01*
X01244Y01374D02*
X01254Y01384D01*
X01274D01*
X01284Y01374D01*
Y01364D01*
X01274Y01354D01*
X01264D01*
X01274D01*
X01284Y01344D01*
Y01334D01*
X01274Y01324D01*
X01254D01*
X01244Y01334D01*
X01124Y04928D02*
Y04868D01*
Y04898D01*
X01164D01*
Y04928D01*
Y04868D01*
X01214Y04928D02*
X01194D01*
X01184Y04918D01*
Y04878D01*
X01194Y04868D01*
X01214D01*
X01224Y04878D01*
Y04918D01*
X01214Y04928D01*
X01274Y04868D02*
Y04928D01*
X01244Y04898D01*
X01284D01*
X03574Y04683D02*
Y04623D01*
X03614D01*
X03634D02*
X03654D01*
X03644D01*
Y04683D01*
X03634Y04673D01*
X06097Y04676D02*
Y04736D01*
X06127D01*
X06137Y04726D01*
Y04706D01*
X06127Y04696D01*
X06097D01*
X06157Y04736D02*
Y04676D01*
X06187D01*
X06197Y04686D01*
Y04726D01*
X06187Y04736D01*
X06157D01*
X06217Y04726D02*
X06227Y04736D01*
X06247D01*
X06257Y04726D01*
Y04716D01*
X06247Y04706D01*
X06237D01*
X06247D01*
X06257Y04696D01*
Y04686D01*
X06247Y04676D01*
X06227D01*
X06217Y04686D01*
X06199Y03651D02*
Y03711D01*
X06229D01*
X06239Y03701D01*
Y03681D01*
X06229Y03671D01*
X06199D01*
X06259Y03711D02*
Y03651D01*
X06289D01*
X06299Y03661D01*
Y03701D01*
X06289Y03711D01*
X06259D01*
X06349Y03651D02*
Y03711D01*
X06319Y03681D01*
X06359D01*
X03041Y04585D02*
Y04625D01*
X03031Y04635D01*
X03011D01*
X03001Y04625D01*
Y04585D01*
X03011Y04575D01*
X03031D01*
X03021Y04595D02*
X03041Y04575D01*
X03031D02*
X03041Y04585D01*
X03061Y04575D02*
X03081D01*
X03071D01*
Y04635D01*
X03061Y04625D01*
X02991Y01779D02*
Y01819D01*
X02981Y01829D01*
X02961D01*
X02951Y01819D01*
Y01779D01*
X02961Y01769D01*
X02981D01*
X02971Y01789D02*
X02991Y01769D01*
X02981D02*
X02991Y01779D01*
X03051Y01769D02*
X03011D01*
X03051Y01809D01*
Y01819D01*
X03041Y01829D01*
X03021D01*
X03011Y01819D01*
X03314Y01779D02*
Y01819D01*
X03304Y01829D01*
X03284D01*
X03274Y01819D01*
Y01779D01*
X03284Y01769D01*
X03304D01*
X03294Y01789D02*
X03314Y01769D01*
X03304D02*
X03314Y01779D01*
X03334Y01819D02*
X03344Y01829D01*
X03364D01*
X03374Y01819D01*
Y01809D01*
X03364Y01799D01*
X03354D01*
X03364D01*
X03374Y01789D01*
Y01779D01*
X03364Y01769D01*
X03344D01*
X03334Y01779D01*
X01388Y02533D02*
Y02593D01*
X01418D01*
X01428Y02583D01*
Y02563D01*
X01418Y02553D01*
X01388D01*
X01408D02*
X01428Y02533D01*
X01448D02*
X01468D01*
X01458D01*
Y02593D01*
X01448Y02583D01*
X01577Y01749D02*
Y01809D01*
X01607D01*
X01617Y01799D01*
Y01779D01*
X01607Y01769D01*
X01577D01*
X01597D02*
X01617Y01749D01*
X01677D02*
X01637D01*
X01677Y01789D01*
Y01799D01*
X01667Y01809D01*
X01647D01*
X01637Y01799D01*
X01514Y02147D02*
Y02207D01*
X01544D01*
X01554Y02197D01*
Y02177D01*
X01544Y02167D01*
X01514D01*
X01534D02*
X01554Y02147D01*
X01574Y02197D02*
X01584Y02207D01*
X01604D01*
X01614Y02197D01*
Y02187D01*
X01604Y02177D01*
X01594D01*
X01604D01*
X01614Y02167D01*
Y02157D01*
X01604Y02147D01*
X01584D01*
X01574Y02157D01*
X01837Y01788D02*
Y01848D01*
X01867D01*
X01877Y01838D01*
Y01818D01*
X01867Y01808D01*
X01837D01*
X01857D02*
X01877Y01788D01*
X01927D02*
Y01848D01*
X01897Y01818D01*
X01937D01*
X01504Y02235D02*
Y02295D01*
X01534D01*
X01544Y02285D01*
Y02265D01*
X01534Y02255D01*
X01504D01*
X01524D02*
X01544Y02235D01*
X01604Y02295D02*
X01564D01*
Y02265D01*
X01584Y02275D01*
X01594D01*
X01604Y02265D01*
Y02245D01*
X01594Y02235D01*
X01574D01*
X01564Y02245D01*
X02311Y02757D02*
Y02817D01*
X02341D01*
X02351Y02807D01*
Y02787D01*
X02341Y02777D01*
X02311D01*
X02331D02*
X02351Y02757D01*
X02411Y02817D02*
X02391Y02807D01*
X02371Y02787D01*
Y02767D01*
X02381Y02757D01*
X02401D01*
X02411Y02767D01*
Y02777D01*
X02401Y02787D01*
X02371D01*
X02345Y02033D02*
Y02093D01*
X02375D01*
X02385Y02083D01*
Y02063D01*
X02375Y02053D01*
X02345D01*
X02365D02*
X02385Y02033D01*
X02405Y02093D02*
X02445D01*
Y02083D01*
X02405Y02043D01*
Y02033D01*
X01867Y02562D02*
Y02622D01*
X01897D01*
X01907Y02612D01*
Y02592D01*
X01897Y02582D01*
X01867D01*
X01887D02*
X01907Y02562D01*
X01927Y02612D02*
X01937Y02622D01*
X01957D01*
X01967Y02612D01*
Y02602D01*
X01957Y02592D01*
X01967Y02582D01*
Y02572D01*
X01957Y02562D01*
X01937D01*
X01927Y02572D01*
Y02582D01*
X01937Y02592D01*
X01927Y02602D01*
Y02612D01*
X01937Y02592D02*
X01957D01*
X02541Y02261D02*
Y02321D01*
X02571D01*
X02581Y02311D01*
Y02291D01*
X02571Y02281D01*
X02541D01*
X02561D02*
X02581Y02261D01*
X02601Y02271D02*
X02611Y02261D01*
X02631D01*
X02641Y02271D01*
Y02311D01*
X02631Y02321D01*
X02611D01*
X02601Y02311D01*
Y02301D01*
X02611Y02291D01*
X02641D01*
X02360Y01907D02*
Y01967D01*
X02390D01*
X02400Y01957D01*
Y01937D01*
X02390Y01927D01*
X02360D01*
X02380D02*
X02400Y01907D01*
X02420D02*
X02440D01*
X02430D01*
Y01967D01*
X02420Y01957D01*
X02470D02*
X02480Y01967D01*
X02500D01*
X02510Y01957D01*
Y01917D01*
X02500Y01907D01*
X02480D01*
X02470Y01917D01*
Y01957D01*
X03244Y03603D02*
Y03663D01*
X03274D01*
X03284Y03653D01*
Y03633D01*
X03274Y03623D01*
X03244D01*
X03264D02*
X03284Y03603D01*
X03304D02*
X03324D01*
X03314D01*
Y03663D01*
X03304Y03653D01*
X03354Y03603D02*
X03374D01*
X03364D01*
Y03663D01*
X03354Y03653D01*
X02561Y01651D02*
Y01711D01*
X02591D01*
X02601Y01701D01*
Y01681D01*
X02591Y01671D01*
X02561D01*
X02581D02*
X02601Y01651D01*
X02621D02*
X02641D01*
X02631D01*
Y01711D01*
X02621Y01701D01*
X02711Y01651D02*
X02671D01*
X02711Y01691D01*
Y01701D01*
X02701Y01711D01*
X02681D01*
X02671Y01701D01*
X05831Y03564D02*
Y03624D01*
X05861D01*
X05871Y03614D01*
Y03594D01*
X05861Y03584D01*
X05831D01*
X05851D02*
X05871Y03564D01*
X05891D02*
X05911D01*
X05901D01*
Y03624D01*
X05891Y03614D01*
X05941D02*
X05951Y03624D01*
X05971D01*
X05981Y03614D01*
Y03604D01*
X05971Y03594D01*
X05961D01*
X05971D01*
X05981Y03584D01*
Y03574D01*
X05971Y03564D01*
X05951D01*
X05941Y03574D01*
X06626Y03564D02*
X06686D01*
Y03534D01*
X06676Y03524D01*
X06656D01*
X06646Y03534D01*
Y03564D01*
Y03544D02*
X06626Y03524D01*
Y03504D02*
Y03484D01*
Y03494D01*
X06686D01*
X06676Y03504D01*
X06626Y03424D02*
X06686D01*
X06656Y03454D01*
Y03414D01*
X06230Y03395D02*
Y03455D01*
X06260D01*
X06270Y03445D01*
Y03425D01*
X06260Y03415D01*
X06230D01*
X06250D02*
X06270Y03395D01*
X06290D02*
X06310D01*
X06300D01*
Y03455D01*
X06290Y03445D01*
X06380Y03455D02*
X06340D01*
Y03425D01*
X06360Y03435D01*
X06370D01*
X06380Y03425D01*
Y03405D01*
X06370Y03395D01*
X06350D01*
X06340Y03405D01*
X03604Y03446D02*
Y03506D01*
X03634D01*
X03644Y03496D01*
Y03476D01*
X03634Y03466D01*
X03604D01*
X03624D02*
X03644Y03446D01*
X03664D02*
X03684D01*
X03674D01*
Y03506D01*
X03664Y03496D01*
X03754Y03506D02*
X03734Y03496D01*
X03714Y03476D01*
Y03456D01*
X03724Y03446D01*
X03744D01*
X03754Y03456D01*
Y03466D01*
X03744Y03476D01*
X03714D01*
X03500Y03328D02*
Y03388D01*
X03530D01*
X03540Y03378D01*
Y03358D01*
X03530Y03348D01*
X03500D01*
X03520D02*
X03540Y03328D01*
X03560D02*
X03580D01*
X03570D01*
Y03388D01*
X03560Y03378D01*
X03610Y03388D02*
X03650D01*
Y03378D01*
X03610Y03338D01*
Y03328D01*
X03490Y03161D02*
Y03220D01*
X03520D01*
X03530Y03210D01*
Y03191D01*
X03520Y03181D01*
X03490D01*
X03510D02*
X03530Y03161D01*
X03550D02*
X03570D01*
X03560D01*
Y03220D01*
X03550Y03210D01*
X03600D02*
X03610Y03220D01*
X03630D01*
X03640Y03210D01*
Y03200D01*
X03630Y03191D01*
X03640Y03181D01*
Y03171D01*
X03630Y03161D01*
X03610D01*
X03600Y03171D01*
Y03181D01*
X03610Y03191D01*
X03600Y03200D01*
Y03210D01*
X03610Y03191D02*
X03630D01*
X01841Y01510D02*
X01881D01*
X01861D01*
Y01450D01*
X01901Y01510D02*
Y01450D01*
X01941D01*
X01991D02*
Y01510D01*
X01961Y01480D01*
X02001D01*
X02021Y01460D02*
X02031Y01450D01*
X02051D01*
X02061Y01460D01*
Y01500D01*
X02051Y01510D01*
X02031D01*
X02021Y01500D01*
Y01490D01*
X02031Y01480D01*
X02061D01*
X02111Y01450D02*
Y01510D01*
X02081Y01480D01*
X02121D01*
X02181Y01500D02*
X02171Y01510D01*
X02151D01*
X02141Y01500D01*
Y01460D01*
X02151Y01450D01*
X02171D01*
X02181Y01460D01*
X02201Y01510D02*
Y01450D01*
X02231D01*
X02241Y01460D01*
Y01500D01*
X02231Y01510D01*
X02201D01*
X02261Y01450D02*
Y01510D01*
X02291D01*
X02301Y01500D01*
Y01480D01*
X02291Y01470D01*
X02261D01*
X02281D02*
X02301Y01450D01*
X02902Y02955D02*
X02942D01*
X02922D01*
Y02895D01*
X02962D02*
Y02955D01*
X02992D01*
X03002Y02945D01*
Y02925D01*
X02992Y02915D01*
X02962D01*
X02982D02*
X03002Y02895D01*
X03022D02*
X03042D01*
X03032D01*
Y02955D01*
X03022Y02945D01*
X02793Y02551D02*
Y02511D01*
X02813Y02491D01*
X02833Y02511D01*
Y02551D01*
X02853Y02491D02*
Y02551D01*
X02883D01*
X02893Y02541D01*
Y02521D01*
X02883Y02511D01*
X02853D01*
X02873D02*
X02893Y02491D01*
X02913D02*
X02933D01*
X02923D01*
Y02551D01*
X02913Y02541D01*
X05936Y03316D02*
X05896D01*
X05876Y03296D01*
X05896Y03276D01*
X05936D01*
X05876Y03256D02*
X05936D01*
Y03226D01*
X05926Y03216D01*
X05906D01*
X05896Y03226D01*
Y03256D01*
Y03236D02*
X05876Y03216D01*
Y03156D02*
Y03196D01*
X05916Y03156D01*
X05926D01*
X05936Y03166D01*
Y03186D01*
X05926Y03196D01*
M02*
