G04 Layer_Color=32768*
%FSAX23Y23*%
%MOIN*%
G70*
G01*
G75*
%ADD49C,0.008*%
%ADD50C,0.004*%
G54D49*
X06128Y03781D02*
Y04096D01*
Y03781D02*
X06443D01*
Y04096D01*
X06128D02*
X06443D01*
X06128Y04253D02*
Y04568D01*
Y04253D02*
X06443D01*
Y04568D01*
X06128D02*
X06443D01*
X01167Y04174D02*
Y04489D01*
Y04174D02*
X01482D01*
Y04489D01*
X01167D02*
X01482D01*
X01167Y03623D02*
Y03938D01*
Y03623D02*
X01482D01*
Y03938D01*
X01167D02*
X01482D01*
X06110Y02651D02*
X06485D01*
X06485Y02461D01*
X06110D02*
X06485D01*
X06110Y02651D02*
X06110Y02461D01*
X02399Y02366D02*
X02774D01*
X02399Y02557D02*
X02399Y02366D01*
X02399Y02557D02*
X02774D01*
X02774Y02366D01*
G54D50*
X06396Y03303D02*
Y03352D01*
Y03303D02*
X06475D01*
Y03352D01*
X06396D02*
X06475D01*
X06606Y03303D02*
Y03352D01*
Y03303D02*
X06685D01*
Y03352D01*
X06606D02*
X06685D01*
X03075Y03862D02*
X03158D01*
X03075D02*
Y03915D01*
X03158D01*
Y03862D02*
Y03915D01*
X03264Y03864D02*
Y03913D01*
Y03864D02*
X03343D01*
Y03913D01*
X03264D02*
X03343D01*
X02690Y04015D02*
Y04098D01*
X02637Y04015D02*
X02690D01*
X02637D02*
Y04098D01*
X02690D01*
X05788Y03865D02*
X06036D01*
Y03735D02*
Y03865D01*
X05788Y03735D02*
X06036D01*
X05788D02*
Y03865D01*
X02659Y02046D02*
Y02129D01*
X02712D01*
Y02046D02*
Y02129D01*
X02659Y02046D02*
X02712D01*
X01965Y02467D02*
Y02516D01*
X01886D02*
X01965D01*
X01886Y02467D02*
Y02516D01*
Y02467D02*
X01965D01*
X01699Y02465D02*
X01782D01*
X01699D02*
Y02518D01*
X01782D01*
Y02465D02*
Y02518D01*
X04704Y04133D02*
Y04216D01*
X04757D01*
Y04133D02*
Y04216D01*
X04704Y04133D02*
X04757D01*
X04882Y03981D02*
Y04184D01*
Y03981D02*
X05288D01*
Y04286D01*
X05186Y04387D02*
X05288Y04286D01*
X04983Y04387D02*
X05186D01*
X04882Y04286D02*
X04983Y04387D01*
X04882Y04184D02*
Y04286D01*
X05394Y03977D02*
Y04180D01*
Y03977D02*
X05799D01*
Y04282D01*
X05698Y04383D02*
X05799Y04282D01*
X05495Y04383D02*
X05698D01*
X05394Y04282D02*
X05495Y04383D01*
X05394Y04180D02*
Y04282D01*
X01634Y03853D02*
Y04056D01*
Y03853D02*
X02040D01*
Y04158D01*
X01938Y04259D02*
X02040Y04158D01*
X01735Y04259D02*
X01938D01*
X01634Y04158D02*
X01735Y04259D01*
X01634Y04056D02*
Y04158D01*
X02146Y03853D02*
Y04056D01*
Y03853D02*
X02551D01*
Y04158D01*
X02450Y04259D02*
X02551Y04158D01*
X02247Y04259D02*
X02450D01*
X02146Y04158D02*
X02247Y04259D01*
X02146Y04056D02*
Y04158D01*
X03204Y04091D02*
X03254Y04041D01*
X03204Y04041D02*
X03384D01*
Y04449D01*
X03204D02*
X03384D01*
X03204Y04041D02*
Y04449D01*
X01729Y02211D02*
X01729Y02260D01*
X01650D02*
X01729D01*
X01650Y02211D02*
Y02260D01*
Y02211D02*
X01729D01*
X01652Y02083D02*
Y02132D01*
Y02083D02*
X01730D01*
Y02132D01*
X01652D02*
X01730D01*
X01640Y02350D02*
X01723D01*
Y02297D02*
Y02350D01*
X01640Y02297D02*
X01723D01*
X01640D02*
Y02350D01*
X01598Y01861D02*
X01647D01*
Y01940D01*
X01598D02*
X01647D01*
X01598Y01861D02*
Y01940D01*
X01453Y01913D02*
X01536D01*
X01453D02*
Y01967D01*
X01536D01*
Y01913D02*
Y01967D01*
X01711Y01837D02*
Y01886D01*
Y01837D02*
X01790D01*
Y01886D01*
X01711D02*
X01790D01*
X01699Y01967D02*
X01782D01*
Y01913D02*
Y01967D01*
X01699Y01913D02*
X01782D01*
X01699D02*
Y01967D01*
X01699Y01780D02*
X01782D01*
Y01726D02*
Y01780D01*
X01699Y01726D02*
X01782D01*
X01699D02*
Y01780D01*
X01797Y02262D02*
X01880D01*
Y02209D02*
Y02262D01*
X01797Y02209D02*
X01880D01*
X01797D02*
Y02262D01*
X03152Y01842D02*
Y02098D01*
X03447D01*
Y01842D02*
Y02098D01*
X03152Y01842D02*
X03447D01*
X02833D02*
Y02098D01*
X03128D01*
Y01842D02*
Y02098D01*
X02833Y01842D02*
X03128D01*
X03055Y02860D02*
X03595D01*
Y02224D02*
Y02860D01*
X03055Y02224D02*
X03595D01*
X03055D02*
Y02860D01*
X03353Y03441D02*
Y03490D01*
Y03441D02*
X03431D01*
Y03490D01*
X03353D02*
X03431D01*
X03353Y03165D02*
Y03215D01*
Y03165D02*
X03431D01*
Y03215D01*
X03353D02*
X03431D01*
X03528Y03862D02*
X03937D01*
X03937Y03681D01*
X03528D02*
X03937D01*
X03528D02*
X03528Y03862D01*
X03528Y03809D02*
X03581Y03862D01*
X02878Y03492D02*
X02961D01*
Y03439D02*
Y03492D01*
X02878Y03439D02*
X02961D01*
X02878D02*
Y03492D01*
X02294Y01682D02*
Y01765D01*
X02348D01*
Y01682D02*
Y01765D01*
X02294Y01682D02*
X02348D01*
X03249Y02125D02*
Y02208D01*
X03302D01*
Y02125D02*
Y02208D01*
X03249Y02125D02*
X03302D01*
X02533Y01775D02*
X02582D01*
Y01853D01*
X02533D02*
X02582D01*
X02533Y01775D02*
Y01853D01*
X02383Y01682D02*
Y01765D01*
X02436D01*
Y01682D02*
Y01765D01*
X02383Y01682D02*
X02436D01*
X01886Y02429D02*
X01969D01*
Y02376D02*
Y02429D01*
X01886Y02376D02*
X01969D01*
X01886D02*
Y02429D01*
X02057Y02124D02*
X02107Y02174D01*
X02057Y01785D02*
Y02174D01*
Y01785D02*
X02211D01*
Y02174D01*
X02057D02*
X02211D01*
X02410Y02614D02*
Y02663D01*
X02331D02*
X02410D01*
X02331Y02614D02*
Y02663D01*
Y02614D02*
X02410D01*
X02319Y02130D02*
X02402D01*
X02319D02*
Y02183D01*
X02402D01*
Y02130D02*
Y02183D01*
X02464Y02056D02*
X02513D01*
Y02135D01*
X02464D02*
X02513D01*
X02464Y02056D02*
Y02135D01*
Y02216D02*
X02513D01*
Y02294D01*
X02464D02*
X02513D01*
X02464Y02216D02*
Y02294D01*
X02380Y01827D02*
Y01876D01*
Y01827D02*
X02459D01*
Y01876D01*
X02380D02*
X02459D01*
X01304Y02582D02*
X01354D01*
X01304Y02503D02*
Y02582D01*
Y02503D02*
X01354D01*
Y02582D01*
M02*
