G04 Layer_Color=255*
%FSAX23Y23*%
%MOIN*%
G70*
G01*
G75*
%ADD38O,0.079X0.098*%
%ADD39O,0.079X0.059*%
%ADD40R,0.079X0.059*%
%ADD41O,0.078X0.118*%
%ADD42R,0.078X0.078*%
%ADD43C,0.177*%
%ADD44R,0.074X0.074*%
%ADD45O,0.118X0.074*%
%ADD46C,0.157*%
%ADD47O,0.098X0.079*%
%ADD48C,0.112*%
G54D38*
X02431Y02655D02*
D03*
X02331D02*
D03*
X02231D02*
D03*
G54D39*
X03766Y02847D02*
D03*
Y02747D02*
D03*
Y02647D02*
D03*
G54D40*
Y02547D02*
D03*
G54D41*
X03825Y03741D02*
D03*
X03727D02*
D03*
G54D42*
X03626D02*
D03*
G54D43*
X06719Y01202D02*
D03*
Y04745D02*
D03*
X01207Y01202D02*
D03*
Y04745D02*
D03*
G54D44*
X03323Y04145D02*
D03*
G54D45*
Y04245D02*
D03*
Y04345D02*
D03*
G54D46*
X04396Y04351D02*
D03*
X03727D02*
D03*
G54D47*
X06679Y02551D02*
D03*
Y02651D02*
D03*
Y02751D02*
D03*
G54D48*
X01227Y03643D02*
D03*
X01423D02*
D03*
X01227Y03918D02*
D03*
X01423D02*
D03*
X01227Y04194D02*
D03*
X01423D02*
D03*
X01227Y04470D02*
D03*
X01423D02*
D03*
X06187Y04273D02*
D03*
X06384D02*
D03*
X06187Y04548D02*
D03*
X06384D02*
D03*
X06187Y03800D02*
D03*
X06384D02*
D03*
X06187Y04076D02*
D03*
X06384D02*
D03*
M02*
