G04 Layer_Color=128*
%FSAX23Y23*%
%MOIN*%
G70*
G01*
G75*
%ADD51C,0.002*%
G54D51*
X06347Y04076D02*
X06421D01*
X06384Y04038D02*
Y04113D01*
X06150Y04076D02*
X06225D01*
X06187Y04038D02*
Y04113D01*
X06347Y03800D02*
X06421D01*
X06384Y03763D02*
Y03838D01*
X06150Y03800D02*
X06225D01*
X06187Y03763D02*
Y03838D01*
X06347Y04548D02*
X06421D01*
X06384Y04511D02*
Y04586D01*
X06150Y04548D02*
X06225D01*
X06187Y04511D02*
Y04586D01*
X06347Y04273D02*
X06421D01*
X06384Y04235D02*
Y04310D01*
X06150Y04273D02*
X06225D01*
X06187Y04235D02*
Y04310D01*
X01386Y04470D02*
X01461D01*
X01423Y04432D02*
Y04507D01*
X01189Y04470D02*
X01264D01*
X01227Y04432D02*
Y04507D01*
X01386Y04194D02*
X01461D01*
X01423Y04157D02*
Y04231D01*
X01189Y04194D02*
X01264D01*
X01227Y04157D02*
Y04231D01*
X01386Y03918D02*
X01461D01*
X01423Y03881D02*
Y03956D01*
X01189Y03918D02*
X01264D01*
X01227Y03881D02*
Y03956D01*
X01386Y03643D02*
X01461D01*
X01423Y03605D02*
Y03680D01*
X01189Y03643D02*
X01264D01*
X01227Y03605D02*
Y03680D01*
X06378Y02556D02*
X06417D01*
X06397Y02536D02*
Y02576D01*
X06278Y02556D02*
X06317D01*
X06297Y02536D02*
Y02576D01*
X06178Y02556D02*
X06217D01*
X06197Y02536D02*
Y02576D01*
X01138Y04745D02*
X01276D01*
X01207Y04676D02*
Y04814D01*
X01138Y01202D02*
X01276D01*
X01207Y01133D02*
Y01271D01*
X06650Y04745D02*
X06788D01*
X06719Y04676D02*
Y04814D01*
X03667Y04351D02*
X03786D01*
X03727Y04292D02*
Y04411D01*
X04337Y04351D02*
X04455D01*
X04396Y04292D02*
Y04411D01*
X03298Y04345D02*
X03348D01*
X03323Y04320D02*
Y04369D01*
X03298Y04245D02*
X03348D01*
X03323Y04220D02*
Y04269D01*
X03298Y04145D02*
X03348D01*
X03323Y04120D02*
Y04169D01*
X06650Y01202D02*
X06788D01*
X06719Y01133D02*
Y01271D01*
X03600Y03741D02*
X03652D01*
X03626Y03715D02*
Y03767D01*
X03701Y03741D02*
X03753D01*
X03727Y03715D02*
Y03767D01*
X03799Y03741D02*
X03851D01*
X03825Y03715D02*
Y03767D01*
X04002Y02354D02*
X04041D01*
X04022Y02334D02*
Y02374D01*
X04002Y02454D02*
X04041D01*
X04022Y02434D02*
Y02474D01*
X04002Y02554D02*
X04041D01*
X04022Y02534D02*
Y02574D01*
X04002Y02654D02*
X04041D01*
X04022Y02634D02*
Y02674D01*
X02467Y02462D02*
X02506D01*
X02487Y02442D02*
Y02481D01*
X02567Y02462D02*
X02606D01*
X02587Y02442D02*
Y02481D01*
X02667Y02462D02*
X02706D01*
X02687Y02442D02*
Y02481D01*
X06458Y03171D02*
X06498D01*
X06478Y03151D02*
Y03191D01*
X02004Y02279D02*
X02044D01*
X02024Y02259D02*
Y02299D01*
X01396Y02025D02*
X01435D01*
X01416Y02005D02*
Y02044D01*
X01490Y02162D02*
X01530D01*
X01510Y02143D02*
Y02182D01*
X02762Y02048D02*
X02801D01*
X02782Y02029D02*
Y02068D01*
X02959Y02355D02*
X02998D01*
X02979Y02336D02*
Y02375D01*
X03333Y03101D02*
X03372D01*
X03353Y03082D02*
Y03121D01*
X03475Y03466D02*
X03514D01*
X03494Y03446D02*
Y03485D01*
M02*
