M48
;Layer_Color=9474304
;FILE_FORMAT=2:3
INCH
;TYPE=PLATED
T1F00S00C0.039
T2F00S00C0.049
T3F00S00C0.052
T4F00S00C0.075
T5F00S00C0.118
T6F00S00C0.138
%
T01
X06679Y02551
Y02651
Y02751
X06471Y03056
X03766Y02847
Y02747
Y02647
Y02547
X03353Y03101
X02723Y02548
X02431Y02655
X02331
X02231
X01770Y02428
X02526Y02241
X01254Y02355
X01160Y02218
X03494Y03466
T02
X03323Y04145
Y04245
Y04345
T03
X03626Y03741
X03727
X03825
T04
X01227Y03643
X01423
Y03918
X01227
Y04194
X01423
Y04470
X01227
X06187Y04548
Y04273
Y04076
Y03800
X06384
Y04076
Y04273
Y04548
T05
X03727Y04351
X04396
T06
X01207Y01202
X06719
Y04745
X01207
M30
